<?xml version="1.0" encoding="UTF-8" standalone="no"?>
<svg
   xmlns:dc="http://purl.org/dc/elements/1.1/"
   xmlns:cc="http://creativecommons.org/ns#"
   xmlns:rdf="http://www.w3.org/1999/02/22-rdf-syntax-ns#"
   xmlns:svg="http://www.w3.org/2000/svg"
   xmlns="http://www.w3.org/2000/svg"
   xmlns:xlink="http://www.w3.org/1999/xlink"
   xmlns:sodipodi="http://sodipodi.sourceforge.net/DTD/sodipodi-0.dtd"
   xmlns:inkscape="http://www.inkscape.org/namespaces/inkscape"
   sodipodi:docname="prog-java.svg"
   inkscape:version="0.48.5 r10040"
   id="svg2"
   xml:space="preserve"
   enable-background="new 0 0 512 512"
   viewBox="0 0 512 512"
   height="512px"
   width="512px"
   y="0px"
   x="0px"
   version="1.1"><sodipodi:namedview
     pagecolor="#ffffff"
     bordercolor="#666666"
     borderopacity="1"
     objecttolerance="10"
     gridtolerance="10"
     guidetolerance="10"
     inkscape:pageopacity="0"
     inkscape:pageshadow="2"
     inkscape:window-width="1920"
     inkscape:window-height="1017"
     id="namedview7"
     showgrid="false"
     inkscape:zoom="0.921875"
     inkscape:cx="203.9322"
     inkscape:cy="242.09068"
     inkscape:window-x="-8"
     inkscape:window-y="-8"
     inkscape:window-maximized="1"
     inkscape:current-layer="layer1" /><metadata
     id="metadata11"><rdf:RDF><cc:Work
         rdf:about=""><dc:format>image/svg+xml</dc:format><dc:type
           rdf:resource="http://purl.org/dc/dcmitype/StillImage" /><dc:title></dc:title></cc:Work></rdf:RDF></metadata><defs
     id="defs9"><linearGradient
       inkscape:collect="always"
       id="linearGradient5227"><stop
         style="stop-color:#000000;stop-opacity:1;"
         offset="0"
         id="stop5229" /><stop
         style="stop-color:#000000;stop-opacity:0;"
         offset="1"
         id="stop5231" /></linearGradient><linearGradient
       inkscape:collect="always"
       xlink:href="#linearGradient5227"
       id="linearGradient5233"
       x1="316.74576"
       y1="347.11865"
       x2="710.95496"
       y2="741.32788"
       gradientUnits="userSpaceOnUse" /><clipPath
       clipPathUnits="userSpaceOnUse"
       id="clipPath5308"><rect
         style="fill:#9b0000;fill-opacity:1;stroke:none;display:inline"
         id="rect5310"
         width="512"
         height="512"
         x="0"
         y="0" /></clipPath><clipPath
       clipPathUnits="userSpaceOnUse"
       id="clipPath5312"><rect
         style="fill:#9b0000;fill-opacity:1;stroke:none;display:inline"
         id="rect5314"
         width="512"
         height="512"
         x="0"
         y="0" /></clipPath><clipPath
       clipPathUnits="userSpaceOnUse"
       id="clipPath5316"><rect
         style="fill:#9b0000;fill-opacity:1;stroke:none;display:inline"
         id="rect5318"
         width="512"
         height="512"
         x="0"
         y="0" /></clipPath></defs><g
     inkscape:groupmode="layer"
     id="layer3"
     inkscape:label="Background"
     style="display:inline"><rect
       y="0"
       x="0"
       height="512"
       width="512"
       id="rect2988"
       style="fill:#9b0000;fill-opacity:1;stroke:none" /></g><g
     style="display:inline"
     inkscape:label=" Icon"
     id="layer1"
     inkscape:groupmode="layer"><path
       style="opacity:0.3;fill:url(#linearGradient5233);fill-opacity:1;display:inline"
       d="m 287.40625,40.90625 c 1.98221,9.537783 3.01636,19.463419 0.84375,29.09375 -2.64293,13.125927 -10.2787,24.555969 -19.53125,34.09375 -16.71255,17.37253 -37.7877,29.90815 -54.875,47 -6.13777,6.42149 -12.25996,13.31367 -15,21.90625 -2.74079,8.40444 -1.14989,17.66191 2.4375,25.59375 4.62713,9.91538 11.35665,18.5227 18.65625,26.59375 1.37252,1.62404 2.75997,3.23534 4.1875,4.8125 1.3291,1.5703 2.68196,3.12981 4.0625,4.65625 1.36388,1.61202 2.73835,3.21535 4.15625,4.78125 1.30949,1.54529 2.60955,3.05965 3.96875,4.5625 1.3291,1.5703 2.68196,3.12981 4.0625,4.65625 1.32004,1.55874 2.66057,3.10946 4.03125,4.625 1.31098,1.54718 2.63918,3.08911 4,4.59375 1.35442,1.59803 2.71782,3.19716 4.125,4.75 1.25254,1.47301 2.51507,2.94046 3.8125,4.375 1.30355,1.53683 2.61618,3.06758 3.96875,4.5625 1.27882,1.50629 2.58036,3.00273 3.90625,4.46875 0.16245,0.19138 0.30541,0.40308 0.46875,0.59375 -1.52226,0.11035 -3.03873,0.24707 -4.5625,0.34375 -12.97292,0.81377 -26.02412,1.44995 -39.0625,1.625 1.06983,-0.30323 2.15306,-0.59658 3.21875,-0.90625 -5.28561,-0.0794 -10.57236,0.24769 -15.8125,0.90625 -2.29601,-0.0287 -4.61076,-0.059 -6.90625,-0.125 6.16456,-1.97271 12.45267,-3.63487 18.65625,-5.4375 -10.59104,-0.15916 -21.15256,1.28471 -31.4375,3.875 8.85916,-3.52625 18.20429,-5.86643 27.375,-8.53125 -10.62364,-0.15964 -21.21636,1.26956 -31.53125,3.875 8.8783,-3.54068 18.24442,-5.92243 27.4375,-8.59375 -10.67667,-0.16044 -21.32393,1.30736 -31.6875,3.9375 8.91897,-3.57153 18.35303,-5.93984 27.59375,-8.625 -10.83856,-0.16287 -21.6443,1.3251 -32.15625,4.03125 9.04504,-3.66899 18.64219,-6.05298 28.03125,-8.78125 -18.98075,-0.28523 -37.87975,4.53925 -55.25,12 -3.87261,1.88966 -8.19772,3.38263 -11.3125,6.59375 -1.23043,1.31919 -1.23031,3.58845 0.1875,4.71875 0.93497,0.84135 1.96296,1.51353 3.0625,2.09375 -0.081,1.00045 0.25215,2.01023 1.0625,2.65625 0.92009,0.82796 1.95116,1.48816 3.03125,2.0625 -0.0711,0.99011 0.2608,2.01712 1.0625,2.65625 0.92009,0.82796 1.95116,1.48816 3.03125,2.0625 -0.0711,0.99011 0.2608,1.98587 1.0625,2.625 0.91329,0.82184 1.92878,1.49087 3,2.0625 -0.0617,0.98002 0.26916,1.96129 1.0625,2.59375 0.90477,0.81417 1.90865,1.4943 2.96875,2.0625 -0.0614,0.97974 0.30064,1.96147 1.09375,2.59375 0.89964,0.80956 1.88407,1.46512 2.9375,2.03125 -0.0614,0.97974 0.26939,1.96147 1.0625,2.59375 0.89596,0.80624 1.88887,1.46662 2.9375,2.03125 -0.0521,0.96949 0.27781,1.93694 1.0625,2.5625 0.44604,0.40138 0.94919,0.75745 1.4375,1.09375 -0.17338,0.70023 -0.21271,1.43464 -0.0625,2.1875 0.59157,2.29057 2.33574,3.94688 4.28125,5.25 0.70147,2.03185 2.32432,3.54497 4.125,4.75 0.70787,2.02103 2.32894,3.51829 4.125,4.71875 0.70839,1.98508 2.2647,3.46836 4.03125,4.65625 0.69571,1.98633 2.27253,3.46623 4.03125,4.65625 0.70001,1.99541 2.29322,3.46363 4.0625,4.65625 0.0263,0.0726 0.0652,0.14754 0.0937,0.21875 -3.64782,1.26233 -7.165,2.85226 -10.1875,5.28125 -2.17565,1.7 -3.88378,4.63724 -2.84375,7.375 0.83164,2.19671 2.45328,3.82916 4.3125,5.1875 0.87265,1.97462 2.39407,3.48539 4.125,4.75 0.87497,1.95711 2.37339,3.46175 4.09375,4.71875 0.87102,1.92981 2.36495,3.41072 4.0625,4.65625 0.86956,1.94084 2.35833,3.40587 4.0625,4.65625 0.86163,1.90899 2.32521,3.38785 4,4.625 0.8649,1.91747 2.37891,3.38439 4.0625,4.625 0.85783,1.87731 2.28833,3.33896 3.9375,4.5625 0.86198,1.9065 2.32667,3.38896 4,4.625 0.34438,0.74112 0.80837,1.41109 1.3125,2.03125 -8.90836,-0.20325 -17.79404,-0.58972 -26.6875,-1.15625 -2.95356,-1.35417 -6.2936,-1.49043 -9.5625,-1.40625 -1.57523,0.0487 -3.1553,0.14871 -4.71875,0.3125 -1.4957,-0.15888 -3.00066,-0.3321 -4.5,-0.5 5.19528,-1.32537 10.51847,-2.14786 15.84375,-2.46875 -3.20733,-1.88965 -6.97404,-2.06357 -10.65625,-1.96875 -5.97313,0.1845 -11.87152,1.24831 -17.65625,2.78125 -0.21877,-0.0341 -0.4376,-0.0589 -0.65625,-0.0937 7.95621,-3.09106 16.45545,-4.83264 24.9375,-5.34375 -3.20733,-1.88965 -7.00529,-2.09482 -10.6875,-2 -6.9465,0.21457 -13.78277,1.61612 -20.46875,3.5625 8.57383,-3.6404 17.83615,-5.69215 27.09375,-6.25 -3.20733,-1.88965 -7.00529,-2.06357 -10.6875,-1.96875 -7.12137,0.21997 -14.12226,1.69603 -20.96875,3.71875 8.7044,-3.76598 18.13625,-5.86949 27.5625,-6.4375 -3.20733,-1.88965 -7.00529,-2.06357 -10.6875,-1.96875 -7.22717,0.22323 -14.3066,1.74336 -21.25,3.8125 8.78219,-3.84248 18.28493,-5.98839 27.8125,-6.5625 -3.20733,-1.88965 -6.97404,-2.06357 -10.65625,-1.96875 -7.25328,0.22404 -14.37647,1.76313 -21.34375,3.84375 8.79973,-3.85991 18.32449,-6.0495 27.875,-6.625 -3.20733,-1.88965 -6.97404,-2.06357 -10.65625,-1.96875 -9.16076,0.28296 -18.12737,2.6313 -26.8125,5.5625 -7.46,2.73397 -15.11211,5.77221 -21.0625,11.25 -2.35999,2.07476 -4.54552,6.04014 -2.09375,8.875 0.91821,0.98699 1.96944,1.79287 3.09375,2.46875 0.10867,0.7921 0.45728,1.58146 1.0625,2.28125 0.91777,0.98651 1.93881,1.76182 3.0625,2.4375 0.10867,0.7921 0.42603,1.55021 1.03125,2.25 0.90242,0.97001 1.92911,1.76876 3.03125,2.4375 0.10867,0.7921 0.45728,1.58146 1.0625,2.28125 0.90311,0.97075 1.92814,1.76844 3.03125,2.4375 0.11286,0.78099 0.43405,1.52823 1.03125,2.21875 0.90242,0.97001 1.92911,1.76876 3.03125,2.4375 0.11683,0.77013 0.41063,1.53729 1,2.21875 0.89803,0.96529 1.93525,1.73951 3.03125,2.40625 0.11744,0.76844 0.41185,1.5387 1,2.21875 0.89198,0.95879 1.91247,1.74229 3,2.40625 0.12045,0.75992 0.418,1.51456 1,2.1875 0.88189,0.94794 1.89531,1.71573 2.96875,2.375 0.11744,0.76844 0.4431,1.50745 1.03125,2.1875 0.87645,0.9421 1.87164,1.71827 2.9375,2.375 0.12045,0.75992 0.44925,1.51456 1.03125,2.1875 0.87583,0.94143 1.84125,1.71856 2.90625,2.375 0.12487,0.74703 0.45855,1.49406 1.03125,2.15625 0.87583,0.94143 1.84125,1.71856 2.90625,2.375 0.1284,0.73634 0.43502,1.47174 1,2.125 0.86574,0.93059 1.85529,1.69208 2.90625,2.34375 0.12487,0.74703 0.4273,1.46281 1,2.125 0.86039,0.92483 1.83148,1.69463 2.875,2.34375 0.1284,0.73634 0.43502,1.47174 1,2.125 0.8496,0.91323 1.81518,1.66857 2.84375,2.3125 0.1284,0.73634 0.46627,1.44049 1.03125,2.09375 0.84796,0.91147 1.7862,1.66936 2.8125,2.3125 0.1284,0.73634 0.43502,1.44049 1,2.09375 0.8417,0.90474 1.79486,1.67241 2.8125,2.3125 0.13066,0.7293 0.47135,1.44637 1.03125,2.09375 0.84556,0.90889 1.78952,1.63928 2.8125,2.28125 0.13251,0.72339 0.41312,1.42005 0.96875,2.0625 0.83776,0.9005 1.80031,1.64309 2.8125,2.28125 0.13251,0.72339 0.41312,1.42005 0.96875,2.0625 0.83442,0.89692 1.77366,1.64473 2.78125,2.28125 0.13577,0.7127 0.42084,1.39773 0.96875,2.03125 0.82129,0.8828 1.7605,1.61999 2.75,2.25 0.13577,0.7127 0.45209,1.39773 1,2.03125 0.82129,0.8828 1.72925,1.61999 2.71875,2.25 0.1375,0.70687 0.45631,1.40261 1,2.03125 0.81327,0.87419 1.70901,1.59276 2.6875,2.21875 0.13891,0.70202 0.45981,1.40666 1,2.03125 0.80846,0.86901 1.71562,1.56395 2.6875,2.1875 0.13891,0.70202 0.42856,1.37541 0.96875,2 0.80482,0.8651 1.7206,1.59704 2.6875,2.21875 0.14192,0.69134 0.43628,1.38434 0.96875,2 0.79713,0.85683 1.69988,1.56972 2.65625,2.1875 0.14192,0.69134 0.43629,1.35309 0.96875,1.96875 0.79462,0.85413 1.70331,1.57101 2.65625,2.1875 0.1435,0.68554 0.44048,1.35794 0.96875,1.96875 0.78505,0.84385 1.65387,1.54471 2.59375,2.15625 0.14324,0.6865 0.47104,1.35714 1,1.96875 0.78505,0.84385 1.65387,1.54471 2.59375,2.15625 0.1448,0.68067 0.44401,1.33077 0.96875,1.9375 0.77525,0.83331 1.63596,1.51858 2.5625,2.125 0.1448,0.68067 0.47526,1.33077 1,1.9375 0.77189,0.8297 1.60928,1.5516 2.53125,2.15625 0.14756,0.67 0.45173,1.30845 0.96875,1.90625 0.76794,0.82546 1.64589,1.52244 2.5625,2.125 0.14812,0.66776 0.45336,1.31033 0.96875,1.90625 0.76686,0.8243 1.61611,1.49176 2.53125,2.09375 0.14812,0.66776 0.42211,1.31033 0.9375,1.90625 0.76168,0.81873 1.62313,1.52576 2.53125,2.125 0.1532,0.64645 0.43755,1.26569 0.9375,1.84375 0.75148,0.80776 1.60569,1.49998 2.5,2.09375 0.15073,0.6571 0.42983,1.28801 0.9375,1.875 0.75071,0.80694 1.60672,1.46914 2.5,2.0625 0.15147,0.65394 0.43212,1.29065 0.9375,1.875 0.74968,0.80583 1.57687,1.4697 2.46875,2.0625 0.1532,0.64645 0.43755,1.26569 0.9375,1.84375 0.74371,0.79941 1.55367,1.47294 2.4375,2.0625 0.15555,0.63581 0.44527,1.24337 0.9375,1.8125 0.7248,0.77909 1.54786,1.45207 2.40625,2.03125 0.15371,0.64417 0.47045,1.26759 0.96875,1.84375 0.7241,0.77834 1.51755,1.42121 2.375,2 0.15555,0.63581 0.47653,1.27462 0.96875,1.84375 0.72814,0.78268 1.51213,1.45022 2.375,2.03125 0.15984,0.61455 0.46072,1.22998 0.9375,1.78125 0.71824,0.77203 1.49416,1.42447 2.34375,2 0.15776,0.62517 0.48425,1.22105 0.96875,1.78125 0.70834,0.76139 1.47616,1.39878 2.3125,1.96875 0.15776,0.62517 0.48425,1.22105 0.96875,1.78125 0.70834,0.76139 1.47616,1.43003 2.3125,2 0.16019,0.61271 0.46206,1.20027 0.9375,1.75 0.70834,0.76139 1.47616,1.43003 2.3125,2 0.16219,0.6017 0.47007,1.17828 0.9375,1.71875 0.69809,0.75038 1.45858,1.40459 2.28125,1.96875 0.16219,0.6017 0.47007,1.17828 0.9375,1.71875 0.68784,0.73936 1.44095,1.37922 2.25,1.9375 0.16026,0.61231 0.46235,1.2006 0.9375,1.75 0.68784,0.73936 1.44095,1.34797 2.25,1.90625 0.16219,0.6017 0.43882,1.20953 0.90625,1.75 0.68192,0.733 1.44881,1.35139 2.25,1.90625 0.16398,0.5911 0.44654,1.18721 0.90625,1.71875 0.67168,0.72199 1.43113,1.32612 2.21875,1.875 0.16227,0.60121 0.47043,1.1787 0.9375,1.71875 0.67168,0.72199 1.39988,1.32612 2.1875,1.875 0.16398,0.5911 0.44654,1.15596 0.90625,1.6875 0.66143,0.71097 1.41341,1.33216 2.1875,1.875 0.16398,0.5911 0.44654,1.15596 0.90625,1.6875 0.65551,0.70461 1.38996,1.30443 2.15625,1.84375 0.16398,0.5911 0.47779,1.15596 0.9375,1.6875 0.65551,0.70461 1.35871,1.30443 2.125,1.84375 0.16556,0.58096 0.45394,1.13326 0.90625,1.65625 0.64527,0.6936 1.37217,1.27932 2.125,1.8125 0.1655,0.58136 0.45364,1.13292 0.90625,1.65625 0.64527,0.6936 1.37217,1.31057 2.125,1.84375 0.16757,0.56689 0.46421,1.11389 0.90625,1.625 0.64527,0.6936 1.34092,1.27932 2.09375,1.8125 0.16757,0.56689 0.43296,1.11389 0.875,1.625 0.63502,0.68258 1.35435,1.25428 2.09375,1.78125 0.16757,0.56689 0.43296,1.11389 0.875,1.625 0.62477,0.67157 1.33648,1.2293 2.0625,1.75 0.16741,0.56805 0.46336,1.11291 0.90625,1.625 0.6291,0.67622 1.29958,1.28914 2.03125,1.8125 0.17002,0.54667 0.479,1.06849 0.90625,1.5625 0.61885,0.66521 1.28169,1.23295 2,1.75 0.16981,0.54863 0.47756,1.09808 0.90625,1.59375 0.60861,0.65419 1.26376,1.20807 1.96875,1.71875 0.16886,0.55678 0.4716,1.09119 0.90625,1.59375 0.61453,0.66056 1.28732,1.20438 2,1.71875 0.1702,0.54506 0.44893,1.06986 0.875,1.5625 0.61047,0.65619 1.26135,1.23816 1.96875,1.75 0.17205,0.5257 0.46313,1.05503 0.875,1.53125 0.60861,0.65419 1.26376,1.20807 1.96875,1.71875 0.17213,0.52461 0.43268,1.0247 0.84375,1.5 0.60269,0.64783 1.24019,1.24304 1.9375,1.75 0.17279,0.51603 0.47023,1.00074 0.875,1.46875 0.59244,0.63682 1.22219,1.21827 1.90625,1.71875 0.1723,0.52259 0.46541,1.02641 0.875,1.5 0.59244,0.63682 1.22219,1.18702 1.90625,1.6875 0.17289,0.51464 0.44001,1.00193 0.84375,1.46875 0.5822,0.6258 1.2354,1.19356 1.90625,1.6875 0.17314,0.51087 0.44278,1.00513 0.84375,1.46875 0.59028,0.63449 1.22498,1.18839 1.90625,1.6875 0.17392,0.497 0.42175,0.98569 0.8125,1.4375 0.58019,0.62364 1.20674,1.1636 1.875,1.65625 0.17362,0.50283 0.41745,0.98072 0.8125,1.4375 0.57195,0.61479 1.21732,1.16892 1.875,1.65625 0.17416,0.49158 0.42574,0.99031 0.8125,1.4375 0.56948,0.61214 1.18923,1.13928 1.84375,1.625 0.17409,0.4932 0.42455,0.95769 0.8125,1.40625 0.55579,0.59741 1.17551,1.14824 1.8125,1.625 0.17409,0.4932 0.4558,0.95769 0.84375,1.40625 0.5617,0.60378 1.16794,1.14435 1.8125,1.625 0.17453,0.48004 0.40302,0.96892 0.78125,1.40625 0.55146,0.59276 1.18103,1.0886 1.8125,1.5625 0.1744,0.48467 0.43085,0.96497 0.8125,1.40625 0.5442,0.58496 1.12777,1.09343 1.75,1.5625 0.17449,0.48165 0.43308,0.96754 0.8125,1.40625 0.54554,0.5864 1.12607,1.09253 1.75,1.5625 0.17472,0.47044 0.44137,0.94588 0.8125,1.375 0.53529,0.57539 1.10783,1.06814 1.71875,1.53125 0.17472,0.47044 0.44137,0.94588 0.8125,1.375 0.53529,0.57539 1.10783,1.06814 1.71875,1.53125 0.17472,0.47044 0.41012,0.91463 0.78125,1.34375 0.52401,0.56326 1.12211,1.04452 1.71875,1.5 0.17474,0.46861 0.41148,0.94745 0.78125,1.375 0.53374,0.57372 1.1098,1.06918 1.71875,1.53125 0.17466,0.44777 0.39569,0.90283 0.75,1.3125 0.5148,0.55336 1.10247,1.01956 1.6875,1.46875 0.17477,0.45733 0.41984,0.92587 0.78125,1.34375 0.51913,0.55801 1.06577,1.04785 1.65625,1.5 0.17451,0.44089 0.43205,0.87749 0.78125,1.28125 0.50821,0.54628 1.04826,1.02409 1.625,1.46875 0.17466,0.44777 0.42694,0.90283 0.78125,1.3125 0.49864,0.53598 1.02903,0.99948 1.59375,1.4375 0.17468,0.44883 0.42614,0.87066 0.78125,1.28125 0.50797,0.54601 1.04857,1.05551 1.625,1.5 0.17396,0.42603 0.41188,0.8278 0.75,1.21875 0.49864,0.53598 1.02903,1.03073 1.59375,1.46875 0.17405,0.4281 0.41033,0.85725 0.75,1.25 0.49215,0.52901 1.00589,1.00402 1.5625,1.4375 0.17408,0.42869 0.44114,0.8255 0.78125,1.21875 0.48839,0.52497 1.01059,1.00666 1.5625,1.4375 0.17392,0.42518 0.38126,0.82852 0.71875,1.21875 0.47222,0.50759 0.99945,0.95562 1.53125,1.375 0.17443,0.43822 0.43404,0.84854 0.78125,1.25 0.47222,0.50759 0.9682,0.98687 1.5,1.40625 0.17343,0.41621 0.41921,0.80503 0.75,1.1875 0.47222,0.50759 0.9682,0.98687 1.5,1.40625 0.17285,0.4076 0.42565,0.81247 0.75,1.1875 0.47222,0.50759 0.9682,0.95562 1.5,1.375 0.17252,0.40331 0.39761,0.81618 0.71875,1.1875 0.47222,0.50759 0.9682,0.95562 1.5,1.375 0.17166,0.39323 0.40518,0.79368 0.71875,1.15625 0.46204,0.49664 0.94958,0.93169 1.46875,1.34375 0.17169,0.39362 0.40488,0.79334 0.71875,1.15625 0.44631,0.47974 0.90647,0.91187 1.40625,1.3125 0.17275,0.40618 0.42671,0.78245 0.75,1.15625 0.4565,0.49069 0.92517,0.96694 1.4375,1.375 0.16972,0.37503 0.38762,0.74701 0.6875,1.09375 0.42593,0.45783 0.90018,0.86443 1.375,1.25 0.17285,0.4076 0.42565,0.81247 0.75,1.1875 0.44088,0.4739 0.91313,0.8846 1.40625,1.28125 0.17166,0.39323 0.37393,0.76243 0.6875,1.125 0.41574,0.44688 0.88134,0.84082 1.34375,1.21875 0.17275,0.40618 0.42671,0.8137 0.75,1.1875 0.42593,0.45783 0.86893,0.86443 1.34375,1.25 0.17071,0.38378 0.41228,0.73939 0.71875,1.09375 0.41687,0.44809 0.84872,0.87123 1.3125,1.25 0.17071,0.38378 0.41228,0.73939 0.71875,1.09375 0.41574,0.44688 0.85009,0.84082 1.3125,1.21875 0.17071,0.38378 0.41228,0.73939 0.71875,1.09375 0.41218,0.44306 0.85441,0.84351 1.3125,1.21875 0.16912,0.37022 0.35999,0.7512 0.65625,1.09375 0.40002,0.42998 0.8379,0.82151 1.28125,1.1875 0.16973,0.37514 0.41878,0.71566 0.71875,1.0625 0.40686,0.43734 0.82962,0.84754 1.28125,1.21875 0.16792,0.36121 0.3668,0.69658 0.65625,1.03125 0.37499,0.40307 0.8055,0.74712 1.21875,1.09375 0.17168,0.39354 0.40495,0.76216 0.71875,1.125 0.4005,0.4305 0.83732,0.82114 1.28125,1.1875 0.16589,0.34772 0.34577,0.67714 0.625,1 0.37499,0.40307 0.8055,0.77837 1.21875,1.125 0.16914,0.37035 0.39115,0.71984 0.6875,1.0625 0.38518,0.41403 0.79328,0.77043 1.21875,1.125 0.166,0.34838 0.37652,0.70782 0.65625,1.03125 0.37499,0.40307 0.77425,0.74712 1.1875,1.09375 0.16624,0.34989 0.37537,0.70649 0.65625,1.03125 0.35926,0.38617 0.76177,0.72826 1.15625,1.0625 0.16799,0.36174 0.39765,0.69611 0.6875,1.03125 0.37684,0.40507 0.77203,0.77692 1.1875,1.125 0.16214,0.32651 0.3619,0.66454 0.625,0.96875 0.35926,0.38617 0.73052,0.72826 1.125,1.0625 0.16457,0.33981 0.38303,0.68409 0.65625,1 0.36945,0.39712 0.74962,0.75146 1.15625,1.09375 0.16044,0.31799 0.3684,0.64081 0.625,0.9375 0.3648,0.39212 0.75517,0.72387 1.15625,1.0625 0.15944,0.31326 0.34077,0.64499 0.59375,0.9375 0.34907,0.37522 0.71136,0.70513 1.09375,1.03125 0.16214,0.32651 0.3619,0.63329 0.625,0.9375 0.35926,0.38617 0.73052,0.75951 1.125,1.09375 0.15641,0.29978 0.3511,0.59443 0.59375,0.875 0.33888,0.36427 0.69216,0.68208 1.0625,1 0.16071,0.31929 0.36741,0.63966 0.625,0.9375 0.3287,0.35331 0.6729,0.6591 1.03125,0.96875 0.16214,0.32651 0.3619,0.63329 0.625,0.9375 0.33682,0.36204 0.6946,0.68375 1.0625,1 0.15718,0.30307 0.31732,0.62276 0.5625,0.90625 0.32316,0.34736 0.6794,0.66363 1.03125,0.96875 0.15819,0.30751 0.34517,0.58758 0.59375,0.875 0.32316,0.34736 0.6794,0.69488 1.03125,1 0.15558,0.29629 0.35378,0.56628 0.59375,0.84375 0.32316,0.34736 0.64815,0.69488 1,1 0.15285,0.28536 0.33094,0.54476 0.5625,0.8125 0.31851,0.34236 0.68485,0.66745 1.03125,0.96875 0.15169,0.28094 0.3031,0.57995 0.53125,0.84375 0.30832,0.33141 0.66549,0.61337 1,0.90625 0.15443,0.29159 0.32614,0.57046 0.5625,0.84375 0.31297,0.33641 0.62882,0.67202 0.96875,0.96875 0.14927,0.27213 0.30991,0.52533 0.53125,0.78125 0.30278,0.32546 0.64069,0.64923 0.96875,0.9375 0.14927,0.27213 0.30991,0.52533 0.53125,0.78125 0.30278,0.32546 0.64069,0.64923 0.96875,0.9375 0.14623,0.26166 0.31802,0.5347 0.53125,0.78125 0.29259,0.31451 0.59,0.59528 0.90625,0.875 0.14927,0.27213 0.30991,0.52533 0.53125,0.78125 0.2824,0.30356 0.60177,0.6039 0.90625,0.875 0.14927,0.27213 0.30991,0.52533 0.53125,0.78125 0.28706,0.30856 0.59641,0.6312 0.90625,0.90625 0.14367,0.25328 0.32453,0.47973 0.53125,0.71875 0.2824,0.30356 0.57052,0.6039 0.875,0.875 0.14269,0.25019 0.32694,0.51376 0.53125,0.75 0.2824,0.30356 0.57052,0.57265 0.875,0.84375 0.1422,0.24864 0.29689,0.4839 0.5,0.71875 0.27222,0.2926 0.55098,0.58134 0.84375,0.84375 0.1422,0.24864 0.29689,0.4839 0.5,0.71875 0.27222,0.2926 0.55098,0.55009 0.84375,0.8125 0.1422,0.24864 0.29689,0.4839 0.5,0.71875 0.26613,0.28606 0.5267,0.55532 0.8125,0.8125 0.13946,0.2403 0.3034,0.46018 0.5,0.6875 0.25649,0.2757 0.50646,0.56367 0.78125,0.8125 0.13867,0.23797 0.30521,0.46228 0.5,0.6875 0.26668,0.28665 0.52608,0.55485 0.8125,0.8125 0.13193,0.21909 0.28877,0.44815 0.46875,0.65625 0.25649,0.2757 0.50646,0.53242 0.78125,0.78125 0.13193,0.21909 0.28877,0.44815 0.46875,0.65625 0.2463,0.26475 0.4868,0.51007 0.75,0.75 0.13435,0.22567 0.2836,0.44218 0.46875,0.65625 0.23611,0.2538 0.49833,0.48779 0.75,0.71875 0.13496,0.22737 0.28227,0.44063 0.46875,0.65625 0.2463,0.26475 0.4868,0.54132 0.75,0.78125 0.12697,0.20625 0.26764,0.39735 0.4375,0.59375 0.23611,0.2538 0.46708,0.48779 0.71875,0.71875 0.13053,0.21539 0.26043,0.42026 0.4375,0.625 0.21603,0.23221 0.4584,0.44322 0.6875,0.65625 0.13496,0.22737 0.28227,0.44063 0.46875,0.65625 0.21644,0.23265 0.45794,0.4741 0.6875,0.6875 0.12717,0.20676 0.26724,0.42813 0.4375,0.625 0.21603,0.23221 0.4584,0.44322 0.6875,0.65625 0.12697,0.20625 0.26764,0.39735 0.4375,0.59375 0.20598,0.22141 0.40711,0.4523 0.625,0.65625 0.12717,0.20676 0.26724,0.39688 0.4375,0.59375 0.23611,0.2538 0.49833,0.51904 0.75,0.75 0.10709,0.16115 0.20979,0.3451 0.34375,0.5 0.19505,0.20966 0.388,0.39977 0.59375,0.59375 0.12663,0.2054 0.26831,0.39812 0.4375,0.59375 0.23611,0.2538 0.46708,0.48779 0.71875,0.71875 0.10114,0.14917 0.18817,0.32499 0.3125,0.46875 0.19505,0.20966 0.388,0.39977 0.59375,0.59375 0.11821,0.18527 0.25301,0.35407 0.40625,0.53125 0.1859,0.19982 0.36687,0.40819 0.5625,0.59375 0.11821,0.18527 0.25301,0.38532 0.40625,0.5625 0.16581,0.17823 0.35766,0.33315 0.53125,0.5 0.12663,0.2054 0.26831,0.39812 0.4375,0.59375 0.16068,0.17272 0.33201,0.33797 0.5,0.5 0.12369,0.19814 0.27405,0.40476 0.4375,0.59375 0.17586,0.18903 0.37792,0.355 0.5625,0.53125 0.11255,0.17268 0.2318,0.33443 0.375,0.5 0.23611,0.2538 0.46708,0.51904 0.71875,0.75 0.0682,0.0915 0.11021,0.19189 0.1875,0.28125 0.17586,0.18903 0.34667,0.38625 0.53125,0.5625 0.10367,0.15419 0.21538,0.32032 0.34375,0.46875 0.14372,0.15448 0.28792,0.29159 0.4375,0.4375 0.11821,0.18527 0.25301,0.35407 0.40625,0.53125 0.13773,0.14805 0.29438,0.29733 0.4375,0.4375 0.11821,0.18527 0.25301,0.35407 0.40625,0.53125 0.13345,0.14345 0.26773,0.27021 0.40625,0.40625 0.11821,0.18527 0.25301,0.35407 0.40625,0.53125 0.1406,0.15113 0.29129,0.29458 0.4375,0.4375 0.10922,0.16557 0.23749,0.30975 0.375,0.46875 0.11047,0.11874 0.22979,0.2301 0.34375,0.34375 0.12178,0.19356 0.24643,0.3777 0.40625,0.5625 0.15577,0.16744 0.33736,0.31137 0.5,0.46875 0.0912,0.13036 0.17215,0.2801 0.28125,0.40625 0.13345,0.14345 0.26773,0.27021 0.40625,0.40625 0.0976,0.14225 0.19377,0.30021 0.3125,0.4375 0.13568,0.14585 0.29658,0.26806 0.4375,0.40625 0.0912,0.13036 0.17215,0.2801 0.28125,0.40625 0.12319,0.13242 0.24749,0.2489 0.375,0.375 0.0967,0.14064 0.19506,0.27046 0.3125,0.40625 0.11806,0.1269 0.25297,0.25391 0.375,0.375 0.0967,0.14064 0.19506,0.27046 0.3125,0.40625 0.11292,0.12138 0.22719,0.22769 0.34375,0.34375 0.0967,0.14064 0.19506,0.27046 0.3125,0.40625 0.10266,0.11035 0.20683,0.20655 0.3125,0.3125 0.0967,0.14064 0.19506,0.27046 0.3125,0.40625 0.0924,0.0993 0.18641,0.18551 0.28125,0.28125 0.0976,0.14225 0.19377,0.30021 0.3125,0.4375 0.11047,0.11874 0.22979,0.2301 0.34375,0.34375 0.079,0.109 0.15833,0.2065 0.25,0.3125 0.0787,0.0846 0.16952,0.168 0.25,0.25 0.0967,0.14064 0.19506,0.27046 0.3125,0.40625 0.10043,0.10795 0.20919,0.20876 0.3125,0.3125 0.079,0.109 0.15833,0.2065 0.25,0.3125 0.10556,0.11346 0.20376,0.23494 0.3125,0.34375 0.0693,0.0932 0.14011,0.19032 0.21875,0.28125 0.0975,0.10483 0.21225,0.1804 0.3125,0.28125 0.0682,0.0915 0.11021,0.19189 0.1875,0.28125 0.1156,0.12426 0.22434,0.25631 0.34375,0.375 0.0511,0.0657 0.10038,0.1229 0.15625,0.1875 0.0502,0.054 0.10531,0.10334 0.15625,0.15625 0.09,0.12826 0.17385,0.25082 0.28125,0.375 0.0984,0.10575 0.21135,0.2108 0.3125,0.3125 0.054,0.0699 0.0969,0.15011 0.15625,0.21875 0.0719,0.0772 0.14541,0.14367 0.21875,0.21875 0.0638,0.0846 0.1159,0.16721 0.1875,0.25 0.059,0.0634 0.12747,0.12552 0.1875,0.1875 0.0716,0.0968 0.13711,0.18686 0.21875,0.28125 0.0502,0.054 0.10531,0.10334 0.15625,0.15625 0.0716,0.0968 0.13711,0.18686 0.21875,0.28125 0.0603,0.0648 0.1262,0.12426 0.1875,0.1875 0.0618,0.0815 0.1185,0.17022 0.1875,0.25 0.0821,0.0883 0.16594,0.16455 0.25,0.25 0.0338,0.0419 0.058,0.0836 0.0937,0.125 0.0424,0.042 0.0822,0.0837 0.125,0.125 0.0618,0.0815 0.1185,0.17022 0.1875,0.25 0.0654,0.0703 0.15213,0.11901 0.21875,0.1875 0.0376,0.047 0.0536,0.10989 0.0937,0.15625 0.0616,0.0662 0.12481,0.12289 0.1875,0.1875 0.0338,0.0419 0.058,0.0836 0.0937,0.125 0.0211,0.0212 0.0413,0.0415 0.0625,0.0625 0.0618,0.0815 0.1185,0.17022 0.1875,0.25 0.12319,0.13242 0.24749,0.2489 0.375,0.375 0.0338,0.0419 0.058,0.0836 0.0937,0.125 0.01,0.0108 0.0212,0.0205 0.0312,0.0312 0.054,0.0699 0.0969,0.15011 0.15625,0.21875 0.0513,0.0551 0.10421,0.10223 0.15625,0.15625 0.01,0.0116 0.0212,0.0196 0.0312,0.0312 0.0104,0.0108 0.0208,0.0205 0.0312,0.0312 0.0402,0.0504 0.082,0.1065 0.125,0.15625 0.0103,0.011 0.021,0.0203 0.0312,0.0312 0.0327,0.0403 0.0593,0.0851 0.0937,0.125 0.0327,0.0403 0.0593,0.0851 0.0937,0.125 0.0194,0.0209 0.043,0.0418 0.0625,0.0625 0.004,0.005 0.0273,-0.005 0.0312,0 0.006,0.007 -0.006,0.0247 0,0.0312 0.004,0.005 0.0272,-0.005 0.0312,0 0.0233,0.0291 0.0382,0.0649 0.0625,0.0937 0.01,0.0117 0.0214,0.0196 0.0312,0.0312 0.006,0.007 -0.006,0.0242 0,0.0312 0.19594,0.21062 0.41826,0.39895 0.625,0.59375 0.0218,0.0203 0.0406,0.0424 0.0625,0.0625 0.0213,0.0198 0.0411,0.0429 0.0625,0.0625 0.0107,0.01 0.0205,0.0214 0.0312,0.0312 0.1999,0.17746 0.41643,0.33552 0.625,0.5 0.0228,0.0182 0.0395,0.0444 0.0625,0.0625 0.0228,0.0182 0.0395,0.0444 0.0625,0.0625 0.0114,0.009 0.0198,0.0222 0.0312,0.0312 0.11254,0.0882 0.22886,0.16541 0.34375,0.25 0.12485,0.0909 0.24753,0.19438 0.375,0.28125 0.30077,0.20879 0.59175,0.40646 0.90625,0.59375 0.0125,0.007 0.0187,0.0238 0.0312,0.0312 0.56861,0.33659 1.17596,0.6303 1.78125,0.90625 0.0128,0.006 0.0184,0.0254 0.0312,0.0312 0.60718,0.27397 1.24158,0.49323 1.875,0.71875 2.59583,0.92835 5.36115,1.50827 7.96875,2.125 8.53393,1.46892 17.09826,2.73994 25.6875,3.84375 0.15173,0.0907 0.28376,0.19458 0.4375,0.28125 -0.24929,-0.0413 -0.5008,-0.083 -0.75,-0.125 0.45714,0.31132 0.92859,0.60501 1.40625,0.875 -0.25036,-0.0415 -0.49974,-0.0828 -0.75,-0.125 0.44698,0.3044 0.90837,0.57892 1.375,0.84375 -0.24929,-0.0413 -0.5008,-0.083 -0.75,-0.125 0.42351,0.28842 0.87128,0.55973 1.3125,0.8125 -0.22842,-0.0379 -0.45916,-0.0553 -0.6875,-0.0937 0.40431,0.27534 0.8295,0.50724 1.25,0.75 -0.21825,-0.0363 -0.43807,-0.057 -0.65625,-0.0937 0.38042,0.25908 0.76144,0.51987 1.15625,0.75 -0.19792,-0.0329 -0.39589,-0.0604 -0.59375,-0.0937 0.3659,0.24919 0.74575,0.4964 1.125,0.71875 -0.19708,-0.0328 -0.39673,-0.0606 -0.59375,-0.0937 0.3659,0.24919 0.74575,0.4964 1.125,0.71875 -0.19708,-0.0328 -0.39673,-0.0606 -0.59375,-0.0937 0.33923,0.23103 0.6805,0.44838 1.03125,0.65625 -0.16742,-0.0279 -0.33263,-0.0656 -0.5,-0.0937 0.32129,0.21881 0.6371,0.45827 0.96875,0.65625 -0.16742,-0.0279 -0.33263,-0.0656 -0.5,-0.0937 0.29656,0.20197 0.60082,0.40959 0.90625,0.59375 -0.14549,-0.0243 -0.29205,-0.038 -0.4375,-0.0625 0.29656,0.20197 0.60082,0.40959 0.90625,0.59375 -0.15499,-0.0258 -0.31379,-0.0364 -0.46875,-0.0625 0.27736,0.18889 0.55861,0.35798 0.84375,0.53125 -0.13532,-0.0226 -0.27096,-0.0397 -0.40625,-0.0625 0.2584,0.17597 0.51608,0.36887 0.78125,0.53125 -0.12515,-0.0209 -0.24987,-0.0414 -0.375,-0.0625 0.24654,0.1679 0.49728,0.3445 0.75,0.5 -0.12515,-0.0209 -0.24987,-0.0414 -0.375,-0.0625 0.24654,0.1679 0.49728,0.3445 0.75,0.5 -0.12523,-0.0209 -0.24979,-0.0414 -0.375,-0.0625 0.22668,0.15438 0.45558,0.29363 0.6875,0.4375 -0.11499,-0.0192 -0.22878,-0.0431 -0.34375,-0.0625 0.20861,0.14207 0.41194,0.30435 0.625,0.4375 -0.10482,-0.0175 -0.20769,-0.0448 -0.3125,-0.0625 0.20734,0.1412 0.41327,0.27386 0.625,0.40625 -0.1145,-0.0191 -0.22927,-0.0432 -0.34375,-0.0625 0.18336,0.12488 0.37569,0.22579 0.5625,0.34375 -0.0927,-0.0155 -0.18859,-0.0156 -0.28125,-0.0312 0.17305,0.11785 0.35512,0.23207 0.53125,0.34375 -0.0829,-0.0139 -0.16711,-0.0173 -0.25,-0.0312 0.15203,0.10354 0.31434,0.18249 0.46875,0.28125 -0.0825,-0.0138 -0.16746,-0.0173 -0.25,-0.0312 0.14224,0.0969 0.29317,0.18857 0.4375,0.28125 -0.0724,-0.0121 -0.14633,-0.019 -0.21875,-0.0312 0.14224,0.0969 0.29317,0.18857 0.4375,0.28125 -0.0826,-0.0138 -0.1674,-0.0173 -0.25,-0.0312 0.11334,0.0772 0.22908,0.14423 0.34375,0.21875 -0.0524,-0.009 -0.10385,-0.0224 -0.15625,-0.0312 0.10431,0.071 0.20706,0.14998 0.3125,0.21875 -0.0524,-0.009 -0.10385,-0.0224 -0.15625,-0.0312 0.094,0.064 0.18633,0.12533 0.28125,0.1875 -0.0522,-0.009 -0.10407,-0.0225 -0.15625,-0.0312 0.07,0.0477 0.14822,0.0783 0.21875,0.125 -0.0305,-0.005 -0.0633,0.005 -0.0937,0 0.0507,0.0345 0.1053,0.0598 0.15625,0.0937 -0.0203,-0.003 -0.0422,0.003 -0.0625,0 0.0545,0.0371 0.10141,0.0885 0.15625,0.125 -0.003,-0.002 -0.0283,0.0333 -0.0312,0.0312 0.0119,0.008 0.0193,0.0232 0.0312,0.0312 0.007,0.005 0.0239,-0.005 0.0312,0 0.25822,0.17532 0.5163,0.33821 0.78125,0.5 0.0123,0.008 0.0189,0.0238 0.0312,0.0312 0.27338,0.16533 0.56389,0.31658 0.84375,0.46875 0.0123,0.007 0.0189,0.0245 0.0312,0.0312 0.57269,0.30996 1.15418,0.58162 1.75,0.84375 0.0128,0.006 0.0184,0.0256 0.0312,0.0312 0.59662,0.2614 1.19803,0.49567 1.8125,0.71875 3.1477,1.14698 6.48695,1.86024 9.6875,2.75 21.43555,4.53335 43.43667,5.40253 65.25,6.0625 32.00502,0.56743 64.02402,-0.68231 95.5625,-5.6875 14.92076,-2.63991 29.93867,-5.82435 43.34375,-12.8125 6.99043,-3.68221 14.05915,-9.34998 15.28125,-17.5625 -0.0206,0.0219 -0.0419,0.0406 -0.0625,0.0625 0.007,-0.0423 0.0249,-0.0826 0.0312,-0.125 -0.0203,0.0217 -0.0421,0.0409 -0.0625,0.0625 0.007,-0.0421 0.025,-0.0827 0.0312,-0.125 -0.0402,0.0429 -0.0846,0.0824 -0.125,0.125 0.0102,-0.0636 0.0217,-0.12358 0.0312,-0.1875 -0.0508,0.0542 -0.10508,0.10242 -0.15625,0.15625 0.0157,-0.0942 0.0484,-0.18633 0.0625,-0.28125 -0.0508,0.0542 -0.10508,0.10242 -0.15625,0.15625 0.0156,-0.0939 0.0484,-0.18664 0.0625,-0.28125 -0.0704,0.0751 -0.14775,0.14446 -0.21875,0.21875 0.0214,-0.12414 0.0439,-0.24968 0.0625,-0.375 -0.0662,0.0706 -0.1208,0.14888 -0.1875,0.21875 0.0217,-0.12603 0.0436,-0.24775 0.0625,-0.375 -0.0915,0.0976 -0.18869,0.18496 -0.28125,0.28125 0.0303,-0.1682 0.0684,-0.32962 0.0937,-0.5 -0.0905,0.0965 -0.18974,0.18603 -0.28125,0.28125 0.0303,-0.1682 0.0684,-0.32962 0.0937,-0.5 -0.11061,0.118 -0.23163,0.22772 -0.34375,0.34375 0.0373,-0.20015 0.0947,-0.39049 0.125,-0.59375 -0.12067,0.12872 -0.25254,0.24861 -0.375,0.375 0.0421,-0.22088 0.0916,-0.43157 0.125,-0.65625 -0.12067,0.12872 -0.25254,0.24861 -0.375,0.375 0.0419,-0.21999 0.0917,-0.43249 0.125,-0.65625 -0.14238,0.15188 -0.29263,0.28887 -0.4375,0.4375 0.0507,-0.25652 0.11731,-0.51958 0.15625,-0.78125 -0.15084,0.1609 -0.31512,0.31149 -0.46875,0.46875 0.0533,-0.26718 0.11566,-0.53973 0.15625,-0.8125 -0.16272,0.17358 -0.33403,0.33066 -0.5,0.5 0.0574,-0.28322 0.14442,-0.55423 0.1875,-0.84375 -0.16272,0.17358 -0.33403,0.33066 -0.5,0.5 0.0623,-0.30207 0.11023,-0.59699 0.15625,-0.90625 -0.181,0.19309 -0.37749,0.37465 -0.5625,0.5625 0.0681,-0.32359 0.13812,-0.63689 0.1875,-0.96875 -0.1882,0.20077 -0.36996,0.39865 -0.5625,0.59375 0.0736,-0.34319 0.13504,-0.67873 0.1875,-1.03125 -0.1955,0.20855 -0.39358,0.3913 -0.59375,0.59375 0.0764,-0.35296 0.1335,-0.69965 0.1875,-1.0625 -0.21357,0.22783 -0.43711,0.4357 -0.65625,0.65625 0.0834,-0.37717 0.19219,-0.76775 0.25,-1.15625 -0.22122,0.23599 -0.4603,0.45931 -0.6875,0.6875 0.0884,-0.39373 0.15832,-0.78139 0.21875,-1.1875 -0.22888,0.24416 -0.45223,0.48294 -0.6875,0.71875 0.0944,-0.41334 0.18645,-0.82298 0.25,-1.25 -0.24134,0.25745 -0.50157,0.50183 -0.75,0.75 0.10099,-0.43422 0.18313,-0.86314 0.25,-1.3125 -0.25139,0.26817 -0.52217,0.52313 -0.78125,0.78125 0.10447,-0.44502 0.21266,-0.91405 0.28125,-1.375 -0.26145,0.2789 -0.54274,0.54447 -0.8125,0.8125 0.11041,-0.4631 0.20976,-0.92585 0.28125,-1.40625 -0.2715,0.28963 -0.56329,0.56584 -0.84375,0.84375 0.11744,-0.484 0.20641,-0.9658 0.28125,-1.46875 -0.27459,0.29292 -0.56001,0.56281 -0.84375,0.84375 0.12072,-0.49354 0.20487,-0.98672 0.28125,-1.5 -0.30007,0.3201 -0.59527,0.63168 -0.90625,0.9375 0.13475,-0.53321 0.2297,-1.06861 0.3125,-1.625 -0.31024,0.33095 -0.61561,0.65305 -0.9375,0.96875 0.13858,-0.54372 0.25925,-1.08838 0.34375,-1.65625 -0.32178,0.34326 -0.6657,0.67314 -1,1 0.14643,-0.56484 0.28706,-1.12776 0.375,-1.71875 -0.33561,0.35801 -0.68204,0.69106 -1.03125,1.03125 0.15374,-0.58408 0.28391,-1.16913 0.375,-1.78125 -0.34075,0.3635 -0.70773,0.68612 -1.0625,1.03125 0.15741,-0.59356 0.28236,-1.18994 0.375,-1.8125 -0.37126,0.39604 -0.73714,0.78196 -1.125,1.15625 0.17435,-0.6361 0.33785,-1.29912 0.4375,-1.96875 -0.362,0.38617 -0.7472,0.75953 -1.125,1.125 0.1729,-0.63253 0.30719,-1.27183 0.40625,-1.9375 -0.3916,0.41774 -0.77747,0.82518 -1.1875,1.21875 0.18939,-0.67225 0.36311,-1.35258 0.46875,-2.0625 -0.40223,0.42908 -0.82834,0.8464 -1.25,1.25 0.19551,-0.68659 0.36072,-1.39903 0.46875,-2.125 -0.41194,0.43944 -0.8177,0.86852 -1.25,1.28125 0.20216,-0.7019 0.38941,-1.41309 0.5,-2.15625 -0.42234,0.45053 -0.86878,0.89002 -1.3125,1.3125 0.21269,-0.72566 0.38543,-1.44883 0.5,-2.21875 -0.44245,0.47199 -0.87788,0.90251 -1.34375,1.34375 0.22155,-0.74522 0.41339,-1.4892 0.53125,-2.28125 -0.44245,0.47199 -0.90913,0.90251 -1.375,1.34375 0.22396,-0.75046 0.4125,-1.51451 0.53125,-2.3125 -0.46272,0.49362 -0.91795,0.97746 -1.40625,1.4375 0.23972,-0.78412 0.43805,-1.6012 0.5625,-2.4375 -0.47286,0.50443 -0.9692,0.99936 -1.46875,1.46875 0.24593,-0.7971 0.46709,-1.61762 0.59375,-2.46875 -0.483,0.51524 -0.98919,1.02129 -1.5,1.5 0.25535,-0.81644 0.46379,-1.65794 0.59375,-2.53125 -0.49314,0.52606 -1.00914,1.04325 -1.53125,1.53125 0.26437,-0.83463 0.46068,-1.69951 0.59375,-2.59375 -0.50864,0.54259 -1.02309,1.06035 -1.5625,1.5625 0.27348,-0.85271 0.48882,-1.74113 0.625,-2.65625 -0.52355,0.5585 -1.03764,1.1093 -1.59375,1.625 0.28334,-0.87189 0.48551,-1.7814 0.625,-2.71875 -0.52891,0.56422 -1.06287,1.10445 -1.625,1.625 0.28898,-0.88272 0.51489,-1.80006 0.65625,-2.75 -0.52891,0.56422 -1.09412,1.10445 -1.65625,1.625 0.29356,-0.89143 0.51338,-1.82117 0.65625,-2.78125 -0.54919,0.58585 -1.13382,1.14867 -1.71875,1.6875 0.30853,-0.91944 0.53976,-1.88218 0.6875,-2.875 -0.56613,0.60393 -1.17719,1.16473 -1.78125,1.71875 0.31488,-0.9311 0.60022,-1.89975 0.75,-2.90625 -0.57482,0.6132 -1.1986,1.18822 -1.8125,1.75 0.32429,-0.94815 0.56599,-1.94218 0.71875,-2.96875 -0.58496,0.62401 -1.18711,1.21045 -1.8125,1.78125 0.33572,-0.96853 0.59366,-1.98061 0.75,-3.03125 -0.60524,0.64564 -1.25782,1.25499 -1.90625,1.84375 0.35185,-0.99664 0.61994,-2.04098 0.78125,-3.125 -0.62073,0.66217 -1.27139,1.27259 -1.9375,1.875 0.3593,-1.00941 0.64892,-2.05702 0.8125,-3.15625 -0.64579,0.6889 -1.30521,1.34443 -2,1.96875 0.38536,-1.05295 0.6724,-2.1298 0.84375,-3.28125 -0.64579,0.6889 -1.30521,1.31318 -2,1.9375 0.38486,-1.05214 0.67255,-2.13079 0.84375,-3.28125 -0.65854,0.7025 -1.35306,1.33334 -2.0625,1.96875 0.39323,-1.06579 0.70135,-2.17683 0.875,-3.34375 -0.67908,0.72441 -1.39191,1.40933 -2.125,2.0625 0.4149,-1.10042 0.72636,-2.25985 0.90625,-3.46875 -0.6917,0.73787 -1.40857,1.42972 -2.15625,2.09375 0.42137,-1.11057 0.75577,-2.27874 0.9375,-3.5 -0.69648,0.74297 -1.43429,1.45687 -2.1875,2.125 0.43175,-1.12667 0.75284,-2.32158 0.9375,-3.5625 -0.71197,0.7595 -1.47882,1.47487 -2.25,2.15625 0.44532,-1.1474 0.78031,-2.35865 0.96875,-3.625 -0.73041,0.77917 -1.48863,1.52169 -2.28125,2.21875 0.45985,-1.1692 0.80756,-2.3943 1,-3.6875 -0.74239,0.79195 -1.53717,1.54281 -2.34375,2.25 0.47539,-1.19211 0.83459,-2.42845 1.03125,-3.75 -0.75789,0.80848 -1.58156,1.52976 -2.40625,2.25 0.48301,-1.20319 0.86379,-2.44593 1.0625,-3.78125 -0.76802,0.81929 -1.60094,1.5525 -2.4375,2.28125 0.49338,-1.21811 0.89228,-2.48984 1.09375,-3.84375 -0.77816,0.83011 -1.62029,1.60653 -2.46875,2.34375 0.50667,-1.23697 0.85752,-2.56001 1.0625,-3.9375 -0.7883,0.84092 -1.60838,1.62933 -2.46875,2.375 -0.01,-0.0108 -0.0215,-0.0205 -0.0312,-0.0312 0.51349,-1.24654 0.91823,-2.548 1.125,-3.9375 -0.78829,0.84092 -1.63963,1.62933 -2.5,2.375 -0.0104,-0.0105 -0.0208,-0.0208 -0.0312,-0.0312 0.51859,-1.25365 0.88565,-2.57031 1.09375,-3.96875 -0.79368,0.84666 -1.6333,1.62486 -2.5,2.375 -0.008,-0.0117 -0.0231,-0.0195 -0.0312,-0.0312 -0.0105,-0.01 -0.0207,-0.0216 -0.0312,-0.0312 0.52085,-1.25678 0.91631,-2.56637 1.125,-3.96875 -0.78295,0.83522 -1.58342,1.63378 -2.4375,2.375 -0.0313,-0.0412 -0.0614,-0.0844 -0.0937,-0.125 0.50729,-1.23784 0.8886,-2.55891 1.09375,-3.9375 -0.78829,0.84092 -1.63963,1.62933 -2.5,2.375 -0.0331,-0.0389 -0.0597,-0.0866 -0.0937,-0.125 0.51277,-1.24554 0.88717,-2.54925 1.09375,-3.9375 -0.78295,0.83522 -1.58342,1.63378 -2.4375,2.375 -0.0485,-0.0521 -0.10624,-0.10508 -0.15625,-0.15625 0.51278,-1.24555 0.88716,-2.54923 1.09375,-3.9375 -0.7883,0.84092 -1.60838,1.62933 -2.46875,2.375 -0.0461,-0.0454 -0.10905,-0.0803 -0.15625,-0.125 0.52492,-1.26242 0.91526,-2.59052 1.125,-4 -0.79844,0.85174 -1.65894,1.65216 -2.53125,2.40625 -0.0464,-0.0703 -0.0756,-0.14995 -0.125,-0.21875 0.49879,-1.20987 0.85187,-2.49924 1.0625,-3.84375 15.17638,-4.14379 30.15588,-10.19495 42.46875,-20.0625 7.36214,-6.13778 13.86344,-14.27484 15.28125,-24 0.49583,-3.15081 0.31132,-6.32338 -0.4375,-9.375 -0.005,-0.022 -0.0258,-0.0406 -0.0312,-0.0625 -0.12394,-0.4993 -0.2524,-1.00902 -0.40625,-1.5 -0.14902,-0.47816 -0.29226,-0.96867 -0.46875,-1.4375 -0.008,-0.0214 -0.0231,-0.0411 -0.0312,-0.0625 -0.18098,-0.47695 -0.38525,-0.94055 -0.59375,-1.40625 -0.006,-0.0128 -0.0255,-0.0185 -0.0312,-0.0312 -0.01,-0.0213 -0.0216,-0.0412 -0.0312,-0.0625 -0.19953,-0.44382 -0.40129,-0.88032 -0.625,-1.3125 -0.007,-0.0126 -0.0247,-0.0187 -0.0312,-0.0312 -0.0108,-0.0207 -0.0204,-0.0418 -0.0312,-0.0625 -0.0214,-0.041 -0.0408,-0.0841 -0.0625,-0.125 -0.21355,-0.40056 -0.4225,-0.79844 -0.65625,-1.1875 -0.26309,-0.43628 -0.52487,-0.86095 -0.8125,-1.28125 -0.008,-0.0119 -0.0231,-0.0194 -0.0312,-0.0312 -0.0163,-0.0238 -0.0462,-0.0388 -0.0625,-0.0625 -0.0211,-0.0305 -0.0412,-0.0633 -0.0625,-0.0937 -0.21947,-0.31453 -0.45466,-0.63293 -0.6875,-0.9375 -0.0138,-0.0181 -0.0174,-0.0445 -0.0312,-0.0625 -0.0225,-0.0296 -0.0399,-0.0643 -0.0625,-0.0937 -0.009,-0.0115 -0.0223,-0.0197 -0.0312,-0.0312 -0.0179,-0.0231 -0.0445,-0.0395 -0.0625,-0.0625 -0.0176,-0.0226 -0.0449,-0.0399 -0.0625,-0.0625 -0.005,-0.006 0.005,-0.0249 0,-0.0312 -0.0273,-0.0352 -0.0663,-0.0587 -0.0937,-0.0937 -0.24869,-0.3115 -0.4875,-0.63783 -0.75,-0.9375 -0.01,-0.0112 -0.0214,-0.02 -0.0312,-0.0312 -0.0194,-0.0221 -0.043,-0.0404 -0.0625,-0.0625 -0.0195,-0.0224 -0.043,-0.0402 -0.0625,-0.0625 -0.005,-0.006 0.005,-0.0255 0,-0.0312 -0.0297,-0.0336 -0.0639,-0.0603 -0.0937,-0.0937 -0.0388,-0.0443 -0.0859,-0.081 -0.125,-0.125 -0.0246,-0.0281 -0.0378,-0.0658 -0.0625,-0.0937 -0.0196,-0.0219 -0.0428,-0.0407 -0.0625,-0.0625 -0.0194,-0.0221 -0.043,-0.0404 -0.0625,-0.0625 -0.0348,-0.0383 -0.0587,-0.0869 -0.0937,-0.125 -0.0543,-0.062 -0.1014,-0.12607 -0.15625,-0.1875 -0.067,-0.0765 -0.15089,-0.14309 -0.21875,-0.21875 -0.0485,-0.0553 -0.10732,-0.10134 -0.15625,-0.15625 -0.009,-0.0105 -0.0221,-0.0207 -0.0312,-0.0312 -0.005,-0.006 0.005,-0.0257 0,-0.0312 -0.01,-0.011 -0.0214,-0.0203 -0.0312,-0.0312 -0.16632,-0.19515 -0.32806,-0.40366 -0.5,-0.59375 -0.0936,-0.10689 -0.1859,-0.20718 -0.28125,-0.3125 -0.0932,-0.11429 -0.18619,-0.23107 -0.28125,-0.34375 -0.0147,-0.0168 -0.0165,-0.0457 -0.0312,-0.0625 -0.19984,-0.23564 -0.41699,-0.4592 -0.625,-0.6875 -0.11974,-0.13669 -0.25246,-0.27213 -0.375,-0.40625 -0.01,-0.0111 -0.0215,-0.0202 -0.0312,-0.0312 -0.24848,-0.2961 -0.48873,-0.59039 -0.75,-0.875 -0.14581,-0.16645 -0.28754,-0.33737 -0.4375,-0.5 -0.11168,-0.12749 -0.22963,-0.24975 -0.34375,-0.375 -0.009,-0.0115 -0.0218,-0.0198 -0.0312,-0.0312 -0.025,-0.0274 -0.0374,-0.0665 -0.0625,-0.0937 -0.1555,-0.17752 -0.30853,-0.35809 -0.46875,-0.53125 -0.32422,-0.39198 -0.65364,-0.78416 -1,-1.15625 -0.0826,-0.0943 -0.16606,-0.18818 -0.25,-0.28125 -0.26719,-0.31485 -0.53079,-0.63588 -0.8125,-0.9375 -0.0388,-0.0443 -0.0859,-0.081 -0.125,-0.125 -0.23764,-0.28631 -0.46922,-0.568 -0.71875,-0.84375 -0.30412,-0.36049 -0.61446,-0.71929 -0.9375,-1.0625 -0.0291,-0.0332 -0.0645,-0.0607 -0.0937,-0.0937 -0.27261,-0.33215 -0.55526,-0.65063 -0.84375,-0.96875 -0.1149,-0.14819 -0.22574,-0.29183 -0.34375,-0.4375 -0.0739,-0.0844 -0.14373,-0.16656 -0.21875,-0.25 -0.20452,-0.24595 -0.41167,-0.48058 -0.625,-0.71875 -0.28416,-0.34441 -0.60498,-0.67082 -0.90625,-1 -0.3518,-0.41779 -0.68538,-0.85548 -1.0625,-1.25 -0.0969,-0.11066 -0.21373,-0.20353 -0.3125,-0.3125 -0.32489,-0.39185 -0.65296,-0.78435 -1,-1.15625 -0.0318,-0.041 -0.0617,-0.0842 -0.0937,-0.125 -0.0457,-0.0483 -0.079,-0.10828 -0.125,-0.15625 -0.0388,-0.0443 -0.0859,-0.081 -0.125,-0.125 -0.32124,-0.39753 -0.65624,-0.7785 -1,-1.15625 -0.28199,-0.34125 -0.5762,-0.67373 -0.875,-1 -0.30832,-0.37147 -0.60924,-0.7402 -0.9375,-1.09375 -0.2506,-0.29907 -0.51763,-0.58763 -0.78125,-0.875 -0.2984,-0.36076 -0.58907,-0.71854 -0.90625,-1.0625 -0.25114,-0.30305 -0.51681,-0.58377 -0.78125,-0.875 -0.31198,-0.38273 -0.6358,-0.76081 -0.96875,-1.125 -0.39208,-0.47935 -0.79389,-0.9564 -1.21875,-1.40625 -0.2802,-0.33213 -0.57871,-0.65124 -0.875,-0.96875 -0.37611,-0.45237 -0.75069,-0.91823 -1.15625,-1.34375 -0.0901,-0.10644 -0.18947,-0.20753 -0.28125,-0.3125 -0.005,-0.006 0.005,-0.0249 0,-0.0312 -0.0775,-0.0885 -0.17127,-0.16255 -0.25,-0.25 -0.4437,-0.55577 -0.91912,-1.1078 -1.40625,-1.625 -0.27373,-0.3284 -0.55437,-0.65438 -0.84375,-0.96875 -0.40251,-0.49605 -0.81254,-0.97273 -1.25,-1.4375 -0.28188,-0.34049 -0.57637,-0.67447 -0.875,-1 -0.39762,-0.49373 -0.81786,-0.97441 -1.25,-1.4375 -0.34329,-0.42015 -0.69396,-0.8211 -1.0625,-1.21875 -0.34486,-0.42675 -0.69173,-0.84611 -1.0625,-1.25 -0.40517,-0.50654 -0.83989,-0.99418 -1.28125,-1.46875 -0.36409,-0.44971 -0.76339,-0.8883 -1.15625,-1.3125 -0.46006,-0.57322 -0.93118,-1.12445 -1.4375,-1.65625 -0.37894,-0.46085 -0.77816,-0.91034 -1.1875,-1.34375 -0.26994,-0.33115 -0.55807,-0.65141 -0.84375,-0.96875 -0.48797,-0.62937 -1.01972,-1.23087 -1.5625,-1.8125 -0.33473,-0.41828 -0.70297,-0.79085 -1.0625,-1.1875 -0.49948,-0.64421 -1.03689,-1.24963 -1.59375,-1.84375 -0.43184,-0.53968 -0.87089,-1.05925 -1.34375,-1.5625 -0.43627,-0.54517 -0.89688,-1.05453 -1.375,-1.5625 -0.57091,-0.71376 -1.1705,-1.4135 -1.8125,-2.0625 -0.24829,-0.29606 -0.48893,-0.59042 -0.75,-0.875 -0.54233,-0.69949 -1.10896,-1.35989 -1.71875,-2 -0.47075,-0.58543 -0.981,-1.14544 -1.5,-1.6875 -0.46705,-0.57994 -0.95429,-1.15019 -1.46875,-1.6875 -0.37916,-0.47081 -0.77692,-0.93199 -1.1875,-1.375 -0.64155,-0.82745 -1.32718,-1.60041 -2.0625,-2.34375 -0.32417,-0.39231 -0.65367,-0.78384 -1,-1.15625 -0.48783,-0.62919 -1.01989,-1.23102 -1.5625,-1.8125 -0.0595,-0.0768 -0.12713,-0.14264 -0.1875,-0.21875 -0.10679,-0.11192 -0.20373,-0.2338 -0.3125,-0.34375 -0.35389,-0.43014 -0.71332,-0.84372 -1.09375,-1.25 -0.0686,-0.0885 -0.14901,-0.16238 -0.21875,-0.25 -0.0868,-0.0903 -0.16191,-0.1922 -0.25,-0.28125 -0.36744,-0.44815 -0.72883,-0.89015 -1.125,-1.3125 -0.50587,-0.65246 -1.06029,-1.24272 -1.625,-1.84375 -0.0586,-0.0756 -0.12808,-0.14381 -0.1875,-0.21875 -0.0868,-0.0903 -0.16191,-0.1922 -0.25,-0.28125 -0.39186,-0.47999 -0.79405,-0.95577 -1.21875,-1.40625 -0.0676,-0.0871 -0.15011,-0.16373 -0.21875,-0.25 -0.0667,-0.0689 -0.12008,-0.1506 -0.1875,-0.21875 -0.40327,-0.49565 -0.81179,-0.9732 -1.25,-1.4375 -0.52695,-0.67965 -1.0968,-1.3138 -1.6875,-1.9375 -0.53611,-0.69146 -1.1167,-1.33527 -1.71875,-1.96875 -0.53904,-0.69523 -1.11306,-1.33215 -1.71875,-1.96875 -0.64155,-0.82745 -1.32718,-1.63166 -2.0625,-2.375 -0.45782,-0.56848 -0.9341,-1.12869 -1.4375,-1.65625 -0.55684,-0.7182 -1.18461,-1.40701 -1.8125,-2.0625 -0.0318,-0.041 -0.0617,-0.0842 -0.0937,-0.125 -0.0606,-0.0625 -0.12627,-0.1256 -0.1875,-0.1875 -0.48892,-0.61031 -0.99004,-1.21793 -1.53125,-1.78125 -0.0322,-0.0416 -0.0613,-0.0836 -0.0937,-0.125 -0.0512,-0.0527 -0.10456,-0.104 -0.15625,-0.15625 -0.5007,-0.62687 -1.00674,-1.23507 -1.5625,-1.8125 -0.57371,-0.73996 -1.19471,-1.45175 -1.84375,-2.125 -0.0318,-0.041 -0.0617,-0.0842 -0.0937,-0.125 -0.0411,-0.0421 -0.0837,-0.0832 -0.125,-0.125 -0.51985,-0.65337 -1.07678,-1.30642 -1.65625,-1.90625 -0.58735,-0.75754 -1.24002,-1.46874 -1.90625,-2.15625 -0.59645,-0.76929 -1.2285,-1.52177 -1.90625,-2.21875 -0.60492,-0.78021 -1.24901,-1.51299 -1.9375,-2.21875 -0.61408,-0.79202 -1.2686,-1.53479 -1.96875,-2.25 -0.61408,-0.79202 -1.2686,-1.53479 -1.96875,-2.25 -0.42459,-0.54763 -0.87748,-1.08198 -1.34375,-1.59375 13.93207,-12.09932 30.14401,-21.26312 45.71875,-31.1875 -0.0504,0.0145 -0.10583,0.0168 -0.15625,0.0312 0.0389,-0.0248 0.0861,-0.0377 0.125,-0.0625 -0.10368,0.0298 -0.20883,0.0639 -0.3125,0.0937 0.0828,-0.0527 0.16727,-0.10353 0.25,-0.15625 -0.10441,0.03 -0.2081,0.0637 -0.3125,0.0937 0.0827,-0.0526 0.16738,-0.1036 0.25,-0.15625 -0.17634,0.0506 -0.35495,0.10534 -0.53125,0.15625 0.14555,-0.0925 0.29206,-0.18857 0.4375,-0.28125 -0.20736,0.0595 -0.41769,0.12757 -0.625,0.1875 0.16596,-0.10549 0.33418,-0.20684 0.5,-0.3125 -0.23131,0.0664 -0.45626,0.15185 -0.6875,0.21875 0.19023,-0.12088 0.37244,-0.2539 0.5625,-0.375 -0.28023,0.0804 -0.56362,0.16881 -0.84375,0.25 0.22894,-0.1454 0.45882,-0.29178 0.6875,-0.4375 -0.31104,0.0892 -0.62658,0.19103 -0.9375,0.28125 0.24904,-0.15812 0.50127,-0.31026 0.75,-0.46875 -0.33312,0.0956 -0.66702,0.18455 -1,0.28125 0.26864,-0.17052 0.54421,-0.32904 0.8125,-0.5 -0.38684,0.11099 -0.7696,0.23125 -1.15625,0.34375 0.31256,-0.19827 0.62542,-0.39489 0.9375,-0.59375 -0.43775,0.1256 -0.875,0.24746 -1.3125,0.375 0.3518,-0.22305 0.7113,-0.43246 1.0625,-0.65625 -0.43775,0.1256 -0.875,0.24746 -1.3125,0.375 0.3518,-0.22305 0.7113,-0.43246 1.0625,-0.65625 -0.51071,0.14653 -1.02089,0.28832 -1.53125,0.4375 0.41447,-0.26256 0.83635,-0.51767 1.25,-0.78125 -0.54409,0.15611 -1.08131,0.34089 -1.625,0.5 0.43876,-0.27786 0.87465,-0.56475 1.3125,-0.84375 -0.5757,0.16518 -1.1435,0.36271 -1.71875,0.53125 0.4705,-0.29784 0.93679,-0.60711 1.40625,-0.90625 -0.60444,0.17342 -1.20856,0.35411 -1.8125,0.53125 0.48646,-0.30788 0.9834,-0.59698 1.46875,-0.90625 -0.62496,0.17931 -1.25058,0.34797 -1.875,0.53125 0.50437,-0.31914 1.02808,-0.61687 1.53125,-0.9375 -0.68346,0.19609 -1.37969,0.3929 -2.0625,0.59375 0.55011,-0.34789 1.10755,-0.68161 1.65625,-1.03125 -0.71997,0.20657 -1.43701,0.41315 -2.15625,0.625 0.58195,-0.36787 1.16962,-0.72393 1.75,-1.09375 -0.75164,0.21565 -1.49916,0.43483 -2.25,0.65625 0.61379,-0.38785 1.2317,-0.76624 1.84375,-1.15625 -0.77369,0.22198 -1.53966,0.45941 -2.3125,0.6875 0.6238,-0.39413 1.25299,-0.79115 1.875,-1.1875 -0.80924,0.23218 -1.6292,0.47988 -2.4375,0.71875 0.65783,-0.41545 1.31291,-0.83209 1.96875,-1.25 -0.87551,0.25119 -1.7506,0.49096 -2.625,0.75 0.70466,-0.44479 1.42259,-0.86492 2.125,-1.3125 -0.90718,0.26028 -1.81277,0.51254 -2.71875,0.78125 0.73653,-0.46473 1.48467,-0.90724 2.21875,-1.375 -0.91961,0.26385 -1.83163,0.53999 -2.75,0.8125 0.74123,-0.46767 1.47999,-0.93551 2.21875,-1.40625 -0.97051,0.27845 -1.93712,0.55564 -2.90625,0.84375 0.7806,-0.49229 1.56588,-0.97308 2.34375,-1.46875 -1.00218,0.28754 -1.99931,0.57715 -3,0.875 0.81249,-0.51221 1.62795,-1.0154 2.4375,-1.53125 -1.0559,0.30295 -2.10202,0.62309 -3.15625,0.9375 0.85659,-0.53974 1.70916,-1.08124 2.5625,-1.625 -1.0559,0.30295 -2.10202,0.62309 -3.15625,0.9375 0.85659,-0.53974 1.70916,-1.08124 2.5625,-1.625 -1.12605,0.32308 -2.25087,0.63262 -3.375,0.96875 0.91368,-0.57535 1.83998,-1.13888 2.75,-1.71875 -1.15,0.32995 -2.32077,0.68768 -3.46875,1.03125 0.93806,-0.59055 1.87828,-1.18595 2.8125,-1.78125 -1.20218,0.34492 -2.3938,0.73392 -3.59375,1.09375 0.97202,-0.61171 1.93832,-1.22698 2.90625,-1.84375 -1.22106,0.35034 -2.43749,0.69678 -3.65625,1.0625 0.98957,-0.62264 1.98341,-1.24713 2.96875,-1.875 -1.28456,0.36855 -2.56177,0.77064 -3.84375,1.15625 1.04338,-0.65613 2.08628,-1.30687 3.125,-1.96875 -1.2844,0.36851 -2.56193,0.73944 -3.84375,1.125 1.04338,-0.65613 2.08628,-1.30687 3.125,-1.96875 -1.33531,0.38312 -2.6675,0.75468 -4,1.15625 1.07672,-0.67687 2.17821,-1.34829 3.25,-2.03125 -1.35736,0.38944 -2.7393,0.81023 -4.09375,1.21875 1.10726,-0.69585 2.21043,-1.3915 3.3125,-2.09375 -1.43,0.41028 -2.85453,0.81851 -4.28125,1.25 1.1564,-0.72638 2.31795,-1.4542 3.46875,-2.1875 -1.46155,0.41933 -2.91689,0.87099 -4.375,1.3125 1.18829,-0.74619 2.38009,-1.49656 3.5625,-2.25 -1.4931,0.42839 -2.97926,0.8922 -4.46875,1.34375 1.21062,-0.76005 2.42046,-1.5137 3.625,-2.28125 -1.53418,0.44018 -3.0634,0.8791 -4.59375,1.34375 1.25009,-0.78454 2.50634,-1.55128 3.75,-2.34375 -1.55577,0.44637 -3.10444,0.90345 -4.65625,1.375 1.26232,-0.79212 2.52547,-1.5748 3.78125,-2.375 -1.58938,0.45601 -3.19603,0.92394 -4.78125,1.40625 1.29429,-0.81195 2.58754,-1.61712 3.875,-2.4375 -1.66038,0.47638 -3.31296,0.96361 -4.96875,1.46875 1.34601,-0.844 2.69256,-1.67822 4.03125,-2.53125 -1.66992,0.47912 -3.33473,0.96054 -5,1.46875 1.35528,-0.84974 2.71463,-1.70363 4.0625,-2.5625 -1.74256,0.49996 -3.48132,1.03081 -5.21875,1.5625 1.41749,-0.88827 2.84052,-1.75811 4.25,-2.65625 -1.74256,0.49996 -3.48132,0.99956 -5.21875,1.53125 1.41749,-0.88827 2.84052,-1.75811 4.25,-2.65625 -1.79612,0.51533 -3.58438,1.04467 -5.375,1.59375 1.46172,-0.91564 2.92172,-1.82396 4.375,-2.75 -1.82767,0.52438 -3.6468,1.06564 -5.46875,1.625 1.48296,-0.92878 2.96319,-1.87306 4.4375,-2.8125 -1.87829,0.5389 -3.7528,1.11161 -5.625,1.6875 1.53323,-0.95988 3.06968,-1.90385 4.59375,-2.875 -1.91938,0.55069 -3.83702,1.09815 -5.75,1.6875 1.55511,-0.97341 3.14177,-1.9213 4.6875,-2.90625 -1.94552,0.55819 -3.90483,1.12081 -5.84375,1.71875 1.585,-0.99188 3.17469,-1.96495 4.75,-2.96875 -2.00449,0.57511 -4.00258,1.16389 -6,1.78125 1.62925,-1.01922 3.2559,-2.03079 4.875,-3.0625 -2.02504,0.58101 -4.0447,1.18835 -6.0625,1.8125 1.64901,-1.03144 3.29884,-2.04958 4.9375,-3.09375 -2.06759,0.59322 -4.12751,1.20551 -6.1875,1.84375 1.68373,-1.05288 3.38949,-2.12144 5.0625,-3.1875 -2.10439,0.60377 -4.21603,1.2558 -6.3125,1.90625 1.71304,-1.07098 3.42299,-2.13421 5.125,-3.21875 -1.92229,0.55153 -3.83413,1.12844 -5.75,1.71875 0.0285,-0.10472 0.0658,-0.2076 0.0937,-0.3125 1.48899,-0.93251 2.98848,-1.838 4.46875,-2.78125 -1.35736,0.38944 -2.70805,0.77898 -4.0625,1.1875 0.0737,-0.30946 0.11857,-0.62646 0.1875,-0.9375 0.88183,-0.55549 1.77784,-1.09652 2.65625,-1.65625 -0.81614,0.23416 -1.62232,0.50903 -2.4375,0.75 0.0708,-0.34459 0.15395,-0.68476 0.21875,-1.03125 0.0363,-0.18563 0.0596,-0.37631 0.0937,-0.5625 0.30037,-0.19058 0.60632,-0.37138 0.90625,-0.5625 -0.2821,0.0809 -0.56175,0.16826 -0.84375,0.25 1.39293,-7.90446 0.7749,-16.268 -1.9375,-23.84375 -0.27553,-0.77183 -0.55571,-1.55853 -0.875,-2.3125 -0.005,-0.0128 -0.0258,-0.0185 -0.0312,-0.0312 -0.3198,-0.75317 -0.66752,-1.48612 -1.03125,-2.21875 -0.006,-0.0127 -0.0249,-0.0186 -0.0312,-0.0312 -0.0105,-0.021 -0.0207,-0.0415 -0.0312,-0.0625 -0.0104,-0.0209 -0.0208,-0.0416 -0.0312,-0.0625 -0.3044,-0.60634 -0.60273,-1.22211 -0.9375,-1.8125 -0.0533,-0.0936 -0.1022,-0.18808 -0.15625,-0.28125 -0.40909,-0.70807 -0.8591,-1.38038 -1.3125,-2.0625 -0.008,-0.012 -0.0232,-0.0193 -0.0312,-0.0312 -0.0127,-0.0191 -0.0185,-0.0434 -0.0312,-0.0625 -0.0776,-0.11644 -0.17112,-0.22811 -0.25,-0.34375 -0.37113,-0.54056 -0.72535,-1.10299 -1.125,-1.625 -0.009,-0.0116 -0.0223,-0.0196 -0.0312,-0.0312 -0.0178,-0.0233 -0.0446,-0.0393 -0.0625,-0.0625 -0.0178,-0.0233 -0.0446,-0.0393 -0.0625,-0.0625 -0.0319,-0.0411 -0.0617,-0.084 -0.0937,-0.125 -0.43806,-0.56049 -0.87217,-1.11942 -1.34375,-1.65625 0.004,0.02 -0.004,0.0425 0,0.0625 -0.015,-0.0172 -0.0162,-0.0453 -0.0312,-0.0625 -0.0247,-0.0283 -0.0377,-0.0655 -0.0625,-0.0937 0.004,0.02 -0.004,0.0425 0,0.0625 -0.0587,-0.0679 -0.097,-0.15122 -0.15625,-0.21875 -0.0245,-0.0285 -0.0379,-0.0653 -0.0625,-0.0937 -0.0194,-0.0222 -0.043,-0.0404 -0.0625,-0.0625 -0.0439,-0.0506 -0.0808,-0.10589 -0.125,-0.15625 -0.053,-0.0611 -0.10281,-0.12667 -0.15625,-0.1875 0.004,0.02 -0.004,0.0425 0,0.0625 -0.0683,-0.0791 -0.11845,-0.1714 -0.1875,-0.25 0.004,0.02 -0.004,0.0425 0,0.0625 -0.0682,-0.0791 -0.11854,-0.1714 -0.1875,-0.25 -0.0778,-0.0903 -0.13999,-0.19159 -0.21875,-0.28125 0.004,0.02 -0.004,0.0425 0,0.0625 -0.35234,-0.43996 -0.68914,-0.88748 -1.0625,-1.3125 0.004,0.02 -0.004,0.0425 0,0.0625 -0.1196,-0.14032 -0.22191,-0.2988 -0.34375,-0.4375 0.004,0.0199 -0.004,0.0426 0,0.0625 -0.0752,-0.0909 -0.14268,-0.19103 -0.21875,-0.28125 -0.0439,-0.0506 -0.0808,-0.10589 -0.125,-0.15625 -0.1196,-0.14032 -0.22191,-0.2988 -0.34375,-0.4375 0.004,0.02 -0.004,0.0425 0,0.0625 -0.13399,-0.15779 -0.23818,-0.34425 -0.375,-0.5 0.007,0.0319 0.0246,0.0618 0.0312,0.0937 -0.14866,-0.17573 -0.28535,-0.35804 -0.4375,-0.53125 0.007,0.0319 0.0246,0.0618 0.0312,0.0937 -0.29919,-0.36815 -0.59218,-0.73622 -0.90625,-1.09375 0.004,0.02 -0.004,0.0425 0,0.0625 -0.16301,-0.19342 -0.30152,-0.40338 -0.46875,-0.59375 0.007,0.0319 0.0246,0.0618 0.0312,0.0937 -0.33896,-0.42168 -0.67293,-0.8421 -1.03125,-1.25 0.007,0.0319 0.0246,0.0618 0.0312,0.0937 -0.35773,-0.44737 -0.71431,-0.91181 -1.09375,-1.34375 0.009,0.0419 0.0226,0.0831 0.0312,0.125 -0.38665,-0.48749 -0.77523,-0.96818 -1.1875,-1.4375 0.007,0.0319 0.0246,0.0618 0.0312,0.0937 -0.22082,-0.26603 -0.42754,-0.55214 -0.65625,-0.8125 0.004,0.02 -0.004,0.0425 0,0.0625 -0.21382,-0.25711 -0.4038,-0.52944 -0.625,-0.78125 0.007,0.0319 0.0246,0.0618 0.0312,0.0937 -0.22974,-0.27743 -0.44919,-0.57247 -0.6875,-0.84375 0.004,0.02 -0.004,0.0425 0,0.0625 -0.22288,-0.26866 -0.42532,-0.54962 -0.65625,-0.8125 0.009,0.0419 0.0226,0.0831 0.0312,0.125 -0.46297,-0.59666 -0.93675,-1.17995 -1.4375,-1.75 0.007,0.0319 0.0246,0.0618 0.0312,0.0937 -0.25885,-0.31503 -0.51142,-0.63033 -0.78125,-0.9375 0.004,0.02 -0.004,0.0425 0,0.0625 -0.25481,-0.30978 -0.48456,-0.63533 -0.75,-0.9375 0.009,0.0419 0.0226,0.0831 0.0312,0.125 -0.26755,-0.32684 -0.53317,-0.65034 -0.8125,-0.96875 -0.26134,-0.31829 -0.5087,-0.65849 -0.78125,-0.96875 0.0129,0.0619 0.0185,0.12555 0.0312,0.1875 -0.29735,-0.36569 -0.56297,-0.76979 -0.875,-1.125 0.004,0.0199 -0.004,0.0426 0,0.0625 -0.27265,-0.33307 -0.52761,-0.67569 -0.8125,-1 0.007,0.0319 0.0246,0.0618 0.0312,0.0937 -0.29919,-0.36815 -0.59218,-0.73622 -0.90625,-1.09375 0.007,0.0319 0.0246,0.0618 0.0312,0.0937 -0.29919,-0.36815 -0.59218,-0.73622 -0.90625,-1.09375 0.007,0.0319 0.0246,0.0618 0.0312,0.0937 -0.30799,-0.37988 -0.6137,-0.7564 -0.9375,-1.125 0.004,0.02 -0.004,0.0425 0,0.0625 -0.30402,-0.37458 -0.58684,-0.7614 -0.90625,-1.125 0.004,0.02 -0.004,0.0425 0,0.0625 -0.3128,-0.38633 -0.60837,-0.78157 -0.9375,-1.15625 0.009,0.0419 0.0226,0.0831 0.0312,0.125 -0.33026,-0.40987 -0.65142,-0.82193 -1,-1.21875 0.009,0.0419 0.0226,0.0831 0.0312,0.125 -0.33895,-0.42167 -0.67294,-0.84211 -1.03125,-1.25 0.007,0.0319 0.0246,0.0618 0.0312,0.0937 -0.33895,-0.42167 -0.67294,-0.84211 -1.03125,-1.25 0.007,0.0319 0.0246,0.0618 0.0312,0.0937 -0.34761,-0.43349 -0.69447,-0.86229 -1.0625,-1.28125 0.007,0.0319 0.0246,0.0618 0.0312,0.0937 -0.34761,-0.43349 -0.69447,-0.86229 -1.0625,-1.28125 0.007,0.0319 0.0246,0.0618 0.0312,0.0937 -0.35625,-0.44532 -0.71599,-0.88247 -1.09375,-1.3125 0.007,0.0319 0.0246,0.0618 0.0312,0.0937 -0.36485,-0.45718 -0.73751,-0.90264 -1.125,-1.34375 0.004,0.02 -0.004,0.0425 0,0.0625 -0.36097,-0.45183 -0.71065,-0.90764 -1.09375,-1.34375 0.009,0.0419 0.0226,0.0831 0.0312,0.125 -0.37812,-0.47558 -0.7537,-0.948 -1.15625,-1.40625 0.009,0.0419 0.0226,0.0831 0.0312,0.125 -0.38784,-0.48915 -0.77387,-0.99788 -1.1875,-1.46875 0.0108,0.0519 0.0205,0.10431 0.0312,0.15625 -0.39626,-0.50096 -0.79549,-1.01817 -1.21875,-1.5 0.009,0.0419 0.0226,0.0831 0.0312,0.125 -0.39516,-0.49941 -0.79675,-0.98835 -1.21875,-1.46875 0.004,0.0199 -0.004,0.0426 0,0.0625 -0.39132,-0.49403 -0.76989,-0.99335 -1.1875,-1.46875 0.0108,0.0519 0.0205,0.10431 0.0312,0.15625 -0.4167,-0.52989 -0.83446,-1.05389 -1.28125,-1.5625 0.007,0.0319 0.0246,0.0618 0.0312,0.0937 -0.41208,-0.52332 -0.8398,-1.02871 -1.28125,-1.53125 0.009,0.0419 0.0226,0.0831 0.0312,0.125 -0.42511,-0.54188 -0.85599,-1.07406 -1.3125,-1.59375 0.009,0.0419 0.0226,0.0831 0.0312,0.125 -0.42511,-0.54188 -0.85599,-1.07406 -1.3125,-1.59375 0.009,0.0419 0.0226,0.0831 0.0312,0.125 -0.4342,-0.55493 -0.87667,-1.12454 -1.34375,-1.65625 0.0108,0.0519 0.0205,0.10431 0.0312,0.15625 -0.44246,-0.56683 -0.89829,-1.14483 -1.375,-1.6875 0.009,0.0419 0.0226,0.0831 0.0312,0.125 -0.44183,-0.56592 -0.89903,-1.11442 -1.375,-1.65625 0.007,0.0319 0.0246,0.0618 0.0312,0.0937 -0.45015,-0.57797 -0.92056,-1.1346 -1.40625,-1.6875 0.0108,0.0519 0.0205,0.10431 0.0312,0.15625 -0.46297,-0.59666 -0.93675,-1.17995 -1.4375,-1.75 0.009,0.0419 0.0226,0.0831 0.0312,0.125 -0.46297,-0.59666 -0.93675,-1.17995 -1.4375,-1.75 0.009,0.0419 0.0226,0.0831 0.0312,0.125 -0.47122,-0.60876 -0.95827,-1.20013 -1.46875,-1.78125 0.009,0.0419 0.0226,0.0831 0.0312,0.125 -0.47943,-0.62087 -0.97979,-1.22031 -1.5,-1.8125 0.009,0.0419 0.0226,0.0831 0.0312,0.125 -0.47943,-0.62087 -0.97979,-1.22031 -1.5,-1.8125 0.009,0.0419 0.0226,0.0831 0.0312,0.125 -0.48762,-0.633 -1.00132,-1.24049 -1.53125,-1.84375 0.0108,0.0519 0.0205,0.10431 0.0312,0.15625 -0.50025,-0.65183 -1.01751,-1.28584 -1.5625,-1.90625 0.007,0.0319 0.0246,0.0618 0.0312,0.0937 -0.49578,-0.64515 -1.02284,-1.26067 -1.5625,-1.875 0.0108,0.0519 0.0205,0.10431 0.0312,0.15625 -0.50837,-0.664 -1.03903,-1.30602 -1.59375,-1.9375 0.0108,0.0519 0.0205,0.10431 0.0312,0.15625 -0.5164,-0.67611 -1.06062,-1.32628 -1.625,-1.96875 0.006,0.0303 -0.006,0.0635 0,0.0937 -0.50837,-0.664 -1.03903,-1.30602 -1.59375,-1.9375 0.0108,0.0519 0.0205,0.10431 0.0312,0.15625 -0.52919,-0.69553 -1.07642,-1.37119 -1.65625,-2.03125 0.0129,0.0619 0.0185,0.12555 0.0312,0.1875 -0.53699,-0.70744 -1.09821,-1.42291 -1.6875,-2.09375 0.0108,0.0519 0.0205,0.10431 0.0312,0.15625 -0.53689,-0.70729 -1.09832,-1.3918 -1.6875,-2.0625 0.0129,0.0619 0.0185,0.12555 0.0312,0.1875 -0.54911,-0.72607 -1.11468,-1.43735 -1.71875,-2.125 0.017,0.0819 0.0144,0.16802 0.0312,0.25 -0.56196,-0.74598 -1.13019,-1.48192 -1.75,-2.1875 0.0108,0.0519 0.0205,0.10431 0.0312,0.15625 -0.5574,-0.73889 -1.13579,-1.45705 -1.75,-2.15625 0.0149,0.0719 0.0164,0.14679 0.0312,0.21875 -0.5698,-0.75821 -1.15178,-1.50218 -1.78125,-2.21875 0.0149,0.0719 0.0164,0.14679 0.0312,0.21875 -0.57762,-0.77046 -1.17337,-1.52243 -1.8125,-2.25 0.0128,0.0618 0.0185,0.12566 0.0312,0.1875 -0.57762,-0.77046 -1.17337,-1.52243 -1.8125,-2.25 0.017,0.0819 0.0144,0.16802 0.0312,0.25 -0.58991,-0.78985 -1.18936,-1.59881 -1.84375,-2.34375 0.0149,0.0719 0.0164,0.14679 0.0312,0.21875 -0.58971,-0.78954 -1.1896,-1.56784 -1.84375,-2.3125 0.0195,0.0938 0.0432,0.18734 0.0625,0.28125 -0.61202,-0.82512 -1.25544,-1.62981 -1.9375,-2.40625 0.0195,0.0937 0.0432,0.18747 0.0625,0.28125 -0.61305,-0.82678 -1.25414,-1.65958 -1.9375,-2.4375 0.0174,0.0837 0.0452,0.16621 0.0625,0.25 -0.61378,-0.82796 -1.25322,-1.62728 -1.9375,-2.40625 0.0174,0.0838 0.0452,0.16611 0.0625,0.25 -0.62148,-0.84037 -1.27476,-1.67873 -1.96875,-2.46875 0.0216,0.10384 0.0412,0.20857 0.0625,0.3125 -0.63363,-0.8601 -1.29061,-1.7237 -2,-2.53125 0.0216,0.10384 0.0412,0.20857 0.0625,0.3125 -0.64034,-0.87106 -1.31332,-1.74523 -2.03125,-2.5625 0.0216,0.10384 0.0412,0.20857 0.0625,0.3125 -0.64571,-0.87986 -1.30647,-1.73742 -2.03125,-2.5625 0.0195,0.0938 0.0432,0.18734 0.0625,0.28125 -0.6479,-0.88346 -1.33491,-1.76548 -2.0625,-2.59375 0.0237,0.11384 0.0391,0.2298 0.0625,0.34375 -0.65979,-0.90311 -1.3509,-1.81061 -2.09375,-2.65625 0.0216,0.10367 0.0412,0.20874 0.0625,0.3125 -0.65979,-0.90311 -1.3509,-1.81061 -2.09375,-2.65625 0.0237,0.11384 0.0391,0.2298 0.0625,0.34375 -0.67161,-0.92279 -1.36689,-1.82449 -2.125,-2.6875 0.0216,0.10367 0.0412,0.20874 0.0625,0.3125 -0.67276,-0.92472 -1.3654,-1.85404 -2.125,-2.71875 0.0237,0.11384 0.0391,0.2298 0.0625,0.34375 -0.6829,-0.94175 -1.38348,-1.8703 -2.15625,-2.75 0.0257,0.12384 0.0371,0.25103 0.0625,0.375 -0.69458,-0.96151 -1.39947,-1.91543 -2.1875,-2.8125 0.0257,0.12384 0.0371,0.25103 0.0625,0.375 -0.69813,-0.96755 -1.42607,-1.91013 -2.21875,-2.8125 0.0195,0.0938 0.0432,0.18734 0.0625,0.28125 -0.69385,-0.96028 -1.43167,-1.88526 -2.21875,-2.78125 0.0237,0.11384 0.0391,0.2298 0.0625,0.34375 -0.70547,-0.98009 -1.44766,-1.93039 -2.25,-2.84375 0.0237,0.11384 0.0391,0.2298 0.0625,0.34375 -0.71114,-0.98981 -1.44018,-1.95312 -2.25,-2.875 0.0278,0.13384 0.0351,0.27226 0.0625,0.40625 -0.72642,-1.01623 -1.4824,-2.02379 -2.3125,-2.96875 0.0257,0.12361 0.0371,0.25127 0.0625,0.375 -0.72275,-1.00986 -1.45604,-1.9981 -2.28125,-2.9375 0.0278,0.13384 0.0351,0.27226 0.0625,0.40625 -0.73572,-1.03244 -1.50124,-2.07215 -2.34375,-3.03125 0.0303,0.14576 0.0639,0.29157 0.0937,0.4375 -0.74454,-1.04791 -1.52066,-2.08993 -2.375,-3.0625 0.0282,0.13575 0.0659,0.27034 0.0937,0.40625 -0.74593,-1.05037 -1.55003,-2.05655 -2.40625,-3.03125 0.0257,0.12384 0.0371,0.25103 0.0625,0.375 -0.74876,-1.05536 -1.51497,-2.08346 -2.375,-3.0625 0.0303,0.14576 0.0639,0.29157 0.0937,0.4375 -0.76435,-1.08304 -1.58761,-2.12193 -2.46875,-3.125 0.0257,0.12361 0.0371,0.25127 0.0625,0.375 -0.75595,-1.06808 -1.53651,-2.10366 -2.40625,-3.09375 0.0303,0.14576 0.0639,0.29157 0.0937,0.4375 -0.77554,-1.10311 -1.6036,-2.16706 -2.5,-3.1875 0.0278,0.13384 0.0351,0.27226 0.0625,0.40625 -0.77011,-1.09336 -1.57976,-2.1755 -2.46875,-3.1875 0.0303,0.14576 0.0639,0.29157 0.0937,0.4375 -0.78258,-1.11582 -1.62519,-2.18732 -2.53125,-3.21875 0.0303,0.14576 0.0639,0.29157 0.0937,0.4375 -0.78855,-1.12666 -1.61698,-2.20922 -2.53125,-3.25 0.0303,0.14576 0.0639,0.29157 0.0937,0.4375 -0.79558,-1.13948 -1.63852,-2.22941 -2.5625,-3.28125 0.0344,0.16576 0.0599,0.33402 0.0937,0.5 -0.80667,-1.15984 -1.65437,-2.30564 -2.59375,-3.375 0.0344,0.16576 0.0599,0.33402 0.0937,0.5 -0.81159,-1.16891 -1.67877,-2.29783 -2.625,-3.375 0.0303,0.14554 0.0639,0.29179 0.0937,0.4375 -0.80757,-1.16149 -1.68437,-2.27296 -2.625,-3.34375 0.0324,0.15576 0.0619,0.3128 0.0937,0.46875 -0.81849,-1.18172 -1.70036,-2.31809 -2.65625,-3.40625 0.0323,0.15551 0.0619,0.31305 0.0937,0.46875 -0.81959,-1.18376 -1.69882,-2.34758 -2.65625,-3.4375 0.0365,0.17576 0.0579,0.35524 0.0937,0.53125 -0.83551,-1.21359 -1.70762,-2.38453 -2.6875,-3.5 0.0344,0.16576 0.0599,0.33402 0.0937,0.5 -0.83617,-1.21482 -1.73794,-2.38347 -2.71875,-3.5 0.0344,0.16576 0.0599,0.33402 0.0937,0.5 -0.84236,-1.22652 -1.72916,-2.40472 -2.71875,-3.53125 0.0365,0.17576 0.0579,0.35524 0.0937,0.53125 -0.85315,-1.24706 -1.74501,-2.4497 -2.75,-3.59375 0.039,0.18767 0.0868,0.37454 0.125,0.5625 -0.86271,-1.26541 -1.79378,-2.49656 -2.8125,-3.65625 0.0411,0.19767 0.0847,0.39576 0.125,0.59375 -0.86767,-1.27498 -1.81787,-2.51967 -2.84375,-3.6875 0.0365,0.17544 0.0579,0.35556 0.0937,0.53125 -0.86105,-1.26221 -1.79617,-2.49929 -2.8125,-3.65625 0.0389,0.18741 0.0868,0.37481 0.125,0.5625 -0.87337,-1.28602 -1.80963,-2.54153 -2.84375,-3.71875 0.039,0.18767 0.0868,0.37454 0.125,0.5625 -0.88041,-1.29974 -1.8619,-2.52989 -2.90625,-3.71875 0.0365,0.17576 0.0579,0.35524 0.0937,0.53125 -0.87762,-1.2943 -1.8347,-2.5345 -2.875,-3.71875 0.0386,0.18576 0.0559,0.37646 0.0937,0.5625 -0.88809,-1.31479 -1.85069,-2.57963 -2.90625,-3.78125 0.0365,0.17544 0.0579,0.35556 0.0937,0.53125 -0.88809,-1.31479 -1.85069,-2.57963 -2.90625,-3.78125 0.0386,0.18576 0.0559,0.37646 0.0937,0.5625 -0.89467,-1.32777 -1.87229,-2.63114 -2.9375,-3.84375 0.0411,0.19767 0.0847,0.39576 0.125,0.59375 -0.90776,-1.35378 -1.91547,-2.6404 -3,-3.875 0.0389,0.18741 0.0868,0.37481 0.125,0.5625 -0.90776,-1.35378 -1.91547,-2.6404 -3,-3.875 0.0452,0.21768 0.0808,0.43819 0.125,0.65625 -0.92448,-1.38743 -1.92181,-2.73704 -3.03125,-4 0.0432,0.20768 0.0828,0.41697 0.125,0.625 -0.92448,-1.38743 -1.95306,-2.70579 -3.0625,-3.96875 0.0432,0.20768 0.0828,0.41697 0.125,0.625 -0.93089,-1.40046 -1.94343,-2.75733 -3.0625,-4.03125 0.0452,0.21768 0.0808,0.43819 0.125,0.65625 -0.94098,-1.4211 -1.95946,-2.77125 -3.09375,-4.0625 0.0452,0.21768 0.0808,0.43819 0.125,0.65625 -0.94126,-1.42168 -1.99027,-2.80201 -3.125,-4.09375 0.0473,0.22768 0.0788,0.4594 0.125,0.6875 -0.95107,-1.44193 -1.97537,-2.81628 -3.125,-4.125 0.0494,0.23768 0.0768,0.48061 0.125,0.71875 -0.96146,-1.46358 -1.99071,-2.89192 -3.15625,-4.21875 0.0473,0.22768 0.0788,0.4594 0.125,0.6875 -0.96134,-1.46333 -2.02213,-2.86088 -3.1875,-4.1875 0.0473,0.22768 0.0788,0.4594 0.125,0.6875 -0.96726,-1.47576 -2.01301,-2.88174 -3.1875,-4.21875 0.0539,0.25959 0.10374,0.52111 0.15625,0.78125 -0.98328,-1.50969 -2.05066,-2.97845 -3.25,-4.34375 0.0519,0.24959 0.10571,0.4999 0.15625,0.75 -0.98365,-1.5105 -2.08132,-2.94653 -3.28125,-4.3125 0.0519,0.24959 0.10571,0.4999 0.15625,0.75 -0.98936,-1.52271 -2.0724,-2.96762 -3.28125,-4.34375 0.0539,0.2596 0.10374,0.52111 0.15625,0.78125 -0.99911,-1.54372 -2.08831,-3.01266 -3.3125,-4.40625 0.0519,0.24959 0.10571,0.4999 0.15625,0.75 -0.99958,-1.54474 -2.11881,-3.01181 -3.34375,-4.40625 0.056,0.2696 0.10178,0.54232 0.15625,0.8125 -1.00879,-1.56478 -2.10422,-3.0577 -3.34375,-4.46875 0.0539,0.25959 0.10374,0.52111 0.15625,0.78125 -1.00933,-1.56596 -2.13461,-3.08797 -3.375,-4.5 0.0581,0.2796 0.0998,0.56352 0.15625,0.84375 -1.01901,-1.58722 -2.1504,-3.13287 -3.40625,-4.5625 0.0559,0.26915 0.10187,0.54277 0.15625,0.8125 -1.01901,-1.58722 -2.1504,-3.10162 -3.40625,-4.53125 0.0539,0.25959 0.10374,0.52111 0.15625,0.78125 -1.02495,-1.60037 -2.1721,-3.122 -3.4375,-4.5625 0.0581,0.2796 0.0998,0.56352 0.15625,0.84375 -1.03452,-1.62169 -2.18789,-3.1669 -3.46875,-4.625 0.058,0.27912 0.0999,0.56401 0.15625,0.84375 -1.03815,-1.62984 -2.18198,-3.19143 -3.46875,-4.65625 0.0581,0.2796 0.0998,0.56352 0.15625,0.84375 -1.04401,-1.64304 -2.20368,-3.2118 -3.5,-4.6875 0.0627,0.30151 0.1268,0.60401 0.1875,0.90625 -1.05565,-1.66949 -2.21583,-3.28381 -3.53125,-4.78125 0.0647,0.31151 0.12485,0.62521 0.1875,0.9375 -1.06498,-1.69093 -2.26287,-3.29746 -3.59375,-4.8125 0.0626,0.30105 0.12689,0.60447 0.1875,0.90625 -1.06498,-1.69092 -2.26287,-3.29746 -3.59375,-4.8125 0.0646,0.31101 0.12495,0.62571 0.1875,0.9375 -1.07128,-1.70551 -2.25237,-3.34801 -3.59375,-4.875 0.0689,0.33152 0.12098,0.6676 0.1875,1 -1.08344,-1.73391 -2.26321,-3.38727 -3.625,-4.9375 0.071,0.34152 0.11905,0.6888 0.1875,1.03125 -1.09256,-1.75546 -2.279,-3.46342 -3.65625,-5.03125 0.0668,0.32151 0.12291,0.64641 0.1875,0.96875 -1.08908,-1.74722 -2.31615,-3.40764 -3.6875,-4.96875 0.071,0.34152 0.11905,0.6888 0.1875,1.03125 -1.09708,-1.76622 -2.30254,-3.4859 -3.6875,-5.0625 0.0689,0.33152 0.12098,0.6676 0.1875,1 -1.09816,-1.76879 -2.33195,-3.45255 -3.71875,-5.03125 0.0689,0.33152 0.12098,0.6676 0.1875,1 -1.10553,-1.78646 -2.35056,-3.50066 -3.75,-5.09375 0.0688,0.33095 0.12109,0.66817 0.1875,1 -1.10717,-1.7904 -2.34774,-3.49745 -3.75,-5.09375 0.071,0.34152 0.11905,0.6888 0.1875,1.03125 -1.1161,-1.81204 -2.36353,-3.54236 -3.78125,-5.15625 0.0733,0.35288 0.14811,0.70862 0.21875,1.0625 -1.12249,-1.82764 -2.38366,-3.5922 -3.8125,-5.21875 0.0776,0.37343 0.14417,0.75045 0.21875,1.125 -1.13583,-1.86056 -2.39147,-3.62801 -3.84375,-5.28125 0.0797,0.38343 0.14226,0.77164 0.21875,1.15625 -1.14454,-1.88232 -2.40726,-3.67292 -3.875,-5.34375 0.0755,0.36343 0.14609,0.72926 0.21875,1.09375 -1.14122,-1.87401 -2.44442,-3.64839 -3.90625,-5.3125 0.0731,0.35152 0.11712,0.70999 0.1875,1.0625 -1.13917,-1.86887 -2.41682,-3.65254 -3.875,-5.3125 0.0776,0.37343 0.14417,0.75045 0.21875,1.125 -1.14988,-1.89579 -2.46021,-3.69329 -3.9375,-5.375 0.0797,0.38344 0.14226,0.77164 0.21875,1.15625 -1.15848,-1.9176 -2.44475,-3.76945 -3.9375,-5.46875 0.0842,0.40535 0.16934,0.81209 0.25,1.21875 -1.169,-1.94462 -2.5194,-3.8102 -4.03125,-5.53125 0.0841,0.40472 0.16946,0.81273 0.25,1.21875 -1.17223,-1.95297 -2.48225,-3.80348 -4,-5.53125 0.0825,0.39676 0.13972,0.78949 0.21875,1.1875 -1.17545,-1.96134 -2.50759,-3.828 -4.03125,-5.5625 0.0818,0.39344 0.14036,0.79283 0.21875,1.1875 -1.17594,-1.96262 -2.50669,-3.82698 -4.03125,-5.5625 0.0818,0.39344 0.14036,0.79283 0.21875,1.1875 -1.18064,-1.97488 -2.52929,-3.84838 -4.0625,-5.59375 0.0842,0.40535 0.16934,0.81209 0.25,1.21875 -1.19093,-2.00201 -2.54144,-3.88913 -4.09375,-5.65625 0.0905,0.43535 0.16367,0.87564 0.25,1.3125 -1.20232,-2.032398 -2.58257,-3.989814 -4.15625,-5.78125 0.0883,0.424655 0.16569,0.855162 0.25,1.28125 -1.20232,-2.032398 -2.55132,-3.958563 -4.125,-5.75 0.0884,0.425353 0.16556,0.854459 0.25,1.28125 -1.20736,-2.046009 -2.60427,-3.97894 -4.1875,-5.78125 0.0863,0.415352 0.16745,0.833276 0.25,1.25 -1.20736,-2.046009 -2.60427,-3.97894 -4.1875,-5.78125 0.0905,0.435354 0.16367,0.875641 0.25,1.3125 -1.21547,-2.068061 -2.62006,-4.055093 -4.21875,-5.875 0.0926,0.445355 0.16179,0.896821 0.25,1.34375 -1.22351,-2.090148 -2.6046,-4.068747 -4.21875,-5.90625 0.0946,0.455356 0.15992,0.918 0.25,1.375 -1.23148,-2.112267 -2.6204,-4.113651 -4.25,-5.96875 0.0905,0.435354 0.16367,0.875641 0.25,1.3125 -1.22858,-2.104206 -2.65728,-4.088811 -4.28125,-5.9375 0.0971,0.467271 0.18894,0.937251 0.28125,1.40625 -1.24123,-2.139653 -2.69504,-4.185653 -4.34375,-6.0625 0.0949,0.456554 0.19094,0.916794 0.28125,1.375 -1.24123,-2.139653 -2.69504,-4.154403 -4.34375,-6.03125 0.0946,0.455356 0.15992,0.918 0.25,1.375 -1.24422,-2.148128 -2.68914,-4.178931 -4.34375,-6.0625 0.0949,0.456554 0.19094,0.916794 0.28125,1.375 -1.24904,-2.161847 -2.71084,-4.199307 -4.375,-6.09375 0.0926,0.445355 0.16179,0.896821 0.25,1.34375 -1.24904,-2.161847 -2.71084,-4.199308 -4.375,-6.09375 z m -94,303.71875 c 0.72008,0.82398 1.60301,1.49571 2.53125,2.125 0.049,0.13914 0.0989,0.27198 0.15625,0.40625 -0.68962,0.23957 -1.35305,0.51351 -2.03125,0.78125 -0.21992,-0.22082 -0.42925,-0.46494 -0.625,-0.71875 -0.45845,-0.95249 -0.38334,-1.80849 -0.0312,-2.59375 z m 4.125,4.75 c 0.35221,0.38658 0.74754,0.75431 1.15625,1.09375 -0.46221,-0.13882 -0.90187,-0.3238 -1.34375,-0.5 0.0476,-0.20478 0.1008,-0.39856 0.1875,-0.59375 z M 708.375,757.125 c -0.25675,0.19659 -0.50906,0.38124 -0.75,0.59375 0.046,-0.16927 0.11533,-0.32837 0.15625,-0.5 0.19685,-0.0345 0.39696,-0.0588 0.59375,-0.0937 z m -2.0625,0.375 c -0.26852,0.24693 -0.53701,0.48115 -0.8125,0.71875 -0.10881,-0.1836 -0.21538,-0.35764 -0.34375,-0.53125 0.38409,-0.0642 0.77237,-0.12194 1.15625,-0.1875 z m 4,0.5 c -0.10769,0.0711 -0.20771,0.14476 -0.3125,0.21875 0.007,-0.0431 0.0248,-0.0817 0.0312,-0.125 -0.11701,0.12482 -0.22505,0.25238 -0.34375,0.375 -0.80665,0.6086 -1.57513,1.25836 -2.25,2 -0.0222,-0.0191 -0.0401,-0.0435 -0.0625,-0.0625 -0.12966,-0.22539 -0.27872,-0.44573 -0.4375,-0.65625 0.12608,-0.30582 0.23482,-0.6232 0.34375,-0.9375 0.9181,-0.23731 1.83288,-0.46775 2.75,-0.71875 0.0947,-0.0259 0.18656,-0.0677 0.28125,-0.0937 z m 1.09375,1.46875 c -0.80212,0.54315 -1.51988,1.19631 -2.1875,1.875 0.16474,-0.45534 0.31102,-0.93271 0.4375,-1.40625 0.58343,-0.15439 1.16707,-0.30875 1.75,-0.46875 z m -3.84375,1 c -0.0221,0.0192 -0.0403,0.0434 -0.0625,0.0625 -0.011,-0.01 -0.0202,-0.0216 -0.0312,-0.0312 0.0317,-0.008 0.062,-0.0232 0.0937,-0.0312 z m 5,0.375 c -0.25991,0.1768 -0.50642,0.36929 -0.75,0.5625 0.027,-0.126 0.0695,-0.24775 0.0937,-0.375 0.21834,-0.0591 0.43799,-0.12764 0.65625,-0.1875 z m -1.40625,0.40625 c -0.53356,0.52731 -1.09264,1.01265 -1.65625,1.5 -0.1083,-0.0995 -0.2304,-0.1852 -0.34375,-0.28125 -0.0769,-0.13317 -0.16266,-0.24711 -0.25,-0.375 0.0399,-0.0959 0.0867,-0.18454 0.125,-0.28125 0.71243,-0.18157 1.41293,-0.37288 2.125,-0.5625 z m 2.46875,1.03125 c -0.95723,0.66783 -1.818,1.46157 -2.59375,2.3125 -0.0221,-0.0192 -0.0402,-0.0434 -0.0625,-0.0625 -0.0304,-0.0528 -0.0616,-0.10433 -0.0937,-0.15625 0.20375,-0.48853 0.4032,-0.98968 0.5625,-1.5 0.72848,-0.1903 1.4597,-0.39479 2.1875,-0.59375 z m 1.09375,1.34375 c -0.40128,0.28333 -0.79241,0.61648 -1.15625,0.9375 0.0598,-0.21817 0.10503,-0.43416 0.15625,-0.65625 0.33425,-0.0894 0.66592,-0.19003 1,-0.28125 z m -2.4375,0.65625 c -0.25978,0.23931 -0.51492,0.4882 -0.78125,0.71875 -0.13976,-0.13651 -0.28807,-0.2761 -0.4375,-0.40625 0.40392,-0.1023 0.81489,-0.20766 1.21875,-0.3125 z m 3.5,0.6875 c -0.0207,0.0218 -0.0418,0.0408 -0.0625,0.0625 -0.85669,0.6211 -1.63535,1.32301 -2.34375,2.09375 -0.16443,-0.16639 -0.35241,-0.31166 -0.53125,-0.46875 0.13661,-0.3262 0.25794,-0.6641 0.375,-1 0.85295,-0.22043 1.71036,-0.45529 2.5625,-0.6875 z m 1.03125,1.3125 c -0.56942,0.41283 -1.09594,0.89001 -1.59375,1.375 0.11381,-0.34115 0.21991,-0.6801 0.3125,-1.03125 0.42674,-0.113 0.85476,-0.22776 1.28125,-0.34375 z m 1,1.3125 c -0.0461,0.034 -0.0795,0.0904 -0.125,0.125 0.006,-0.0305 -0.006,-0.0632 0,-0.0937 0.0412,-0.0112 0.0838,-0.0201 0.125,-0.0312 z m -0.75,0.1875 c -0.54996,0.54898 -1.10517,1.08776 -1.6875,1.59375 -0.18077,-0.2005 -0.39155,-0.37509 -0.59375,-0.5625 0.0641,-0.15444 0.12774,-0.31214 0.1875,-0.46875 0.70263,-0.17977 1.39151,-0.37486 2.09375,-0.5625 z m 1.8125,1.0625 c -0.7461,0.55113 -1.40102,1.17573 -2.03125,1.84375 0.17916,-0.45822 0.32848,-0.92922 0.46875,-1.40625 0.52147,-0.13692 1.04137,-0.29614 1.5625,-0.4375 z m 0.9375,1.25 c -0.10838,0.0815 -0.20707,0.16549 -0.3125,0.25 0.0115,-0.052 0.0203,-0.10401 0.0312,-0.15625 0.0957,-0.0257 0.18556,-0.0679 0.28125,-0.0937 z m -1.375,0.375 c -0.39372,0.3759 -0.77807,0.73879 -1.1875,1.09375 -0.1651,-0.19692 -0.34491,-0.37799 -0.53125,-0.5625 0.0127,-0.0308 0.0187,-0.0628 0.0312,-0.0937 0.56499,-0.14345 1.12267,-0.28902 1.6875,-0.4375 z m 2.34375,0.875 c -0.75361,0.57521 -1.42547,1.21334 -2.0625,1.90625 -0.0399,-0.0437 -0.0841,-0.0819 -0.125,-0.125 0.18093,-0.44067 0.38632,-0.88545 0.53125,-1.34375 0.55128,-0.14383 1.10531,-0.28875 1.65625,-0.4375 z m 0.90625,1.1875 c -0.13953,0.10832 -0.27154,0.23058 -0.40625,0.34375 0.0199,-0.0813 0.0438,-0.16816 0.0625,-0.25 0.11541,-0.0309 0.22836,-0.0627 0.34375,-0.0937 z M 719.90625,773 c -0.26844,0.24786 -0.53705,0.48027 -0.8125,0.71875 -0.10623,-0.13629 -0.22689,-0.27587 -0.34375,-0.40625 0.38818,-0.0984 0.76812,-0.21172 1.15625,-0.3125 z m 2.78125,0.6875 c -0.72077,0.55945 -1.38637,1.17612 -2,1.84375 -0.0639,-0.0791 -0.11994,-0.17297 -0.1875,-0.25 0.14962,-0.36509 0.28119,-0.74782 0.40625,-1.125 0.59688,-0.15498 1.18475,-0.30802 1.78125,-0.46875 z m 0.875,1.15625 c -0.15936,0.12555 -0.31563,0.24316 -0.46875,0.375 0.0243,-0.0936 0.0398,-0.1869 0.0625,-0.28125 0.13373,-0.0356 0.27254,-0.0578 0.40625,-0.0937 z m -2.09375,0.5625 c -0.17496,0.15762 -0.3534,0.31501 -0.53125,0.46875 -0.0656,-0.0921 -0.11692,-0.19182 -0.1875,-0.28125 0.23847,-0.0605 0.4803,-0.12612 0.71875,-0.1875 z m 3,0.59375 c -0.66711,0.53182 -1.30036,1.09354 -1.875,1.71875 -0.0722,-0.10089 -0.17185,-0.18355 -0.25,-0.28125 0.13485,-0.3271 0.2598,-0.66319 0.375,-1 0.58044,-0.15028 1.16989,-0.2818 1.75,-0.4375 z m 0.875,1.0625 c -0.17245,0.13844 -0.33481,0.29175 -0.5,0.4375 0.0317,-0.11639 0.0645,-0.22625 0.0937,-0.34375 0.13375,-0.0356 0.27253,-0.0579 0.40625,-0.0937 z m -2.21875,0.59375 c -0.12244,0.10895 -0.25117,0.20542 -0.375,0.3125 -0.04,-0.0617 -0.0827,-0.12699 -0.125,-0.1875 0.16545,-0.042 0.33456,-0.0826 0.5,-0.125 z m 3.03125,0.5 c -0.64627,0.5264 -1.22154,1.10489 -1.78125,1.71875 -0.072,-0.11182 -0.13939,-0.23575 -0.21875,-0.34375 0.12659,-0.3069 0.26568,-0.62205 0.375,-0.9375 0.54536,-0.14105 1.07992,-0.29168 1.625,-0.4375 z m 0.875,1.03125 c -0.1045,0.0855 -0.21071,0.16182 -0.3125,0.25 0.0162,-0.062 0.0157,-0.12513 0.0312,-0.1875 0.0933,-0.0248 0.18797,-0.0376 0.28125,-0.0625 z m -2.125,0.5625 c -0.11538,0.10247 -0.22714,0.21169 -0.34375,0.3125 -0.0279,-0.0248 -0.0656,-0.0379 -0.0937,-0.0625 -0.0191,-0.0313 -0.0428,-0.0627 -0.0625,-0.0937 0.16962,-0.043 0.33039,-0.11285 0.5,-0.15625 z m 2.90625,0.46875 c -0.60996,0.50583 -1.18623,1.07216 -1.71875,1.65625 -0.0107,-0.009 -0.0205,-0.0218 -0.0312,-0.0312 -0.0316,-0.0519 -0.0605,-0.10515 -0.0937,-0.15625 0.14755,-0.35444 0.28184,-0.72787 0.40625,-1.09375 0.48143,-0.12469 0.95628,-0.2466 1.4375,-0.375 z m -0.9375,1.46875 c -0.16038,0.14422 -0.30595,0.29653 -0.46875,0.4375 -0.0899,-0.0856 -0.18745,-0.16693 -0.28125,-0.25 0.24817,-0.0629 0.50184,-0.12369 0.75,-0.1875 z m 2.4375,0.5625 c -0.54166,0.4619 -1.05132,0.9757 -1.53125,1.5 -0.0105,-0.01 -0.0207,-0.0218 -0.0312,-0.0312 0.16483,-0.39585 0.33288,-0.77737 0.46875,-1.1875 0.36595,-0.0951 0.72792,-0.18403 1.09375,-0.28125 z m -0.46875,1.28125 c -0.22299,0.20381 -0.45973,0.39634 -0.6875,0.59375 -0.11698,-0.11814 -0.21931,-0.23035 -0.34375,-0.34375 0.3406,-0.0863 0.69069,-0.16188 1.03125,-0.25 z m 1.9375,0.59375 c -0.3542,0.30685 -0.6739,0.63352 -1,0.96875 0.0955,-0.25889 0.19792,-0.51646 0.28125,-0.78125 0.24069,-0.0628 0.47811,-0.12375 0.71875,-0.1875 z M 731,785.15625 c -0.34887,0.32955 -0.7327,0.62421 -1.09375,0.9375 -0.11632,-0.12502 -0.25012,-0.2552 -0.375,-0.375 0.0305,-0.0737 0.0642,-0.14456 0.0937,-0.21875 0.45612,-0.11617 0.91898,-0.22431 1.375,-0.34375 z m 1.25,0.71875 c -0.14898,0.12985 -0.29385,0.27102 -0.4375,0.40625 0.0327,-0.10482 0.063,-0.20675 0.0937,-0.3125 0.11543,-0.0303 0.22833,-0.0632 0.34375,-0.0937 z m 0.625,0.90625 c -0.4482,0.39766 -0.87586,0.80904 -1.28125,1.25 -0.0971,-0.11157 -0.20835,-0.20502 -0.3125,-0.3125 0.0808,-0.1958 0.1762,-0.39448 0.25,-0.59375 0.44525,-0.11433 0.89863,-0.22627 1.34375,-0.34375 z m -1.15625,1.28125 c -0.0221,0.0193 -0.0404,0.0433 -0.0625,0.0625 -0.01,-0.0114 -0.0215,-0.0199 -0.0312,-0.0312 0.032,-0.008 0.0617,-0.0231 0.0937,-0.0312 z m 2.4375,0.375 c -0.36941,0.33351 -0.72277,0.69897 -1.0625,1.0625 0.11631,-0.29227 0.24307,-0.57506 0.34375,-0.875 0.23842,-0.0619 0.48037,-0.12475 0.71875,-0.1875 z m -0.0625,0.96875 c -0.24414,0.22431 -0.50009,0.43966 -0.75,0.65625 -0.10498,-0.13462 -0.22839,-0.24615 -0.34375,-0.375 0.36601,-0.0928 0.72779,-0.18635 1.09375,-0.28125 z m 1.84375,1.3125 c -0.37449,0.34433 -0.74932,0.68776 -1.09375,1.0625 -0.0399,-0.0512 -0.0835,-0.10586 -0.125,-0.15625 0.0883,-0.21525 0.17011,-0.43681 0.25,-0.65625 0.32422,-0.0834 0.6446,-0.16496 0.96875,-0.25 z m -0.59375,1 c -0.11538,0.10247 -0.22714,0.21169 -0.34375,0.3125 -0.0453,-0.0639 -0.0772,-0.1249 -0.125,-0.1875 0.15574,-0.0395 0.31301,-0.0851 0.46875,-0.125 z M 737.5,792.8125 c -0.33204,0.31307 -0.66031,0.63179 -0.96875,0.96875 -0.0417,-0.0609 -0.0811,-0.12776 -0.125,-0.1875 0.0762,-0.18483 0.14875,-0.37457 0.21875,-0.5625 0.28948,-0.0743 0.58557,-0.14314 0.875,-0.21875 z m -0.5625,0.90625 c -0.0947,0.0836 -0.18574,0.16751 -0.28125,0.25 -0.0318,-0.0502 -0.0604,-0.10688 -0.0937,-0.15625 0.12527,-0.0317 0.24974,-0.0618 0.375,-0.0937 z m 1.9375,0.96875 c -0.28909,0.27945 -0.5725,0.57748 -0.84375,0.875 0.1028,-0.24648 0.2208,-0.498 0.3125,-0.75 0.17513,-0.0451 0.35614,-0.0795 0.53125,-0.125 z m 0,0.6875 c -0.17482,0.15771 -0.35354,0.31491 -0.53125,0.46875 -0.0892,-0.0855 -0.18822,-0.16701 -0.28125,-0.25 0.27271,-0.0691 0.53981,-0.14854 0.8125,-0.21875 z m 1.53125,1.46875 c -0.20734,0.2061 -0.39569,0.44075 -0.59375,0.65625 -0.0317,-0.031 -0.0615,-0.0631 -0.0937,-0.0937 0.06,-0.14499 0.10008,-0.29061 0.15625,-0.4375 0.17518,-0.0448 0.35609,-0.0797 0.53125,-0.125 z m -0.1875,0.625 c -0.0827,0.073 -0.1667,0.14656 -0.25,0.21875 -0.0409,-0.0422 -0.0831,-0.0834 -0.125,-0.125 0.12409,-0.0315 0.25092,-0.062 0.375,-0.0937 z m 1.46875,1.125 c -0.0524,0.0531 -0.1045,0.10251 -0.15625,0.15625 0.0166,-0.0442 0.0462,-0.0807 0.0625,-0.125 0.0319,-0.008 0.0618,-0.023 0.0937,-0.0312 z M 741.96875,799 c -0.15121,0.15446 -0.32246,0.27805 -0.46875,0.4375 -0.0549,-0.0597 -0.0993,-0.12903 -0.15625,-0.1875 0.0179,-0.0435 0.0449,-0.0813 0.0625,-0.125 0.18538,-0.0471 0.37713,-0.0773 0.5625,-0.125 z m -0.3125,0.46875 c -0.0221,0.0193 -0.0404,0.0433 -0.0625,0.0625 -0.01,-0.0112 -0.0212,-0.0201 -0.0312,-0.0312 0.032,-0.008 0.0617,-0.0231 0.0937,-0.0312 z m 1.40625,1.3125 c 0.0197,-0.005 0.0428,0.005 0.0625,0 -0.0296,0.0311 -0.0644,0.0624 -0.0937,0.0937 0.0122,-0.0307 0.0193,-0.063 0.0312,-0.0937 z M 747,800.9375 c -0.74298,0.77939 -1.50686,1.52229 -2.3125,2.21875 -0.0579,-0.0784 -0.0947,-0.17354 -0.15625,-0.25 0.19839,-0.48189 0.37605,-0.96574 0.53125,-1.46875 0.64409,-0.16837 1.29392,-0.32487 1.9375,-0.5 z m -3.8125,0.0937 c -0.05,0.0533 -0.10675,0.1024 -0.15625,0.15625 -0.0283,-0.0328 -0.0648,-0.0613 -0.0937,-0.0937 0.0826,-0.021 0.16736,-0.0414 0.25,-0.0625 z m 0.15625,0.125 c -0.0564,0.0599 -0.10055,0.12692 -0.15625,0.1875 -0.0272,-0.0334 -0.0659,-0.0607 -0.0937,-0.0937 0.0855,-0.0217 0.16452,-0.072 0.25,-0.0937 z"
       id="path4419"
       inkscape:connector-curvature="0"
       clip-path="url(#clipPath5316)" /><path
       display="inline"
       d="m 197.13805,193.83313 c -3.58739,-7.93184 -5.1956,-17.18364 -2.45481,-25.58808 2.74004,-8.59258 8.87781,-15.48515 15.01558,-21.90664 17.0873,-17.09185 38.14583,-29.64959 54.85838,-47.022116 9.25255,-9.537784 16.89993,-20.962946 19.54286,-34.088873 2.17261,-9.630332 1.13486,-19.544378 -0.84735,-29.082162 8.87554,10.103694 11.80294,24.55033 9.25256,37.581433 -2.73701,14.634767 -10.86001,27.570288 -20.39552,38.711738 -7.64737,8.97187 -16.43036,16.90296 -25.58809,24.26965 -10.6696,8.59258 -21.14956,17.84513 -27.85248,29.93178 -5.6682,9.81847 -6.99043,21.90512 -3.11782,32.57548 6.32743,18.31698 21.0555,31.91475 29.08293,49.19321 -8.87781,-7.83778 -17.56294,-15.95775 -25.68595,-24.54881 -8.49472,-9.06518 -16.52214,-18.69475 -21.81029,-30.02661 z M 245.2935,179.4798 c -1.60442,15.01406 6.23032,29.17699 15.58073,40.31995 4.53032,5.00368 8.40217,11.14145 8.58955,18.12961 0.1904,9.34434 -5.09471,18.03477 -11.89777,24.16951 1.60746,-0.18661 2.74004,-1.60442 4.06226,-2.35922 10.19776,-6.51555 20.01547,-14.73035 25.0199,-25.96435 3.30519,-7.64889 2.55039,-16.71483 -1.79179,-23.7978 -5.10078,-8.30887 -11.80294,-15.67404 -15.76811,-24.73771 -2.17488,-5.0985 -2.92968,-11.04662 -1.13485,-16.42883 2.36226,-7.2696 7.46,-13.21924 12.84297,-18.41256 14.8229,-14.06734 32.76285,-24.08001 49.94877,-35.03105 -21.71775,6.23108 -43.15102,14.82442 -61.46876,28.32812 -11.61481,8.68665 -22.37696,20.77178 -23.9829,35.78433 z m 103.20576,71.0073 c 10.29258,0.56742 20.39248,8.11997 22.28289,18.50738 1.79483,8.97035 -2.54735,17.84513 -8.12073,24.64288 -9.16,10.95256 -21.53037,18.79109 -33.99025,25.49553 -1.23044,0.75177 -2.2682,1.69697 -3.21264,2.737 16.43035,-4.15557 32.85767,-10.38437 46.17325,-21.05549 7.36214,-6.13777 13.87769,-14.26078 15.2955,-23.98594 1.32223,-8.40217 -2.16958,-17.08957 -8.40293,-22.65991 -7.55558,-6.89561 -18.22215,-9.44296 -28.2333,-8.11998 -5.75999,0.7548 -12.08513,1.9822 -16.0503,6.79775 4.723,-0.94141 9.34586,-2.83183 14.25851,-2.35922 z m -204.99219,27.0021 c 12.36734,3.30518 25.11549,4.25039 37.76805,5.10077 11.33034,0.7548 22.66295,0.94521 34.08887,0.84963 29.45843,-0.46957 59.1065,-2.45481 87.99901,-8.87478 2.737,-0.65997 5.75999,-1.13258 8.21783,-2.83182 4.81479,-3.11782 10.09915,-5.57338 15.29475,-8.02819 -23.51258,3.77703 -47.11846,6.99043 -70.91172,8.50003 -24.07772,1.51036 -48.34586,2.45481 -72.51613,0.85038 -6.89257,-0.65997 -13.97555,-1.04003 -20.39552,-3.68524 -1.51263,-0.65997 -3.59042,-1.97917 -2.83562,-3.96516 1.41781,-2.54963 4.2504,-3.77552 6.7052,-5.09774 10.38817,-4.91037 21.71775,-7.64738 32.76589,-10.85774 -18.98075,-0.28523 -37.86591,4.52956 -55.23616,11.99031 -3.87261,1.88966 -8.21556,3.39926 -11.33034,6.61038 -1.23043,1.31919 -1.23043,3.58966 0.18738,4.71996 2.83334,2.54963 6.6081,3.68221 10.19851,4.71921 z m 152.96564,25.96889 c -16.52518,2.92741 -33.14595,5.66821 -49.85926,6.51556 -18.31773,1.2274 -36.63546,0.18737 -54.76355,-1.70001 -3.49256,-0.4726 -6.9874,-1.03775 -10.10218,-2.64218 -1.60518,-0.9452 -3.2096,-2.4548 -3.11478,-4.4408 0.18737,-3.11478 2.82955,-5.28511 4.71996,-7.55255 -5.85254,2.07779 -11.70811,4.24736 -16.61772,8.12301 -2.08006,1.60519 -4.15557,4.15254 -3.59042,6.98512 0.85341,3.30443 4.06302,5.28739 6.8956,6.79699 6.98512,3.59042 14.8229,5.19333 22.47331,6.61038 19.35245,3.11781 39.088,3.21264 58.53831,1.88738 20.58896,-1.60443 41.07627,-5.00216 60.99918,-10.85774 -5.66517,-2.54735 -11.04814,-5.4778 -15.57845,-9.72516 z m -103.77243,32.67334 c -5.28739,1.5096 -10.67036,3.30519 -15.01254,6.79472 -2.17565,1.7 -3.87262,4.63045 -2.83259,7.36821 1.32223,3.49256 4.62742,5.57338 7.73992,7.36214 8.12301,4.4408 17.28074,6.51555 26.25034,8.12301 20.30373,3.20808 41.16881,2.737 61.3762,-0.84963 11.99031,-2.26743 23.9829,-5.47779 35.12359,-10.47995 -7.27035,-3.02224 -14.35029,-6.42301 -21.14804,-10.38741 -11.80294,2.07703 -23.70298,4.25039 -35.78888,5.00519 -15.95472,1.2274 -32.10287,-0.0948 -48.06063,-2.07702 -3.77779,-0.85039 -8.49775,-1.22741 -11.04738,-4.53335 -1.31919,-2.7408 1.70076,-4.72376 3.40001,-6.32591 z m 129.17086,60.71092 c 13.21772,-2.73396 26.53329,-5.85557 38.61843,-11.99031 3.77476,-2.17489 8.40217,-4.53563 9.63261,-9.06518 0.65997,-4.34294 -3.87262,-6.61038 -7.08298,-8.40521 1.9822,2.27047 3.30443,5.57338 1.31995,8.21556 -3.30519,4.44004 -8.96732,6.13777 -13.97327,7.83778 -15.67252,4.43776 -31.91551,6.23259 -48.06063,8.02742 -42.77324,3.87034 -85.83171,4.81555 -128.60268,1.22741 -14.35257,-1.51264 -28.99113,-3.11706 -42.68145,-8.2148 -2.16957,-0.94521 -5.47476,-1.89041 -5.47476,-4.81858 0.84735,-2.54432 3.30519,-3.96516 5.47476,-5.19257 9.81998,-5.00291 20.7733,-7.74295 31.72586,-8.40293 -3.20733,-1.88965 -6.98512,-2.07702 -10.66733,-1.9822 -9.16076,0.28296 -18.13036,2.64218 -26.81549,5.57338 -7.46,2.73397 -15.10813,5.75772 -21.05852,11.23551 -2.35999,2.07476 -4.529561,6.03992 -2.07779,8.87478 3.77779,4.06074 9.63337,5.09774 14.8229,6.32514 29.08292,5.00596 58.54134,7.83475 88.00508,8.87478 39.09103,1.13637 78.46426,-0.5644 116.89531,-8.11998 z m 38.71325,5.10078 c -17.75258,5.66517 -36.16362,8.77995 -54.48363,11.33034 -31.63027,3.96516 -63.54654,5.19256 -95.36722,4.25039 -19.35548,-0.7548 -38.71097,-2.07703 -57.78654,-5.29042 4.43777,3.02223 9.91556,3.96516 15.01558,5.38297 21.43555,4.53335 43.43321,5.38297 65.24654,6.04295 32.00502,0.56742 64.01535,-0.65998 95.55384,-5.66517 14.92075,-2.6399 29.9333,-5.85254 43.33839,-12.8407 6.99043,-3.68221 14.07341,-9.35041 15.2955,-17.56293 -7.07919,7.55179 -17.27467,11.04738 -26.81246,14.35257 z"
       id="path5"
       style="fill:#ffffff;display:inline"
       inkscape:connector-curvature="0"
       clip-path="url(#clipPath5312)" /><path
       inkscape:connector-curvature="0"
       style="fill:#000000;display:inline"
       id="path3782"
       d="m 615.13805,673.83313 c -3.58739,-7.93185 -5.1956,-17.18364 -2.45481,-25.58809 2.74004,-8.59258 8.87781,-15.48515 15.01558,-21.90663 17.0873,-17.09185 38.14583,-29.64959 54.85838,-47.02212 9.25255,-9.53778 16.89992,-20.96295 19.54286,-34.08887 2.17261,-9.63033 1.13485,-19.54438 -0.84735,-29.08216 8.87553,10.10369 11.80294,24.55033 9.25255,37.58143 -2.737,14.63477 -10.86001,27.57029 -20.39551,38.71173 -7.64738,8.97188 -16.43036,16.90296 -25.58809,24.26966 -10.6696,8.59257 -21.14956,17.84513 -27.85248,29.93178 -5.66821,9.81846 -6.99043,21.90512 -3.11782,32.57548 6.32742,18.31698 21.0555,31.91475 29.08292,49.19321 -8.87781,-7.83778 -17.56293,-15.95775 -25.68594,-24.54881 -8.49472,-9.06518 -16.52215,-18.69476 -21.81029,-30.02661 z M 663.2935,659.4798 c -1.60442,15.01406 6.23032,29.17698 15.58073,40.31995 4.53032,5.00368 8.40217,11.14145 8.58955,18.1296 0.1904,9.34434 -5.09471,18.03478 -11.89777,24.16952 1.60746,-0.18662 2.74004,-1.60442 4.06226,-2.35922 10.19776,-6.51556 20.01547,-14.73035 25.0199,-25.96435 3.30519,-7.64889 2.55039,-16.71483 -1.79179,-23.79781 -5.10078,-8.30886 -11.80294,-15.67404 -15.76811,-24.7377 -2.17488,-5.0985 -2.92968,-11.04662 -1.13485,-16.42884 2.36225,-7.26959 7.46,-13.21923 12.84297,-18.41256 14.8229,-14.06734 32.76285,-24.08 49.94877,-35.03104 -21.71775,6.23108 -43.15102,14.82442 -61.46876,28.32812 -11.61481,8.68664 -22.37696,20.77178 -23.9829,35.78433 z m 103.20576,71.00729 c 10.29258,0.56743 20.39248,8.11998 22.28289,18.50738 1.79483,8.97036 -2.54735,17.84514 -8.12073,24.64288 -9.16001,10.95256 -21.53037,18.7911 -33.99026,25.49554 -1.23043,0.75176 -2.26819,1.69697 -3.21264,2.737 16.43036,-4.15557 32.85768,-10.38437 46.17326,-21.05549 7.36214,-6.13778 13.87769,-14.26078 15.2955,-23.98594 1.32222,-8.40217 -2.16958,-17.08957 -8.40293,-22.65992 -7.55558,-6.8956 -18.22215,-9.44296 -28.2333,-8.11997 -5.75999,0.7548 -12.08514,1.9822 -16.0503,6.79775 4.723,-0.94142 9.34586,-2.83183 14.25851,-2.35923 z m -204.99219,27.0021 c 12.36734,3.30519 25.11548,4.2504 37.76805,5.10078 11.33034,0.7548 22.66295,0.94521 34.08887,0.84962 29.45842,-0.46957 59.1065,-2.4548 87.99901,-8.87477 2.737,-0.65998 5.75999,-1.13258 8.21783,-2.83183 4.81479,-3.11781 10.09914,-5.57338 15.29475,-8.02818 -23.51258,3.77703 -47.11846,6.99043 -70.91172,8.50003 -24.07772,1.51036 -48.34586,2.4548 -72.51613,0.85038 -6.89257,-0.65997 -13.97555,-1.04003 -20.39552,-3.68524 -1.51264,-0.65998 -3.59042,-1.97917 -2.83562,-3.96517 1.41781,-2.54962 4.25039,-3.77551 6.7052,-5.09774 10.38816,-4.91037 21.71774,-7.64737 32.76589,-10.85773 -18.98075,-0.28523 -37.86591,4.52955 -55.23616,11.99031 -3.87262,1.88966 -8.21556,3.39925 -11.33034,6.61038 -1.23044,1.31919 -1.23044,3.58966 0.18737,4.71996 2.83335,2.54963 6.6081,3.68221 10.19852,4.7192 z m 152.96563,25.9689 c -16.52518,2.92741 -33.14594,5.66821 -49.85925,6.51555 -18.31773,1.22741 -36.63547,0.18738 -54.76355,-1.7 -3.49256,-0.47261 -6.9874,-1.03776 -10.10218,-2.64218 -1.60518,-0.94521 -3.2096,-2.45481 -3.11478,-4.4408 0.18737,-3.11478 2.82955,-5.28512 4.71996,-7.55255 -5.85254,2.07779 -11.70811,4.24736 -16.61773,8.12301 -2.08006,1.60518 -4.15557,4.15254 -3.59041,6.98512 0.85341,3.30443 4.06302,5.28739 6.8956,6.79699 6.98512,3.59042 14.8229,5.19332 22.47331,6.61037 19.35245,3.11782 39.08799,3.21264 58.53831,1.88738 20.58896,-1.60442 41.07626,-5.00216 60.99918,-10.85773 -5.66517,-2.54736 -11.04814,-5.4778 -15.57846,-9.72516 z m -103.77242,32.67334 c -5.28739,1.5096 -10.67036,3.30519 -15.01255,6.79471 -2.17564,1.70001 -3.87261,4.63045 -2.83258,7.36821 1.32223,3.49256 4.62741,5.57338 7.73992,7.36214 8.12301,4.4408 17.28074,6.51556 26.25033,8.12301 20.30373,3.20809 41.16882,2.737 61.37621,-0.84962 11.99031,-2.26743 23.9829,-5.4778 35.12359,-10.47996 -7.27035,-3.02223 -14.35029,-6.423 -21.14804,-10.3874 -11.80294,2.07702 -23.70298,4.25039 -35.78888,5.00519 -15.95472,1.2274 -32.10288,-0.0948 -48.06063,-2.07703 -3.77779,-0.85038 -8.49775,-1.2274 -11.04738,-4.53335 -1.31919,-2.74079 1.70076,-4.72375 3.40001,-6.3259 z m 129.17086,60.71092 c 13.21772,-2.73397 26.53329,-5.85558 38.61843,-11.99031 3.77476,-2.17489 8.40217,-4.53563 9.63261,-9.06518 0.65997,-4.34295 -3.87262,-6.61038 -7.08298,-8.40521 1.9822,2.27047 3.30443,5.57338 1.31995,8.21556 -3.30519,4.44004 -8.96732,6.13777 -13.97328,7.83778 -15.67252,4.43776 -31.9155,6.23259 -48.06062,8.02742 -42.77324,3.87034 -85.83172,4.81555 -128.60268,1.2274 -14.35257,-1.51263 -28.99113,-3.11705 -42.68145,-8.21479 -2.16957,-0.94521 -5.47476,-1.89042 -5.47476,-4.81858 0.84735,-2.54432 3.30519,-3.96517 5.47476,-5.19257 9.81998,-5.00292 20.7733,-7.74295 31.72586,-8.40293 -3.20733,-1.88965 -6.98512,-2.07703 -10.66733,-1.9822 -9.16076,0.28295 -18.13036,2.64218 -26.81549,5.57338 -7.46,2.73397 -15.10813,5.75771 -21.05853,11.23551 -2.35998,2.07475 -4.52955,6.03992 -2.07778,8.87478 3.77779,4.06074 9.63336,5.09774 14.8229,6.32514 29.08292,5.00595 58.54134,7.83474 88.00507,8.87477 39.09104,1.13638 78.46426,-0.56439 116.89532,-8.11997 z m 38.71325,5.10078 c -17.75258,5.66516 -36.16362,8.77995 -54.48363,11.33033 -31.63027,3.96517 -63.54654,5.19257 -95.36722,4.2504 -19.35549,-0.7548 -38.71098,-2.07703 -57.78654,-5.29043 4.43776,3.02224 9.91556,3.96517 15.01558,5.38298 21.43555,4.53335 43.43321,5.38297 65.24654,6.04294 32.00502,0.56743 64.01535,-0.65997 95.55383,-5.66516 14.92076,-2.63991 29.93331,-5.85255 43.33839,-12.8407 6.99043,-3.68221 14.07341,-9.35041 15.29551,-17.56293 -7.07919,7.55178 -17.27467,11.04738 -26.81246,14.35257 z"
       display="inline"
       clip-path="url(#clipPath5308)" /></g></svg>