<?xml version="1.0" encoding="UTF-8" standalone="no"?>
<svg
   xmlns:dc="http://purl.org/dc/elements/1.1/"
   xmlns:cc="http://creativecommons.org/ns#"
   xmlns:rdf="http://www.w3.org/1999/02/22-rdf-syntax-ns#"
   xmlns:svg="http://www.w3.org/2000/svg"
   xmlns="http://www.w3.org/2000/svg"
   xmlns:xlink="http://www.w3.org/1999/xlink"
   xmlns:sodipodi="http://sodipodi.sourceforge.net/DTD/sodipodi-0.dtd"
   xmlns:inkscape="http://www.inkscape.org/namespaces/inkscape"
   version="1.1"
   x="0px"
   y="0px"
   width="512px"
   height="512px"
   viewBox="0 0 512 512"
   enable-background="new 0 0 512 512"
   xml:space="preserve"
   id="svg2"
   inkscape:version="0.48.5 r10040"
   sodipodi:docname="prog-js02.svg"><sodipodi:namedview
     pagecolor="#ffffff"
     bordercolor="#666666"
     borderopacity="1"
     objecttolerance="10"
     gridtolerance="10"
     guidetolerance="10"
     inkscape:pageopacity="0"
     inkscape:pageshadow="2"
     inkscape:window-width="1920"
     inkscape:window-height="1017"
     id="namedview7"
     showgrid="false"
     inkscape:zoom="0.4609375"
     inkscape:cx="97.667738"
     inkscape:cy="276.81311"
     inkscape:window-x="-8"
     inkscape:window-y="-8"
     inkscape:window-maximized="1"
     inkscape:current-layer="layer1" /><metadata
     id="metadata11"><rdf:RDF><cc:Work
         rdf:about=""><dc:format>image/svg+xml</dc:format><dc:type
           rdf:resource="http://purl.org/dc/dcmitype/StillImage" /></cc:Work></rdf:RDF></metadata><defs
     id="defs9"><linearGradient
       inkscape:collect="always"
       id="linearGradient4613"><stop
         style="stop-color:#000000;stop-opacity:1;"
         offset="0"
         id="stop4615" /><stop
         style="stop-color:#000000;stop-opacity:0;"
         offset="1"
         id="stop4617" /></linearGradient><linearGradient
       inkscape:collect="always"
       xlink:href="#linearGradient4613"
       id="linearGradient4619"
       x1="379.60349"
       y1="364.41702"
       x2="747.72144"
       y2="732.53497"
       gradientUnits="userSpaceOnUse" /><clipPath
       clipPathUnits="userSpaceOnUse"
       id="clipPath4624"><rect
         style="fill:#faeb00;fill-opacity:1;stroke:none;display:inline"
         id="rect4626"
         width="512"
         height="512"
         x="0"
         y="0" /></clipPath><clipPath
       clipPathUnits="userSpaceOnUse"
       id="clipPath4628"><rect
         style="fill:#faeb00;fill-opacity:1;stroke:none;display:inline"
         id="rect4630"
         width="512"
         height="512"
         x="0"
         y="0" /></clipPath><clipPath
       clipPathUnits="userSpaceOnUse"
       id="clipPath4632"><rect
         style="fill:#faeb00;fill-opacity:1;stroke:none;display:inline"
         id="rect4634"
         width="512"
         height="512"
         x="0"
         y="0" /></clipPath></defs><g
     style="display:inline"
     inkscape:label="Background"
     id="layer1"
     inkscape:groupmode="layer"><rect
       y="0"
       x="0"
       height="512"
       width="512"
       id="rect3001"
       style="fill:#faeb00;fill-opacity:1;stroke:none" /></g><g
     style="display:inline"
     inkscape:label="Icon"
     id="layer2"
     inkscape:groupmode="layer"><path
       style="display:inline;fill-opacity:1;fill:url(#linearGradient4619);opacity:0.3"
       d="M 358.90625 123.78125 C 357.63842 123.7845 356.33552 123.80201 355.03125 123.84375 C 332.05125 124.578 314.79425 131.82925 301.90625 142.65625 C 291.9058 151.05505 283.72762 162.16959 280.03125 176.96875 L 277.71875 176.96875 C 277.71877 175.80642 277.71873 174.4354 277.71875 173.28125 L 273.96875 173.28125 C 273.96877 172.09908 273.96873 170.70497 273.96875 169.53125 L 270.21875 169.53125 C 270.21877 168.34908 270.21873 166.95497 270.21875 165.78125 L 266.46875 165.78125 C 266.46877 164.58916 266.46873 163.1835 266.46875 162 L 262.65625 162 C 262.65627 160.80791 262.65623 159.40225 262.65625 158.21875 L 258.84375 158.21875 C 258.84377 157.01674 258.84373 155.59953 258.84375 154.40625 L 255.03125 154.40625 C 255.03127 153.20424 255.03123 151.78703 255.03125 150.59375 L 251.15625 150.59375 C 251.15627 149.37189 251.15623 147.93159 251.15625 146.71875 L 247.3125 146.71875 C 247.31252 145.49689 247.31248 144.05659 247.3125 142.84375 L 243.40625 142.84375 C 243.40627 141.62189 243.40623 140.18159 243.40625 138.96875 L 239.5 138.96875 C 239.50002 137.73697 239.49998 136.28512 239.5 135.0625 L 235.5625 135.0625 C 235.56252 133.82079 235.56248 132.3574 235.5625 131.125 L 231.625 131.125 C 231.62502 129.88329 231.62498 128.4199 231.625 127.1875 L 177.9375 127.1875 C 177.2948 127.28275 177.3278 128.06075 177.375 128.84375 L 177.375 288.21875 C 177.375 313.3415 179.114 336.49 164.09375 344.125 C 154.6388 348.92713 145.60974 348.70496 137.78125 345.59375 C 137.33731 344.60274 136.94537 343.60829 136.59375 342.625 C 136.01031 342.95951 135.42635 343.28963 134.84375 343.625 C 134.02458 342.00522 133.29431 340.39075 132.71875 338.78125 C 132.14244 339.11167 131.57549 339.44999 131 339.78125 C 130.17261 338.14898 129.45504 336.5283 128.875 334.90625 C 128.28041 335.24715 127.68746 335.5957 127.09375 335.9375 C 126.26086 334.29691 125.55178 332.66166 124.96875 331.03125 C 124.37223 331.37326 123.78314 331.71959 123.1875 332.0625 C 122.34928 330.41384 121.64843 328.73226 121.0625 327.09375 C 120.46669 327.43535 119.87618 327.7825 119.28125 328.125 C 118.44015 326.472 117.71249 324.83037 117.125 323.1875 C 116.52848 323.52951 115.93939 323.87584 115.34375 324.21875 C 114.4973 322.55769 113.77789 320.86972 113.1875 319.21875 C 97.945252 327.95775 82.97775 336.9995 68.34375 346.34375 C 73.897681 356.90849 80.604385 366.39179 88.96875 374.1875 C 90.173064 375.4684 91.406826 376.70304 92.6875 377.90625 C 93.987923 379.2987 95.328736 380.63618 96.71875 381.9375 C 97.988196 383.29128 99.301705 384.6078 100.65625 385.875 C 101.92538 387.2262 103.23965 388.54776 104.59375 389.8125 C 105.75828 391.04983 106.95167 392.27269 108.1875 393.4375 C 109.51286 394.85712 110.89401 396.20636 112.3125 397.53125 C 113.4957 398.78716 114.71196 400.00645 115.96875 401.1875 C 117.14849 402.44607 118.37187 403.65981 119.625 404.84375 C 120.93355 406.24585 122.28818 407.59647 123.6875 408.90625 C 124.86055 410.15138 126.06714 411.35969 127.3125 412.53125 C 128.50538 413.80255 129.73212 415.05498 131 416.25 C 132.23157 417.56402 133.50087 418.82992 134.8125 420.0625 C 135.9552 421.27773 137.13239 422.44835 138.34375 423.59375 C 139.64354 424.98318 140.98581 426.32653 142.375 427.625 C 143.53272 428.84826 144.74082 430.03569 145.96875 431.1875 C 147.10251 432.3885 148.26758 433.55508 149.46875 434.6875 C 150.67811 435.97376 151.93238 437.22958 153.21875 438.4375 C 154.34235 439.62773 155.49771 440.78336 156.6875 441.90625 C 157.84903 443.14164 159.04875 444.33679 160.28125 445.5 C 161.47109 446.76423 162.70444 447.99903 163.96875 449.1875 C 165.07267 450.3557 166.20726 451.49048 167.375 452.59375 C 168.48914 453.77754 169.63317 454.94501 170.8125 456.0625 C 171.9744 457.29967 173.17328 458.49136 174.40625 459.65625 C 175.50596 460.82354 176.64933 461.9285 177.8125 463.03125 C 179.0307 464.32775 180.26611 465.59554 181.5625 466.8125 C 182.64601 467.95388 183.76145 469.07724 184.90625 470.15625 C 185.92742 471.23523 186.98686 472.28893 188.0625 473.3125 C 189.25047 474.57856 190.48766 475.77833 191.75 476.96875 C 192.8425 478.12253 193.97009 479.25348 195.125 480.34375 C 196.15167 481.42801 197.19953 482.50298 198.28125 483.53125 C 199.40379 484.72408 200.56127 485.87449 201.75 487 C 202.76996 488.07927 203.8319 489.10104 204.90625 490.125 C 206.06008 491.35285 207.24487 492.53089 208.46875 493.6875 C 209.50331 494.77899 210.56581 495.84035 211.65625 496.875 C 212.75269 498.03529 213.87185 499.15375 215.03125 500.25 C 216.0084 501.27988 217.00434 502.30198 218.03125 503.28125 C 219.09141 504.40665 220.19341 505.49702 221.3125 506.5625 C 222.44699 507.76436 223.61051 508.92931 224.8125 510.0625 C 225.71236 511.00658 226.65188 511.91115 227.59375 512.8125 C 228.65844 513.94446 229.75082 515.05353 230.875 516.125 C 231.94669 517.25918 233.05569 518.36447 234.1875 519.4375 C 235.20069 520.50372 236.24583 521.55069 237.3125 522.5625 C 238.28707 523.58808 239.28849 524.58722 240.3125 525.5625 C 241.27353 526.57691 242.27206 527.56581 243.28125 528.53125 C 244.29195 529.60197 245.34211 530.63986 246.40625 531.65625 C 247.49106 532.80315 248.60361 533.91574 249.75 535 C 250.63891 535.93069 251.53891 536.8297 252.46875 537.71875 C 253.41405 538.71809 254.38308 539.67307 255.375 540.625 C 256.42978 541.74346 257.51193 542.81581 258.625 543.875 C 259.5474 544.8447 260.47088 545.79402 261.4375 546.71875 C 262.41603 547.75167 263.44028 548.73662 264.46875 549.71875 C 265.46196 550.76453 266.48665 551.78775 267.53125 552.78125 C 268.45523 553.74965 269.40673 554.70165 270.375 555.625 C 271.28947 556.58539 272.2296 557.52128 273.1875 558.4375 C 274.06903 559.36517 274.98434 560.26964 275.90625 561.15625 C 276.86215 562.16686 277.84016 563.16287 278.84375 564.125 C 279.88449 565.22136 280.96527 566.27362 282.0625 567.3125 C 282.80749 568.08776 283.5702 568.84754 284.34375 569.59375 C 285.31611 570.62281 286.322 571.61491 287.34375 572.59375 C 288.36057 573.6622 289.39811 574.70506 290.46875 575.71875 C 291.18384 576.46138 291.9149 577.19034 292.65625 577.90625 C 293.67796 578.98643 294.73624 580.0378 295.8125 581.0625 C 296.5513 581.83289 297.29558 582.60196 298.0625 583.34375 C 299.04273 584.38051 300.06334 585.35801 301.09375 586.34375 C 301.87126 587.15698 302.66002 587.96852 303.46875 588.75 C 304.42978 589.76441 305.42831 590.72206 306.4375 591.6875 C 307.29672 592.58528 308.16511 593.4848 309.0625 594.34375 C 309.80571 595.11992 310.57206 595.8778 311.34375 596.625 C 312.29413 597.62811 313.28379 598.57602 314.28125 599.53125 C 315.08633 600.37161 315.91146 601.19367 316.75 602 C 317.51199 602.79782 318.30175 603.57644 319.09375 604.34375 C 319.99118 605.2896 320.90442 606.22175 321.84375 607.125 C 322.59063 607.90618 323.34932 608.65434 324.125 609.40625 C 325.0515 610.38223 325.99758 611.31945 326.96875 612.25 C 327.73911 613.05207 328.54283 613.82277 329.34375 614.59375 C 330.14835 615.43446 330.97446 616.2558 331.8125 617.0625 C 332.52481 617.80603 333.26154 618.53305 334 619.25 C 334.83659 620.12997 335.68959 621.0007 336.5625 621.84375 C 337.46208 622.78466 338.40227 623.69547 339.34375 624.59375 C 339.94203 625.21191 340.53968 625.83794 341.15625 626.4375 C 342.10435 627.43424 343.09891 628.39456 344.09375 629.34375 C 344.67225 629.94086 345.24817 630.54526 345.84375 631.125 C 346.73564 632.0626 347.66054 632.94817 348.59375 633.84375 C 349.20133 634.47344 349.81103 635.10828 350.4375 635.71875 C 351.32963 636.65662 352.25404 637.54167 353.1875 638.4375 C 353.87305 639.14727 354.57163 639.84598 355.28125 640.53125 C 356.12152 641.40562 356.96708 642.25642 357.84375 643.09375 C 358.37155 643.63685 358.89553 644.19007 359.4375 644.71875 C 360.23931 645.55997 361.07115 646.38012 361.90625 647.1875 C 362.73727 648.0514 363.60216 648.89105 364.46875 649.71875 C 365.12537 650.39303 365.79016 651.06683 366.46875 651.71875 C 367.13496 652.40639 367.8111 653.08545 368.5 653.75 C 369.06711 654.33715 369.6352 654.92956 370.21875 655.5 C 371.06278 656.38461 371.93157 657.24666 372.8125 658.09375 C 373.32831 658.62554 373.84564 659.13824 374.375 659.65625 C 375.31629 660.64279 376.29398 661.59148 377.28125 662.53125 C 377.85789 663.11915 378.43777 663.7105 379.03125 664.28125 C 379.49758 664.7611 379.96012 665.25014 380.4375 665.71875 C 380.44763 665.72938 380.45861 665.73937 380.46875 665.75 C 380.48974 665.77058 380.51024 665.79194 380.53125 665.8125 C 381.34925 666.66807 382.17867 667.49211 383.03125 668.3125 C 383.68221 668.98199 384.35868 669.63375 385.03125 670.28125 C 385.46706 670.72923 385.8983 671.18682 386.34375 671.625 C 386.35395 671.63571 386.36479 671.64555 386.375 671.65625 C 386.41694 671.69746 386.45797 671.74012 386.5 671.78125 C 387.30508 672.62161 388.13021 673.44367 388.96875 674.25 C 389.43419 674.72739 389.89857 675.19004 390.375 675.65625 C 391.25758 676.57657 392.17093 677.46438 393.09375 678.34375 C 393.58467 678.8422 394.05942 679.35767 394.5625 679.84375 C 395.17336 680.472 395.80763 681.07859 396.4375 681.6875 C 396.81686 682.07746 397.20709 682.46121 397.59375 682.84375 C 397.61947 682.87078 397.63049 682.91051 397.65625 682.9375 C 397.73996 683.0201 397.8222 683.10525 397.90625 683.1875 C 398.59963 683.90831 399.31318 684.6168 400.03125 685.3125 C 400.73831 686.04006 401.45491 686.76717 402.1875 687.46875 C 402.56893 687.85663 402.95499 688.24458 403.34375 688.625 C 404.12954 689.44022 404.93247 690.24832 405.75 691.03125 C 406.12132 691.40845 406.49675 691.78611 406.875 692.15625 C 407.57883 692.88563 408.30202 693.57771 409.03125 694.28125 C 409.28836 694.54392 409.55206 694.80321 409.8125 695.0625 C 409.85788 695.11028 409.89201 695.17108 409.9375 695.21875 C 410.0628 695.34291 410.18642 695.47038 410.3125 695.59375 C 410.95012 696.25384 411.59157 696.89233 412.25 697.53125 C 412.81269 698.10868 413.35871 698.68894 413.9375 699.25 C 414.59501 699.92345 415.28925 700.56769 415.96875 701.21875 C 416.07207 701.32333 416.1774 701.42722 416.28125 701.53125 C 416.35775 701.61205 416.4232 701.70075 416.5 701.78125 C 416.65638 701.93669 416.81116 702.09579 416.96875 702.25 C 417.58279 702.88379 418.21045 703.51079 418.84375 704.125 C 419.48106 704.77676 420.12331 705.43175 420.78125 706.0625 C 421.10182 706.38648 421.42428 706.71252 421.75 707.03125 C 422.45671 707.7592 423.17402 708.48553 423.90625 709.1875 C 424.02717 709.31578 424.15958 709.43498 424.28125 709.5625 C 424.46864 709.74934 424.65462 709.93993 424.84375 710.125 C 425.46238 710.76147 426.08062 711.38338 426.71875 712 C 427.09007 712.3772 427.4655 712.75486 427.84375 713.125 C 428.44736 713.74538 429.06534 714.336 429.6875 714.9375 C 430.14727 715.40432 430.59208 715.88778 431.0625 716.34375 C 431.53734 716.82661 432.01379 717.30997 432.5 717.78125 C 432.98999 718.27901 433.4979 718.76457 434 719.25 C 434.1109 719.36754 434.23222 719.47685 434.34375 719.59375 C 434.66653 719.9171 434.98453 720.24444 435.3125 720.5625 C 435.43862 720.69636 435.56057 720.83571 435.6875 720.96875 C 435.9263 721.2081 436.16461 721.45104 436.40625 721.6875 C 436.96444 722.25884 437.51974 722.81975 438.09375 723.375 C 438.53308 723.81946 438.98847 724.25292 439.4375 724.6875 C 439.50387 724.75752 439.55841 724.83645 439.625 724.90625 C 439.88429 725.16667 440.14361 725.43049 440.40625 725.6875 C 440.90502 726.19706 441.39489 726.72201 441.90625 727.21875 C 442.36574 727.68457 442.84238 728.13876 443.3125 728.59375 C 443.34287 728.62568 443.37583 728.65562 443.40625 728.6875 C 443.45404 728.73361 443.5146 728.76651 443.5625 728.8125 C 443.79623 729.04665 444.01355 729.29987 444.25 729.53125 C 444.37092 729.65953 444.50333 729.77873 444.625 729.90625 C 444.90689 730.19002 445.18289 730.47027 445.46875 730.75 C 445.58042 730.86835 445.70019 730.97604 445.8125 731.09375 C 446.10467 731.38818 446.39106 731.67866 446.6875 731.96875 C 446.78837 732.07555 446.89861 732.17498 447 732.28125 C 447.43493 732.71967 447.86809 733.16499 448.3125 733.59375 C 448.56346 733.84559 448.80841 734.0951 449.0625 734.34375 C 449.66188 734.95358 450.25744 735.56493 450.875 736.15625 C 451.04174 736.32216 451.20689 736.49174 451.375 736.65625 C 451.91683 737.20639 452.4746 737.7462 453.03125 738.28125 C 453.22383 738.47337 453.39933 738.68475 453.59375 738.875 C 453.61401 738.89628 453.63597 738.91625 453.65625 738.9375 C 453.98947 739.2747 454.31746 739.60597 454.65625 739.9375 C 454.66645 739.94821 454.67729 739.95805 454.6875 739.96875 C 455.03096 740.31667 455.36937 740.65811 455.71875 741 C 456.23513 741.52322 456.75143 742.05296 457.28125 742.5625 C 457.53132 742.81133 457.77808 743.06683 458.03125 743.3125 C 458.28033 743.56241 458.52908 743.81574 458.78125 744.0625 C 459.24651 744.53295 459.71135 745.00938 460.1875 745.46875 C 460.36591 745.64648 460.53877 745.82388 460.71875 746 C 461.03147 746.31579 461.33863 746.62669 461.65625 746.9375 C 462.41072 747.72182 463.18501 748.49546 463.96875 749.25 C 463.97888 749.26063 463.98986 749.27062 464 749.28125 C 464.12531 749.40542 464.24892 749.53287 464.375 749.65625 C 464.76959 750.0536 465.16011 750.45435 465.5625 750.84375 C 465.58276 750.86503 465.60472 750.885 465.625 750.90625 C 465.66758 750.94737 465.70733 750.99022 465.75 751.03125 C 465.85533 751.13541 465.95663 751.24015 466.0625 751.34375 C 466.1734 751.46129 466.29472 751.5706 466.40625 751.6875 C 466.67191 751.95171 466.91834 752.23936 467.1875 752.5 C 467.35029 752.66192 467.5234 752.80817 467.6875 752.96875 C 467.75871 753.04392 467.83478 753.1126 467.90625 753.1875 C 468.09512 753.37585 468.27811 753.56345 468.46875 753.75 C 468.51967 753.80364 468.57395 753.85275 468.625 753.90625 C 468.68165 753.96424 468.72444 754.03592 468.78125 754.09375 C 468.95959 754.27085 469.13259 754.4495 469.3125 754.625 C 469.57803 754.89058 469.85597 755.14424 470.125 755.40625 C 470.44769 755.72817 470.76588 756.05835 471.09375 756.375 C 471.25587 756.53531 471.43034 756.68476 471.59375 756.84375 C 471.62434 756.87555 471.65687 756.90575 471.6875 756.9375 C 471.77833 757.03357 471.87749 757.12311 471.96875 757.21875 C 472.01607 757.26528 472.04632 757.32859 472.09375 757.375 C 472.35522 757.63657 472.61013 757.89814 472.875 758.15625 C 473.09401 758.3744 473.30987 758.59678 473.53125 758.8125 C 473.73995 759.02016 473.94539 759.23203 474.15625 759.4375 C 474.18662 759.46943 474.21958 759.49937 474.25 759.53125 C 474.4275 759.70713 474.6022 759.8882 474.78125 760.0625 C 474.92729 760.20752 475.07165 760.35606 475.21875 760.5 C 475.23885 760.5211 475.26113 760.54142 475.28125 760.5625 C 475.2979 760.57843 475.32709 760.57783 475.34375 760.59375 C 475.39499 760.64648 475.44863 760.69741 475.5 760.75 C 475.59083 760.84607 475.68999 760.93561 475.78125 761.03125 C 475.78677 761.03665 475.77573 761.0571 475.78125 761.0625 C 476.0013 761.28171 476.21505 761.50198 476.4375 761.71875 C 476.56997 761.8566 476.71039 761.98805 476.84375 762.125 C 476.92509 762.21095 477.01207 762.2894 477.09375 762.375 C 477.1781 762.45824 477.25905 762.54212 477.34375 762.625 C 477.39467 762.67864 477.44895 762.72775 477.5 762.78125 C 477.56222 762.84378 477.62509 762.90642 477.6875 762.96875 C 477.70292 762.9846 477.70332 763.01541 477.71875 763.03125 C 477.77656 763.088 477.84828 763.13092 477.90625 763.1875 C 477.96799 763.25051 478.03182 763.31218 478.09375 763.375 C 478.11426 763.39608 478.13572 763.41644 478.15625 763.4375 C 478.18683 763.46965 478.21937 763.49915 478.25 763.53125 C 478.40794 763.68605 478.55959 763.84644 478.71875 764 C 478.72925 764.01029 478.73949 764.02097 478.75 764.03125 C 478.78071 764.06292 478.81299 764.09338 478.84375 764.125 C 478.85395 764.1356 478.8648 764.14566 478.875 764.15625 C 478.94264 764.22401 478.99463 764.30747 479.0625 764.375 C 479.11489 764.42643 479.16622 764.47996 479.21875 764.53125 C 479.37573 764.68664 479.5293 764.84585 479.6875 765 C 479.72365 765.03654 479.77628 765.05728 479.8125 765.09375 C 479.86551 765.14522 479.9156 765.19867 479.96875 765.25 C 479.97893 765.26061 479.98981 765.27065 480 765.28125 C 480.0102 765.29196 480.02104 765.3018 480.03125 765.3125 C 480.10932 765.39055 480.17163 765.48476 480.25 765.5625 C 480.28054 765.59245 480.31317 765.62635 480.34375 765.65625 C 480.34882 765.6615 480.36993 765.651 480.375 765.65625 C 480.40576 765.68787 480.43794 765.71843 480.46875 765.75 C 480.48413 765.76589 480.48461 765.79662 480.5 765.8125 C 480.65615 765.9661 480.8114 766.12887 480.96875 766.28125 C 480.97382 766.2865 480.99493 766.276 481 766.28125 C 481.01055 766.29146 481.0207 766.3023 481.03125 766.3125 C 481.05227 766.33304 481.07271 766.35448 481.09375 766.375 C 481.09861 766.38014 481.12014 766.36986 481.125 766.375 C 481.14033 766.39121 481.14091 766.4213 481.15625 766.4375 C 481.17621 766.45846 481.19877 766.47906 481.21875 766.5 C 481.24482 766.52559 481.28639 766.53694 481.3125 766.5625 C 481.31775 766.56802 481.30725 766.58823 481.3125 766.59375 C 481.33361 766.61419 481.35387 766.63583 481.375 766.65625 C 481.3907 766.67173 481.42178 766.67203 481.4375 766.6875 C 481.44763 766.69813 481.45861 766.70812 481.46875 766.71875 C 481.51601 766.76521 481.54638 766.82865 481.59375 766.875 C 481.61437 766.89596 481.63561 766.91656 481.65625 766.9375 C 481.68241 766.96387 481.69256 767.00491 481.71875 767.03125 C 481.74995 767.06217 481.78125 767.09413 481.8125 767.125 C 481.83346 767.14553 481.85402 767.16699 481.875 767.1875 C 481.94829 767.25974 482.0202 767.33428 482.09375 767.40625 C 482.09893 767.41155 482.11982 767.40095 482.125 767.40625 C 482.19781 767.47686 482.27069 767.55466 482.34375 767.625 C 482.36467 767.64597 482.3853 767.66656 482.40625 767.6875 C 482.44302 767.72388 482.46316 767.77619 482.5 767.8125 C 482.51045 767.82273 482.5208 767.83352 482.53125 767.84375 C 482.53647 767.84901 482.55728 767.83849 482.5625 767.84375 C 482.59933 767.88038 482.61935 767.93219 482.65625 767.96875 C 482.69321 768.005 482.74422 768.02632 482.78125 768.0625 C 482.82307 768.10336 482.86435 768.14673 482.90625 768.1875 C 482.95385 768.2343 482.98354 768.29706 483.03125 768.34375 C 483.07878 768.38977 483.13986 768.42284 483.1875 768.46875 C 483.19798 768.47885 483.20826 768.48991 483.21875 768.5 C 483.2399 768.52074 483.26008 768.54178 483.28125 768.5625 C 483.31272 768.59339 483.34348 768.6254 483.375 768.65625 C 483.39615 768.67699 483.41633 768.69803 483.4375 768.71875 C 483.45849 768.73934 483.47899 768.76069 483.5 768.78125 C 483.5105 768.79154 483.52074 768.80222 483.53125 768.8125 C 483.55234 768.83297 483.57264 768.85456 483.59375 768.875 C 483.74742 769.02263 483.90768 769.16604 484.0625 769.3125 C 484.07312 769.32266 484.08313 769.3336 484.09375 769.34375 C 484.11498 769.36408 484.135 769.38594 484.15625 769.40625 C 484.17748 769.42658 484.1975 769.44844 484.21875 769.46875 C 484.48721 769.72017 484.75934 769.97086 485.03125 770.21875 C 485.06348 770.24828 485.09272 770.28302 485.125 770.3125 C 485.22234 770.40211 485.30846 770.5046 485.40625 770.59375 C 485.4388 770.62352 485.4674 770.65778 485.5 770.6875 C 485.52171 770.70733 485.54077 770.73019 485.5625 770.75 C 485.58421 770.76983 485.60327 770.79269 485.625 770.8125 C 485.63064 770.81764 485.65061 770.80736 485.65625 770.8125 C 485.87365 771.01016 486.09288 771.21087 486.3125 771.40625 C 487.53164 772.4938 488.77309 773.54736 490.0625 774.5625 C 490.67756 775.04673 491.30595 775.53286 491.9375 776 C 492.09426 776.11562 492.24846 776.2292 492.40625 776.34375 C 492.42488 776.3573 492.45011 776.36146 492.46875 776.375 C 492.48052 776.38356 492.48822 776.3977 492.5 776.40625 C 493.2876 776.97803 494.0927 777.549 494.90625 778.09375 C 495.36355 778.39995 495.84686 778.67127 496.3125 778.96875 C 496.45133 779.05733 496.57917 779.1622 496.71875 779.25 C 496.93587 779.38628 497.15606 779.52187 497.375 779.65625 C 497.39482 779.66844 497.41766 779.67532 497.4375 779.6875 C 497.44979 779.69505 497.45646 779.7112 497.46875 779.71875 C 498.29123 780.22192 499.12031 780.71161 499.96875 781.1875 C 499.98913 781.19896 500.01085 781.20731 500.03125 781.21875 C 500.04377 781.22578 500.04998 781.24298 500.0625 781.25 C 500.91243 781.72511 501.77974 782.17792 502.65625 782.625 C 502.68969 782.64212 502.71652 782.67042 502.75 782.6875 C 503.62813 783.13382 504.53216 783.55123 505.4375 783.96875 C 505.45873 783.97856 505.47875 783.9902 505.5 784 C 505.51268 784.00586 505.51856 784.0254 505.53125 784.03125 C 506.45808 784.45868 507.3878 784.8535 508.34375 785.25 C 508.35659 785.25533 508.36215 785.27593 508.375 785.28125 C 509.33189 785.67755 510.32583 786.04169 511.3125 786.40625 C 511.32519 786.41094 511.33105 786.43282 511.34375 786.4375 C 512.33149 786.80136 513.32558 787.13742 514.34375 787.46875 C 523.63155 790.49608 534.20069 792.1875 546.28125 792.1875 C 572.433 792.1875 593.6855 784.1725 607.15625 770.59375 C 621.20458 756.43544 625.80424 736.53836 627.21875 712.71875 C 627.33989 712.83733 627.47204 712.94453 627.59375 713.0625 C 627.9508 713.42197 628.32536 713.77096 628.6875 714.125 C 628.86531 714.31226 629.03963 714.50163 629.21875 714.6875 C 629.36382 714.83257 629.51035 714.98082 629.65625 715.125 C 630.2327 715.71613 630.81631 716.29825 631.40625 716.875 C 631.84601 717.32101 632.27122 717.78103 632.71875 718.21875 C 633.14832 718.65424 633.59427 719.07242 634.03125 719.5 C 634.4558 719.93022 634.88071 720.35876 635.3125 720.78125 C 635.84051 721.31631 636.36703 721.8519 636.90625 722.375 C 637.08191 722.55141 637.26061 722.73115 637.4375 722.90625 C 637.94238 723.42311 638.45355 723.93165 638.96875 724.4375 C 639.40329 724.8786 639.83911 725.31701 640.28125 725.75 C 640.70514 726.17882 641.1314 726.61012 641.5625 727.03125 C 641.89461 727.36636 642.22598 727.70084 642.5625 728.03125 C 643.09051 728.56631 643.61703 729.1019 644.15625 729.625 C 644.2925 729.76139 644.42551 729.89565 644.5625 730.03125 C 645.22106 730.70316 645.88639 731.37807 646.5625 732.03125 C 646.63513 732.10357 646.70841 732.1779 646.78125 732.25 C 647.23556 732.71313 647.6936 733.17076 648.15625 733.625 C 648.5242 733.99692 648.87662 734.38387 649.25 734.75 C 649.59233 735.09528 649.93423 735.44097 650.28125 735.78125 C 650.61852 736.12143 650.97068 736.44592 651.3125 736.78125 C 651.64472 737.11619 651.97587 737.45101 652.3125 737.78125 C 652.63448 738.10559 652.95513 738.43008 653.28125 738.75 C 653.59791 739.06898 653.89809 739.40404 654.21875 739.71875 C 654.6497 740.15268 655.09287 740.574 655.53125 741 C 655.61422 741.08269 655.69801 741.1676 655.78125 741.25 C 656.35902 741.83598 656.94005 742.42836 657.53125 743 C 657.54172 743.01037 657.55203 743.02089 657.5625 743.03125 C 657.93 743.40366 658.28333 743.78963 658.65625 744.15625 C 658.94201 744.44374 659.24223 744.71599 659.53125 745 C 659.80166 745.2717 660.07042 745.54391 660.34375 745.8125 C 660.61416 746.0842 660.88292 746.35641 661.15625 746.625 C 661.5411 747.01136 661.92174 747.4012 662.3125 747.78125 C 662.35405 747.82252 662.39588 747.86505 662.4375 747.90625 C 662.7591 748.23104 663.08051 748.55463 663.40625 748.875 C 663.41655 748.88554 663.42719 748.89571 663.4375 748.90625 C 663.66663 749.13589 663.89378 749.36634 664.125 749.59375 C 664.13531 749.60429 664.14594 749.61447 664.15625 749.625 C 664.38538 749.85464 664.61253 750.08509 664.84375 750.3125 C 664.86438 750.33355 664.8856 750.35397 664.90625 750.375 C 665.12571 750.59457 665.34112 750.81372 665.5625 751.03125 C 665.69277 751.16158 665.80656 751.30789 665.9375 751.4375 C 666.14481 751.63902 666.35352 751.83151 666.5625 752.03125 C 666.64616 752.11413 666.72856 752.19866 666.8125 752.28125 C 666.94705 752.41591 667.08348 752.5536 667.21875 752.6875 C 667.56161 753.03259 667.90244 753.37867 668.25 753.71875 C 668.3437 753.8119 668.4372 753.90722 668.53125 754 C 668.67609 754.14509 668.82308 754.2933 668.96875 754.4375 C 669.01004 754.47959 669.0524 754.52049 669.09375 754.5625 C 669.28139 754.75039 669.46721 754.9386 669.65625 755.125 C 669.70799 755.17747 669.76066 755.22889 669.8125 755.28125 C 669.93262 755.40092 670.03556 755.53719 670.15625 755.65625 C 670.44281 755.94282 670.74143 756.21691 671.03125 756.5 C 671.09331 756.56299 671.15654 756.62467 671.21875 756.6875 C 671.22906 756.69803 671.23968 756.70822 671.25 756.71875 C 671.39102 756.85924 671.51444 757.0166 671.65625 757.15625 C 671.75013 757.2499 671.84327 757.34423 671.9375 757.4375 C 671.97962 757.47866 672.02032 757.52142 672.0625 757.5625 C 672.15638 757.65615 672.24952 757.75048 672.34375 757.84375 C 672.37549 757.87442 672.40572 757.90687 672.4375 757.9375 C 672.67217 758.17179 672.91939 758.39304 673.15625 758.625 C 673.22886 758.69827 673.30218 758.77071 673.375 758.84375 C 673.3906 758.85954 673.39064 758.89047 673.40625 758.90625 C 673.43735 758.93711 673.46887 758.96918 673.5 759 C 673.51992 759.01931 673.54257 759.0432 673.5625 759.0625 C 673.56759 759.0677 673.58866 759.0573 673.59375 759.0625 C 673.60933 759.07831 673.60941 759.1092 673.625 759.125 C 673.66628 759.16649 673.70866 759.20858 673.75 759.25 C 673.79092 759.29061 673.83401 759.33446 673.875 759.375 C 673.88009 759.3802 673.90116 759.3698 673.90625 759.375 C 673.92672 759.39524 673.94826 759.41728 673.96875 759.4375 C 673.98428 759.45323 674.01571 759.45303 674.03125 759.46875 C 674.03643 759.47399 674.02607 759.49476 674.03125 759.5 C 674.04158 759.51051 674.05217 759.52074 674.0625 759.53125 C 674.08888 759.55769 674.09859 759.59859 674.125 759.625 C 674.14585 759.64567 674.16664 759.66685 674.1875 759.6875 C 674.21883 759.71823 674.24988 759.75056 674.28125 759.78125 C 674.38584 759.8854 674.48873 759.99006 674.59375 760.09375 C 674.65641 760.1561 674.71843 760.21907 674.78125 760.28125 C 674.80239 760.30201 674.82259 760.323 674.84375 760.34375 C 674.93754 760.43707 675.03086 760.53205 675.125 760.625 C 675.17724 760.67693 675.2289 760.72943 675.28125 760.78125 C 675.29134 760.79117 675.30241 760.80259 675.3125 760.8125 C 675.31759 760.8177 675.33866 760.8073 675.34375 760.8125 C 675.35344 760.82202 675.36531 760.83424 675.375 760.84375 C 675.40618 760.87508 675.43753 760.90621 675.46875 760.9375 C 675.47913 760.94796 675.48961 760.9583 675.5 760.96875 C 675.50642 760.97515 675.49357 760.9936 675.5 761 C 675.53145 761.03116 675.56226 761.06263 675.59375 761.09375 C 675.63556 761.13528 675.67687 761.17729 675.71875 761.21875 C 675.73987 761.23955 675.76011 761.26047 675.78125 761.28125 C 675.82306 761.32278 675.86437 761.36479 675.90625 761.40625 C 675.92742 761.42699 675.94756 761.44803 675.96875 761.46875 C 676.02108 761.52072 676.07257 761.57314 676.125 761.625 C 676.18704 761.68657 676.25031 761.75109 676.3125 761.8125 C 676.31764 761.81765 676.33861 761.80736 676.34375 761.8125 C 676.3535 761.82213 676.36524 761.83413 676.375 761.84375 C 676.4063 761.87496 676.43741 761.90633 676.46875 761.9375 C 676.47403 761.94277 676.46347 761.96348 676.46875 761.96875 C 676.47921 761.9791 676.48954 761.98965 676.5 762 C 676.52092 762.02075 676.54156 762.04177 676.5625 762.0625 C 676.59388 762.09361 676.62484 762.12518 676.65625 762.15625 C 676.66672 762.16662 676.67703 762.17714 676.6875 762.1875 C 676.69797 762.19787 676.70828 762.20839 676.71875 762.21875 C 677.29318 762.78736 677.8813 763.32035 678.46875 763.875 C 678.49018 763.89518 678.50981 763.91733 678.53125 763.9375 C 678.55299 763.95763 678.57199 763.97988 678.59375 764 C 678.64735 764.04977 678.69629 764.10659 678.75 764.15625 C 678.79318 764.19631 678.83175 764.24126 678.875 764.28125 C 678.98335 764.3823 679.07871 764.49317 679.1875 764.59375 C 679.19837 764.60381 679.20787 764.61494 679.21875 764.625 C 679.99195 765.33984 680.79813 766.02818 681.59375 766.71875 C 681.6493 766.76686 681.69434 766.82701 681.75 766.875 C 681.76702 766.88969 681.79547 766.89157 681.8125 766.90625 C 681.89606 766.97835 681.9787 767.05317 682.0625 767.125 C 682.2707 767.30305 682.47777 767.47986 682.6875 767.65625 C 683.24067 768.12218 683.81112 768.57702 684.375 769.03125 C 684.39794 769.0497 684.41454 769.07532 684.4375 769.09375 C 684.46033 769.1121 684.47716 769.13791 684.5 769.15625 C 684.51142 769.16542 684.51983 769.17833 684.53125 769.1875 C 685.41775 769.89901 686.30559 770.56782 687.21875 771.25 C 687.23057 771.25882 687.23818 771.27243 687.25 771.28125 C 687.26182 771.29007 687.26943 771.30368 687.28125 771.3125 C 688.20755 772.00256 689.17101 772.68442 690.125 773.34375 C 690.1369 773.35198 690.14435 773.36677 690.15625 773.375 C 691.06461 773.99983 692.00382 774.59098 692.9375 775.1875 C 692.94972 775.19534 692.95652 775.21092 692.96875 775.21875 C 692.98094 775.22655 692.98781 775.24221 693 775.25 C 693.0196 775.26254 693.04289 775.26872 693.0625 775.28125 C 693.07473 775.28907 693.08151 775.30468 693.09375 775.3125 C 693.19601 775.37754 693.30369 775.4353 693.40625 775.5 C 694.28978 776.05987 695.18742 776.62207 696.09375 777.15625 C 696.1061 777.16353 696.11265 777.18023 696.125 777.1875 C 697.13639 777.783 698.14744 778.34328 699.1875 778.90625 C 699.20011 778.91308 699.20613 778.93068 699.21875 778.9375 C 700.17854 779.45595 701.1718 779.94722 702.15625 780.4375 C 702.21933 780.46886 702.28057 780.50001 702.34375 780.53125 C 702.36463 780.54161 702.38536 780.55216 702.40625 780.5625 C 702.41883 780.56873 702.42491 780.58752 702.4375 780.59375 C 703.50817 781.12266 704.58748 781.62987 705.6875 782.125 C 705.70025 782.13074 705.706 782.15051 705.71875 782.15625 C 706.8192 782.65158 707.9636 783.10157 709.09375 783.5625 C 709.10641 783.56766 709.11234 783.58859 709.125 783.59375 C 710.25572 784.05438 711.40175 784.48063 712.5625 784.90625 C 712.57525 784.91093 712.58099 784.93283 712.59375 784.9375 C 713.75553 785.36249 714.93284 785.76691 716.125 786.15625 C 728.18313 790.09921 741.80679 792.23137 757.15625 792.1875 C 788.44062 792.09938 814.64126 782.61846 830.65625 764.4375 C 830.66146 764.43158 830.65104 764.41217 830.65625 764.40625 C 833.05229 761.68417 835.23514 758.79812 837.15625 755.6875 C 837.16084 755.68006 837.15166 755.66369 837.15625 755.65625 C 840.03782 750.98623 842.37958 745.87667 844.09375 740.34375 C 844.09667 740.33433 844.09084 740.32192 844.09375 740.3125 C 845.04351 737.24236 845.81252 734.05089 846.375 730.71875 C 846.37669 730.70875 846.37332 730.6975 846.375 730.6875 C 846.82373 728.02298 847.15406 725.26802 847.34375 722.4375 C 847.91617 713.89897 847.52035 706.20902 846.3125 699.25 C 846.28944 699.11715 846.27365 698.97607 846.25 698.84375 C 846.22349 698.6951 846.18351 698.55423 846.15625 698.40625 C 845.46267 694.64965 844.52595 691.12669 843.375 687.78125 C 843.14033 687.09915 842.90875 686.41596 842.65625 685.75 C 842.65148 685.73741 842.62978 685.73133 842.625 685.71875 C 842.11471 684.37527 841.6117 683.06102 841.03125 681.78125 C 841.02556 681.7687 841.0057 681.76254 841 681.75 C 840.41913 680.4714 839.80391 679.21763 839.15625 678 C 839.14964 677.98758 839.13161 677.98116 839.125 677.96875 C 838.8046 677.36638 838.4924 676.74418 838.15625 676.15625 C 838.14905 676.14367 838.13221 676.13757 838.125 676.125 C 837.78847 675.53813 837.44559 674.97904 837.09375 674.40625 C 837.08625 674.39404 837.07001 674.3872 837.0625 674.375 C 837.05039 674.35528 837.04338 674.3322 837.03125 674.3125 C 836.69067 673.76012 836.35447 673.19581 836 672.65625 C 835.99204 672.64413 835.97672 672.63711 835.96875 672.625 C 835.60179 672.06643 835.22521 671.5139 834.84375 670.96875 C 834.8354 670.95684 834.82085 670.94941 834.8125 670.9375 C 834.80458 670.92619 834.78918 670.91755 834.78125 670.90625 C 834.77638 670.89932 834.78612 670.88193 834.78125 670.875 C 834.70444 670.76537 834.60864 670.67159 834.53125 670.5625 C 834.23666 670.14809 833.95906 669.71927 833.65625 669.3125 C 833.64748 669.30074 833.63377 669.29301 833.625 669.28125 C 833.45616 669.05503 833.2651 668.84889 833.09375 668.625 C 832.86291 668.32337 832.64157 668.0162 832.40625 667.71875 C 832.39717 667.70728 832.38408 667.69897 832.375 667.6875 C 832.36933 667.68034 832.38067 667.66341 832.375 667.65625 C 832.36591 667.64479 832.35284 667.63646 832.34375 667.625 C 832.32551 667.60194 832.29952 667.58553 832.28125 667.5625 C 832.25389 667.52791 832.21492 667.50328 832.1875 667.46875 C 831.83539 667.02733 831.51804 666.55735 831.15625 666.125 C 831.14688 666.11381 831.13438 666.10493 831.125 666.09375 C 830.80142 665.70754 830.45612 665.34788 830.125 664.96875 C 829.99918 664.82479 829.87689 664.6742 829.75 664.53125 C 829.73063 664.50937 829.7069 664.4906 829.6875 664.46875 C 829.65809 664.43568 829.62322 664.40802 829.59375 664.375 C 829.55501 664.33125 829.50759 664.29366 829.46875 664.25 C 829.15152 663.89552 828.82372 663.53585 828.5 663.1875 C 828.4842 663.17033 828.48457 663.14215 828.46875 663.125 C 828.45877 663.11431 828.44749 663.10443 828.4375 663.09375 C 828.41754 663.07238 828.39499 663.0526 828.375 663.03125 C 828.35483 663.00966 828.3327 662.99032 828.3125 662.96875 C 828.28255 662.93669 828.24875 662.90701 828.21875 662.875 C 828.18849 662.84261 828.15531 662.81359 828.125 662.78125 C 828.11512 662.77067 828.10364 662.76058 828.09375 662.75 C 828.0838 662.73939 828.07246 662.72935 828.0625 662.71875 C 828.04313 662.6982 828.0194 662.67678 828 662.65625 C 827.99475 662.65071 828.00525 662.63054 828 662.625 C 827.87885 662.49531 827.74703 662.37885 827.625 662.25 C 827.59431 662.21806 827.56199 662.18814 827.53125 662.15625 C 827.37368 661.99309 827.22149 661.81806 827.0625 661.65625 C 827.05213 661.64571 827.04163 661.63554 827.03125 661.625 C 826.98952 661.5825 826.94808 661.5424 826.90625 661.5 C 826.84384 661.43637 826.78138 661.37592 826.71875 661.3125 C 826.67771 661.27077 826.63489 661.22914 826.59375 661.1875 C 826.54245 661.13534 826.48895 661.08327 826.4375 661.03125 C 826.38564 660.97853 826.33326 660.92758 826.28125 660.875 C 826.26073 660.85414 826.2393 660.83334 826.21875 660.8125 C 826.1779 660.76973 826.1347 660.73018 826.09375 660.6875 C 826.02192 660.61448 825.94711 660.5415 825.875 660.46875 C 825.80317 660.39573 825.72836 660.32275 825.65625 660.25 C 825.64995 660.24385 825.63131 660.25615 825.625 660.25 C 825.61443 660.23978 825.60432 660.22896 825.59375 660.21875 C 825.57798 660.20339 825.57829 660.1716 825.5625 660.15625 C 825.53601 660.13063 825.49528 660.11934 825.46875 660.09375 C 825.4524 660.0779 825.45386 660.04709 825.4375 660.03125 C 825.42697 660.02111 825.41678 660.01013 825.40625 660 C 825.39034 659.98382 825.35968 659.98491 825.34375 659.96875 C 825.32373 659.94843 825.30129 659.92655 825.28125 659.90625 C 825.2707 659.89614 825.26056 659.88511 825.25 659.875 C 825.2403 659.86562 825.22846 659.85312 825.21875 659.84375 C 825.2137 659.83892 825.2238 659.81733 825.21875 659.8125 C 825.20821 659.80237 825.19805 659.79137 825.1875 659.78125 C 825.17686 659.771 825.16689 659.76025 825.15625 659.75 C 825.14613 659.73922 825.13513 659.72952 825.125 659.71875 C 825.11949 659.71347 825.09926 659.72402 825.09375 659.71875 C 825.07341 659.69809 825.05161 659.67689 825.03125 659.65625 C 825.02068 659.64615 825.01058 659.63509 825 659.625 C 824.97938 659.60412 824.95814 659.58336 824.9375 659.5625 C 824.90043 659.5269 824.88089 659.47303 824.84375 659.4375 C 824.78152 659.37423 824.7187 659.31306 824.65625 659.25 C 824.61398 659.20912 824.57361 659.16579 824.53125 659.125 C 824.46791 659.06355 824.40729 658.99875 824.34375 658.9375 C 824.30212 658.89546 824.26048 658.85445 824.21875 658.8125 C 824.13666 658.72905 824.05121 658.6456 823.96875 658.5625 C 823.93689 658.53169 823.90691 658.49951 823.875 658.46875 C 823.75187 658.34357 823.62397 658.21813 823.5 658.09375 C 823.43116 658.027 823.35033 657.97277 823.28125 657.90625 C 823.271 657.8959 823.26026 657.88534 823.25 657.875 C 823.20231 657.82863 823.17281 657.76501 823.125 657.71875 C 823.11925 657.71291 823.0995 657.72459 823.09375 657.71875 C 823.06205 657.68809 823.03175 657.65561 823 657.625 C 822.92899 657.54967 822.85256 657.48129 822.78125 657.40625 C 822.77539 657.39998 822.78711 657.38127 822.78125 657.375 C 822.76001 657.35446 822.74001 657.33302 822.71875 657.3125 C 822.6264 657.21862 822.53032 657.12468 822.4375 657.03125 C 822.38466 656.98015 822.33423 656.92596 822.28125 656.875 C 822.20942 656.80198 822.13461 656.729 822.0625 656.65625 C 821.98815 656.58435 821.91838 656.50913 821.84375 656.4375 C 821.79245 656.38534 821.73895 656.33327 821.6875 656.28125 C 821.58182 656.17905 821.48124 656.0704 821.375 655.96875 C 821.20632 655.8051 821.04514 655.63102 820.875 655.46875 C 820.71767 655.3088 820.56495 655.15865 820.40625 655 C 820.39568 654.98978 820.38557 654.97896 820.375 654.96875 C 820.22979 654.82112 820.08388 654.67777 819.9375 654.53125 C 819.90564 654.50044 819.87566 654.46826 819.84375 654.4375 C 819.71788 654.30954 819.59549 654.18963 819.46875 654.0625 C 819.41622 654.0117 819.36517 653.95691 819.3125 653.90625 C 819.1278 653.71848 818.93658 653.52972 818.75 653.34375 C 818.64739 653.23943 818.54069 653.13501 818.4375 653.03125 C 818.34295 652.93981 818.25126 652.841 818.15625 652.75 C 818.0629 652.6551 817.96883 652.56319 817.875 652.46875 C 817.81128 652.40712 817.75143 652.34268 817.6875 652.28125 C 817.64565 652.23941 817.60444 652.198 817.5625 652.15625 C 817.35728 651.94762 817.14504 651.73767 816.9375 651.53125 C 816.72202 651.31219 816.49929 651.09162 816.28125 650.875 C 816.22884 650.82172 816.17756 650.77189 816.125 650.71875 C 815.97077 650.56959 815.81169 650.42925 815.65625 650.28125 C 815.641 650.26492 815.64027 650.23507 815.625 650.21875 C 815.58351 650.17657 815.54158 650.13584 815.5 650.09375 C 815.38317 649.98077 815.27377 649.86232 815.15625 649.75 C 815.08302 649.67678 815.01102 649.60419 814.9375 649.53125 C 814.91676 649.51016 814.89577 649.48982 814.875 649.46875 C 814.78045 649.37731 814.68876 649.2785 814.59375 649.1875 C 814.47893 649.07219 814.36553 648.95838 814.25 648.84375 C 814.24077 648.83436 814.22799 648.82188 814.21875 648.8125 C 814.21344 648.80724 814.19281 648.81776 814.1875 648.8125 C 814.11685 648.73687 814.0397 648.6691 813.96875 648.59375 C 813.81579 648.4434 813.68543 648.27418 813.53125 648.125 C 813.29525 647.88508 813.05157 647.64325 812.8125 647.40625 C 812.80193 647.39603 812.79182 647.38521 812.78125 647.375 C 812.52986 647.11943 812.28612 646.84601 812.03125 646.59375 C 811.77194 646.33013 811.51301 646.07259 811.25 645.8125 C 811.0373 645.59626 810.80895 645.40136 810.59375 645.1875 C 810.54122 645.1367 810.49017 645.08191 810.4375 645.03125 C 810.30413 644.89566 810.1656 644.75965 810.03125 644.625 C 809.95705 644.5527 809.88698 644.47828 809.8125 644.40625 C 809.74495 644.33907 809.69279 644.25445 809.625 644.1875 C 809.42267 643.98181 809.20459 643.79729 809 643.59375 C 808.92603 643.52221 808.8555 643.44627 808.78125 643.375 C 808.48762 643.08511 808.20439 642.78558 807.90625 642.5 C 807.72155 642.31223 807.53033 642.12347 807.34375 641.9375 C 807.23807 641.8353 807.13749 641.72665 807.03125 641.625 C 806.84655 641.43723 806.65533 641.24847 806.46875 641.0625 C 806.35192 640.94952 806.24252 640.83107 806.125 640.71875 C 805.98135 640.57271 805.83229 640.4262 805.6875 640.28125 C 805.65597 640.25066 805.62533 640.21804 805.59375 640.1875 C 805.46422 640.05825 805.34918 639.90964 805.21875 639.78125 C 804.90234 639.45957 804.57192 639.16018 804.25 638.84375 C 803.93533 638.52385 803.63261 638.22096 803.3125 637.90625 C 802.98415 637.57244 802.64677 637.23441 802.3125 636.90625 C 802.16729 636.75862 802.02138 636.61527 801.875 636.46875 C 801.80103 636.39721 801.7305 636.32127 801.65625 636.25 C 801.54078 636.13531 801.42868 636.02026 801.3125 635.90625 C 801.17239 635.76381 801.01619 635.6414 800.875 635.5 C 800.79046 635.41824 800.7099 635.33141 800.625 635.25 C 800.51481 635.14061 800.42334 635.01502 800.3125 634.90625 C 799.96363 634.55158 799.60555 634.19205 799.25 633.84375 C 799.12413 633.71579 799.00174 633.59588 798.875 633.46875 C 798.81159 633.40743 798.75111 633.34237 798.6875 633.28125 C 798.52323 633.11758 798.38446 632.94354 798.21875 632.78125 C 797.86085 632.41739 797.48993 632.07591 797.125 631.71875 C 796.76587 631.35365 796.39746 630.98336 796.03125 630.625 C 795.66186 630.24947 795.28313 629.8684 794.90625 629.5 C 794.53686 629.12447 794.15813 628.7434 793.78125 628.375 C 793.39647 627.98382 793.0179 627.57094 792.625 627.1875 C 792.23598 626.79201 791.83482 626.41883 791.4375 626.03125 C 791.04246 625.62964 790.6536 625.20596 790.25 624.8125 C 789.84548 624.40125 789.44474 623.99645 789.03125 623.59375 C 788.62149 623.17717 788.20021 622.78281 787.78125 622.375 C 787.7197 622.31242 787.65551 622.24988 787.59375 622.1875 C 787.56223 622.15702 787.53157 622.12418 787.5 622.09375 C 787.22668 621.81862 786.93362 621.55252 786.65625 621.28125 C 786.61077 621.23256 786.57686 621.17357 786.53125 621.125 C 786.11056 620.69731 785.68039 620.2622 785.25 619.84375 C 784.81904 619.40563 784.37862 618.95968 783.9375 618.53125 C 783.4655 618.0514 782.98418 617.59324 782.5 617.125 C 782.06351 616.68298 781.63435 616.24464 781.1875 615.8125 C 780.76208 615.38122 780.37278 614.95312 779.9375 614.53125 C 779.48602 614.07226 779.02513 613.60461 778.5625 613.15625 C 778.10076 612.68683 777.62965 612.2083 777.15625 611.75 C 776.68949 611.27548 776.22867 610.80691 775.75 610.34375 C 775.278 609.8639 774.79668 609.37449 774.3125 608.90625 C 773.8405 608.4264 773.35918 607.93699 772.875 607.46875 C 772.37731 606.9625 771.88623 606.46209 771.375 605.96875 C 770.903 605.4889 770.42168 605.03074 769.9375 604.5625 C 769.40978 604.02452 768.91798 603.49218 768.375 602.96875 C 768.33909 602.93224 768.28598 602.91144 768.25 602.875 C 767.82089 602.41562 767.37762 601.98019 766.9375 601.53125 C 766.90564 601.50044 766.87566 601.46826 766.84375 601.4375 C 766.33034 600.91555 765.80905 600.38323 765.28125 599.875 C 764.80925 599.39515 764.32793 598.93699 763.84375 598.46875 C 763.27445 597.88703 762.71211 597.2835 762.125 596.71875 C 761.59119 596.17606 761.04935 595.62162 760.5 595.09375 C 760.43252 595.02515 760.34898 594.97461 760.28125 594.90625 C 760.08433 594.69544 759.88675 594.48984 759.6875 594.28125 C 759.48218 594.07843 759.27004 593.88821 759.0625 593.6875 C 758.91861 593.54015 758.77005 593.39625 758.625 593.25 C 758.23627 592.83385 757.83528 592.43882 757.4375 592.03125 C 757.36353 591.95971 757.293 591.88377 757.21875 591.8125 C 756.66392 591.24844 756.10285 590.67305 755.53125 590.125 C 755.05925 589.64515 754.57793 589.18699 754.09375 588.71875 C 753.53719 588.14757 752.97997 587.58608 752.40625 587.03125 C 752.21014 586.82976 752.01078 586.63693 751.8125 586.4375 C 751.45406 586.05377 751.08489 585.68893 750.71875 585.3125 C 750.61369 585.2109 750.51187 585.10106 750.40625 585 C 750.29851 584.89047 750.17088 584.79642 750.0625 584.6875 C 749.70406 584.30377 749.33489 583.93893 748.96875 583.5625 C 748.86254 583.45979 748.76303 583.35216 748.65625 583.25 C 748.07036 582.65437 747.47958 582.04656 746.875 581.46875 C 746.75566 581.34743 746.62013 581.24557 746.5 581.125 C 746.32838 580.94127 746.14215 580.7758 745.96875 580.59375 C 745.78955 580.41722 745.61838 580.23742 745.4375 580.0625 C 745.19155 579.80921 744.93686 579.56254 744.6875 579.3125 C 744.34925 578.95039 744.00136 578.60561 743.65625 578.25 C 743.52944 578.12736 743.40888 577.99686 743.28125 577.875 C 742.67533 577.259 742.06339 576.6282 741.4375 576.03125 C 740.9655 575.5514 740.48418 575.09324 740 574.625 C 739.34771 573.95184 738.676 573.27557 738 572.625 C 737.88258 572.50436 737.77445 572.3699 737.65625 572.25 C 738.2418 571.83738 738.80085 571.40556 739.40625 571.0625 C 739.41441 571.05789 739.42934 571.0671 739.4375 571.0625 C 739.98233 570.75466 740.53898 570.49881 741.09375 570.25 C 748.83111 566.77483 757.15564 566.9489 764.6875 569.34375 C 764.86342 569.39985 765.04372 569.4415 765.21875 569.5 C 765.22827 569.50317 765.24049 569.49682 765.25 569.5 C 765.83104 569.69469 766.39835 569.90465 766.96875 570.125 C 766.98123 570.12981 766.98752 570.15143 767 570.15625 C 767.56686 570.37523 768.13241 570.56948 768.6875 570.8125 C 768.69995 570.81795 768.7063 570.83829 768.71875 570.84375 C 768.93959 570.94122 769.15619 571.02387 769.375 571.125 C 769.37897 571.12682 769.37103 571.15443 769.375 571.15625 C 769.42289 571.29363 769.48652 571.42504 769.53125 571.5625 C 769.63537 571.50052 769.73963 571.43699 769.84375 571.375 C 769.9062 571.40471 769.96897 571.43875 770.03125 571.46875 C 770.15105 571.7851 770.30312 572.08933 770.40625 572.40625 C 770.54327 572.32469 770.67549 572.23782 770.8125 572.15625 C 770.95549 572.52523 771.12967 572.8802 771.25 573.25 C 771.39472 573.16385 771.54279 573.08616 771.6875 573 C 771.82545 573.35773 771.94585 573.73526 772.0625 574.09375 C 772.19935 574.01229 772.33191 573.92522 772.46875 573.84375 C 772.60167 574.19012 772.73081 574.52792 772.84375 574.875 C 772.98048 574.79361 773.11328 574.7064 773.25 574.625 C 773.3833 574.97225 773.54302 575.30829 773.65625 575.65625 C 773.78095 575.58202 773.90655 575.51174 774.03125 575.4375 C 774.15718 575.76797 774.29851 576.1064 774.40625 576.4375 C 774.5308 576.36336 774.65671 576.2929 774.78125 576.21875 C 774.90228 576.53795 775.05219 576.86772 775.15625 577.1875 C 775.2808 577.11336 775.40671 577.0429 775.53125 576.96875 C 775.64791 577.27781 775.77426 577.59665 775.875 577.90625 C 775.99186 577.83669 776.1019 577.75707 776.21875 577.6875 C 776.33411 577.99352 776.46275 578.2872 776.5625 578.59375 C 776.67911 578.52433 776.78964 578.44442 776.90625 578.375 C 777.02161 578.68102 777.15025 578.9747 777.25 579.28125 C 777.36661 579.21183 777.47714 579.13192 777.59375 579.0625 C 777.70373 579.3559 777.81062 579.64362 777.90625 579.9375 C 778.02286 579.86808 778.13339 579.78817 778.25 579.71875 C 778.35754 580.00639 778.46876 580.30566 778.5625 580.59375 C 778.67451 580.52707 778.79424 580.47293 778.90625 580.40625 C 779.00482 580.67246 779.10075 580.95216 779.1875 581.21875 C 779.29206 581.15651 779.39545 581.09349 779.5 581.03125 C 779.59694 581.29352 779.69579 581.54987 779.78125 581.8125 C 779.88559 581.75039 779.98942 581.68711 780.09375 581.625 C 780.18856 581.88211 780.29122 582.14879 780.375 582.40625 C 780.47167 582.34871 780.55959 582.2763 780.65625 582.21875 C 780.74937 582.47176 780.85506 582.71541 780.9375 582.96875 C 781.02957 582.91395 781.12669 582.86731 781.21875 582.8125 C 781.30296 583.04362 781.39346 583.26861 781.46875 583.5 C 781.56094 583.44512 781.65782 583.39863 781.75 583.34375 C 781.83421 583.57487 781.92471 583.79986 782 584.03125 C 782.08439 583.98102 782.16561 583.92524 782.25 583.875 C 782.33049 584.09685 782.42773 584.30915 782.5 584.53125 C 782.58439 584.48102 782.66561 584.42524 782.75 584.375 C 782.82874 584.59246 782.92916 584.81356 783 585.03125 C 783.08457 584.98091 783.16543 584.92534 783.25 584.875 C 783.32384 585.08011 783.40194 585.29468 783.46875 585.5 C 783.54102 585.45698 783.61524 585.41802 783.6875 585.375 C 783.75568 585.56568 783.84415 585.74665 783.90625 585.9375 C 783.97837 585.89457 784.05289 585.85543 784.125 585.8125 C 784.19171 585.99939 784.28288 586.18794 784.34375 586.375 C 784.41602 586.33198 784.49024 586.29302 784.5625 586.25 C 784.62444 586.42454 784.69316 586.60657 784.75 586.78125 C 784.81458 586.74281 784.87292 586.6947 784.9375 586.65625 C 784.99722 586.82501 785.07004 586.98735 785.125 587.15625 C 785.18944 587.11789 785.24806 587.06961 785.3125 587.03125 C 785.37095 587.19668 785.44613 587.3657 785.5 587.53125 C 785.56458 587.49281 785.62292 587.4447 785.6875 587.40625 C 785.74126 587.55932 785.79391 587.72182 785.84375 587.875 C 785.89603 587.84388 785.94772 587.81237 786 587.78125 C 786.04796 587.91882 786.11146 588.04985 786.15625 588.1875 C 786.20842 588.15645 786.26033 588.12481 786.3125 588.09375 C 786.36046 588.23132 786.42396 588.36235 786.46875 588.5 C 786.52092 588.46895 786.57283 588.43731 786.625 588.40625 C 786.66828 588.53117 786.70933 588.65627 786.75 588.78125 C 786.80217 588.7502 786.85408 588.71856 786.90625 588.6875 C 786.94864 588.80998 786.99138 588.93996 787.03125 589.0625 C 787.07584 589.03595 787.11166 588.9953 787.15625 588.96875 C 787.19531 589.08211 787.24435 589.19909 787.28125 589.3125 C 787.32123 589.2887 787.36628 589.2738 787.40625 589.25 C 787.43822 589.3437 787.4695 589.43751 787.5 589.53125 C 787.5399 589.5075 787.58511 589.4925 787.625 589.46875 C 787.65632 589.56062 787.68884 589.65809 787.71875 589.75 C 787.75104 589.73078 787.78021 589.70672 787.8125 589.6875 C 787.84058 589.77025 787.87931 589.85472 787.90625 589.9375 C 787.93854 589.91828 787.96771 589.89422 788 589.875 C 788.02422 589.94676 788.03914 590.02197 788.0625 590.09375 C 788.09472 590.07457 788.12403 590.05043 788.15625 590.03125 C 788.17999 590.10163 788.19584 590.1796 788.21875 590.25 C 788.23874 590.2381 788.26126 590.23065 788.28125 590.21875 C 788.29904 590.27194 788.32644 590.3218 788.34375 590.375 C 788.3637 590.36313 788.3863 590.35562 788.40625 590.34375 C 788.41972 590.38428 788.42431 590.42822 788.4375 590.46875 C 788.45748 590.45686 788.48002 590.44939 788.5 590.4375 C 788.51347 590.47803 788.51806 590.52197 788.53125 590.5625 C 788.5512 590.55063 788.5738 590.54312 788.59375 590.53125 C 788.61154 590.58444 788.63894 590.6343 788.65625 590.6875 C 788.65736 590.69088 788.6864 590.68412 788.6875 590.6875 C 788.69054 590.69679 788.68448 590.70946 788.6875 590.71875 C 803.36743 581.98036 817.99428 573.15887 831.28125 563.03125 C 831.28787 563.0262 831.30588 563.0363 831.3125 563.03125 C 830.82439 562.22069 830.31517 561.42079 829.8125 560.625 C 829.80473 560.61271 829.78902 560.60604 829.78125 560.59375 C 829.28636 559.81028 828.79094 559.04966 828.28125 558.28125 C 828.2732 558.26912 828.25806 558.26213 828.25 558.25 C 828.23714 558.23063 828.23162 558.20686 828.21875 558.1875 C 828.20272 558.16335 828.1723 558.14913 828.15625 558.125 C 827.67835 557.40508 827.21023 556.67482 826.71875 555.96875 C 826.71044 555.95686 826.69581 555.94938 826.6875 555.9375 C 826.16164 555.1857 825.63579 554.42275 825.09375 553.6875 C 825.0851 553.67577 825.07115 553.66798 825.0625 553.65625 C 824.52055 552.92112 823.96504 552.18661 823.40625 551.46875 C 823.3972 551.45714 823.38405 551.44911 823.375 551.4375 C 823.36595 551.42589 823.3528 551.41786 823.34375 551.40625 C 822.92212 550.86604 822.49405 550.34252 822.0625 549.8125 C 821.9307 549.65048 821.82024 549.47355 821.6875 549.3125 C 821.67811 549.30112 821.66565 549.29263 821.65625 549.28125 C 821.07955 548.5822 820.50115 547.89906 819.90625 547.21875 C 819.8966 547.20773 819.88465 547.19852 819.875 547.1875 C 819.8557 547.16546 819.83182 547.14702 819.8125 547.125 C 819.79303 547.10276 819.76949 547.08472 819.75 547.0625 C 819.7208 547.02914 819.68549 547.00206 819.65625 546.96875 C 819.12667 546.36779 818.60695 545.74186 818.0625 545.15625 C 818.05243 545.14543 818.04132 545.13581 818.03125 545.125 C 817.93057 545.01681 817.81995 544.92015 817.71875 544.8125 C 817.62814 544.71513 817.52853 544.62818 817.4375 544.53125 C 817.35695 544.4447 817.26838 544.36746 817.1875 544.28125 C 816.83487 543.91294 816.48394 543.54928 816.125 543.1875 C 816.11898 543.18131 816.13102 543.16244 816.125 543.15625 C 816.10421 543.13529 816.08331 543.11469 816.0625 543.09375 C 816.04171 543.07279 816.02081 543.05219 816 543.03125 C 815.96882 542.9998 815.93748 542.9689 815.90625 542.9375 C 815.87507 542.90605 815.84373 542.87515 815.8125 542.84375 C 815.80719 542.83846 815.78656 542.84904 815.78125 542.84375 C 815.7401 542.80227 815.69749 542.76014 815.65625 542.71875 C 815.64654 542.70896 815.63471 542.69728 815.625 542.6875 C 815.61984 542.68239 815.63016 542.66136 815.625 542.65625 C 815.61454 542.64583 815.60421 542.63541 815.59375 542.625 C 815.5833 542.61457 815.57295 542.60417 815.5625 542.59375 C 815.55206 542.58331 815.54169 542.57293 815.53125 542.5625 C 815.48044 542.51126 815.42594 542.45736 815.375 542.40625 C 815.36965 542.401 815.3491 542.4115 815.34375 542.40625 C 815.29219 542.35425 815.2392 542.30186 815.1875 542.25 C 815.17694 542.23969 815.16681 542.22906 815.15625 542.21875 C 815.14603 542.20837 815.13523 542.19787 815.125 542.1875 C 815.11981 542.18242 815.13019 542.16132 815.125 542.15625 C 815.10394 542.13557 815.08358 542.11441 815.0625 542.09375 C 815.03108 542.06255 815.00022 542.03114 814.96875 542 C 814.9115 541.94227 814.83866 541.90132 814.78125 541.84375 C 814.76076 541.82249 814.73926 541.80249 814.71875 541.78125 C 814.66719 541.72925 814.6142 541.67686 814.5625 541.625 C 814.53082 541.59407 814.50047 541.56213 814.46875 541.53125 C 814.43218 541.49437 814.41163 541.44306 814.375 541.40625 C 814.32252 541.35437 814.27137 541.30174 814.21875 541.25 C 814.1252 541.15566 814.03148 541.06264 813.9375 540.96875 C 813.83356 540.86393 813.72948 540.76051 813.625 540.65625 C 813.51578 540.54611 813.39106 540.45328 813.28125 540.34375 C 813.27085 540.33327 813.2604 540.32298 813.25 540.3125 C 813.23388 540.29676 813.20363 540.29698 813.1875 540.28125 C 813.12268 540.22005 813.06502 540.15474 813 540.09375 C 812.9735 540.06808 812.96403 540.02564 812.9375 540 C 812.92704 539.98958 812.91671 539.97917 812.90625 539.96875 C 812.79985 539.85585 812.70073 539.73731 812.59375 539.625 C 812.46374 539.49389 812.31835 539.38024 812.1875 539.25 C 812.05343 539.1148 811.91621 538.97802 811.78125 538.84375 C 811.51271 538.56912 811.24091 538.30214 810.96875 538.03125 C 810.89611 537.95785 810.8229 537.88563 810.75 537.8125 C 810.65034 537.71404 810.56889 537.59796 810.46875 537.5 C 810.30374 537.3336 810.13511 537.165 809.96875 537 C 809.80244 536.83229 809.63643 536.66628 809.46875 536.5 C 809.29205 536.32181 809.11575 536.14533 808.9375 535.96875 C 808.83872 535.86914 808.72427 535.78661 808.625 535.6875 C 808.5825 535.6472 808.54259 535.60271 808.5 535.5625 C 808.4632 535.52591 808.44312 535.47402 808.40625 535.4375 C 808.21916 535.24883 808.03259 535.06187 807.84375 534.875 C 807.64626 534.67585 807.44943 534.47839 807.25 534.28125 C 807.05251 534.0821 806.85568 533.88464 806.65625 533.6875 C 806.44837 533.47787 806.24128 533.26991 806.03125 533.0625 C 805.81297 532.84238 805.59565 532.62391 805.375 532.40625 C 805.15672 532.18613 804.9394 531.96766 804.71875 531.75 C 804.49008 531.5194 804.26252 531.2904 804.03125 531.0625 C 803.7973 530.82658 803.54918 530.6081 803.3125 530.375 C 803.22933 530.29112 803.14602 530.20852 803.0625 530.125 C 802.90412 529.97033 802.75336 529.80965 802.59375 529.65625 C 802.57312 529.63545 802.5519 529.61453 802.53125 529.59375 C 802.05344 529.10097 801.58312 528.60581 801.09375 528.125 C 800.8339 527.86296 800.57572 527.60231 800.3125 527.34375 C 800.04737 527.07638 799.76864 526.82624 799.5 526.5625 C 799.22448 526.28466 798.9668 525.99267 798.6875 525.71875 C 798.41197 525.4409 798.12306 525.18018 797.84375 524.90625 C 797.26969 524.31065 796.68459 523.73449 796.09375 523.15625 C 795.79744 522.85744 795.51944 522.54427 795.21875 522.25 C 794.90693 521.93555 794.59793 521.62193 794.28125 521.3125 C 793.96943 520.99805 793.66043 520.68443 793.34375 520.375 C 792.94349 519.97137 792.53327 519.58283 792.125 519.1875 C 791.6904 518.73853 791.25666 518.28283 790.8125 517.84375 C 790.34373 517.36465 789.85485 516.90513 789.375 516.4375 C 789.27699 516.33866 789.16099 516.2546 789.0625 516.15625 C 788.57651 515.65393 788.09172 515.14618 787.59375 514.65625 C 787.3102 514.3672 787.03757 514.06613 786.75 513.78125 C 786.20898 513.22596 785.64959 512.6962 785.09375 512.15625 C 784.72466 511.78405 784.3759 511.3964 784 511.03125 C 783.72447 510.7534 783.43556 510.49268 783.15625 510.21875 C 783.08129 510.14797 783.01273 510.0705 782.9375 510 C 782.90578 509.96912 782.87552 509.93708 782.84375 509.90625 C 782.7148 509.77621 782.56728 509.66044 782.4375 509.53125 C 781.79791 508.86949 781.16043 508.20269 780.5 507.5625 C 780.09972 507.15885 779.72079 506.7391 779.3125 506.34375 C 779.06815 506.09735 778.80982 505.86833 778.5625 505.625 C 778.16145 505.21406 777.75291 504.8088 777.34375 504.40625 C 776.76819 503.81634 776.18609 503.22879 775.59375 502.65625 C 775.36691 502.42749 775.13566 502.19485 774.90625 501.96875 C 774.84709 501.91289 774.77808 501.86818 774.71875 501.8125 C 774.5776 501.67418 774.45463 501.51231 774.3125 501.375 C 773.88103 500.9399 773.47204 500.48796 773.03125 500.0625 C 772.81808 499.84754 772.59043 499.65012 772.375 499.4375 C 772.32145 499.38694 772.27243 499.33166 772.21875 499.28125 C 771.78707 498.83847 771.34734 498.4018 770.90625 497.96875 C 770.50578 497.55756 770.09606 497.15282 769.6875 496.75 C 769.1939 496.24103 768.69344 495.7462 768.1875 495.25 C 767.73268 494.78287 767.27777 494.33131 766.8125 493.875 C 766.34024 493.38961 765.85854 492.91122 765.375 492.4375 C 764.95631 492.00748 764.55254 491.57711 764.125 491.15625 C 763.59591 490.60985 763.04329 490.0942 762.5 489.5625 C 762.01744 489.06653 761.52558 488.57753 761.03125 488.09375 C 760.54869 487.59778 760.05683 487.10878 759.5625 486.625 C 759.06999 486.11827 758.56729 485.61902 758.0625 485.125 C 757.47928 484.52476 756.88173 483.95737 756.28125 483.375 C 756.21084 483.29934 756.13316 483.23165 756.0625 483.15625 C 756.00411 483.10004 755.96481 483.02479 755.90625 482.96875 C 755.39161 482.44977 754.90293 481.91147 754.375 481.40625 C 753.85001 480.87684 753.32007 480.35884 752.78125 479.84375 C 752.36353 479.42251 751.92645 479.00595 751.5 478.59375 C 751.46984 478.56134 751.43646 478.53236 751.40625 478.5 C 751.32721 478.42384 751.26685 478.32584 751.1875 478.25 C 751.04312 478.1044 750.89542 477.95703 750.75 477.8125 C 749.83223 476.8505 748.89878 475.91697 747.9375 475 C 747.38647 474.44432 746.84753 473.88364 746.28125 473.34375 C 745.72502 472.78283 745.19677 472.20108 744.625 471.65625 C 744.28711 471.31551 743.93734 470.99109 743.59375 470.65625 C 743.04022 470.08559 742.47532 469.52332 741.90625 468.96875 C 741.33254 468.37667 740.74668 467.79352 740.15625 467.21875 C 739.35714 466.39461 738.55048 465.57162 737.71875 464.78125 C 737.13133 464.18888 736.57351 463.57441 735.96875 463 C 735.371 462.39722 734.77196 461.80293 734.15625 461.21875 C 733.55323 460.61065 732.96505 459.99541 732.34375 459.40625 C 731.73554 458.79291 731.15807 458.15657 730.53125 457.5625 C 730.16218 457.19031 729.78213 456.83389 729.40625 456.46875 C 728.85489 455.89894 728.3168 455.33508 727.75 454.78125 C 727.06929 454.07319 726.36066 453.40229 725.65625 452.71875 C 725.03197 452.07317 724.39412 451.43754 723.75 450.8125 C 722.86909 449.90154 721.98319 448.99478 721.0625 448.125 C 720.7376 447.79736 720.39267 447.47843 720.0625 447.15625 C 719.36399 446.4291 718.66098 445.70131 717.9375 445 C 717.28284 444.32232 716.61401 443.65507 715.9375 443 C 715.28284 442.32232 714.61401 441.65507 713.9375 441 C 713.27763 440.31692 712.58832 439.6601 711.90625 439 C 711.00543 438.06701 710.09872 437.13987 709.15625 436.25 C 708.76465 435.85366 708.36803 435.45089 707.96875 435.0625 C 707.00984 434.06326 706.03758 433.07516 705.03125 432.125 C 704.92787 432.02026 704.82266 431.91669 704.71875 431.8125 C 703.6814 430.69783 702.59378 429.65005 701.5 428.59375 C 700.79541 427.86293 700.10496 427.14207 699.375 426.4375 C 698.45974 425.48812 697.52081 424.56107 696.5625 423.65625 C 695.75998 422.84062 694.99144 422.00054 694.15625 421.21875 C 693.51165 420.56871 692.88427 419.90962 692.21875 419.28125 C 691.48958 418.53945 690.75611 417.80765 690 417.09375 C 689.2602 416.3403 688.5488 415.56846 687.78125 414.84375 C 687.2321 414.28442 686.68937 413.73108 686.125 413.1875 C 685.37987 412.41301 684.61731 411.65131 683.84375 410.90625 C 683.08838 410.12112 682.31585 409.34863 681.53125 408.59375 C 680.77588 407.80862 680.00335 407.03613 679.21875 406.28125 C 678.27948 405.3045 677.32844 404.36723 676.34375 403.4375 C 676.06493 403.15236 675.78272 402.87485 675.5 402.59375 C 675.19284 402.26369 674.87451 401.95005 674.5625 401.625 C 674.37107 401.44072 674.19322 401.24493 674 401.0625 C 673.22043 400.26525 672.43548 399.48399 671.625 398.71875 C 670.79433 397.86837 669.99083 397.00148 669.125 396.1875 C 668.37034 395.41774 667.62732 394.64608 666.84375 393.90625 C 666.20028 393.24691 665.53947 392.60635 664.875 391.96875 C 663.92087 390.975 662.9698 389.97643 661.96875 389.03125 C 661.30375 388.34906 660.62496 387.69019 659.9375 387.03125 C 659.12175 386.18119 658.28743 385.34593 657.4375 384.53125 C 656.61672 383.67595 655.79289 382.81948 654.9375 382 C 654.19376 381.2246 653.42835 380.4648 652.65625 379.71875 C 651.82634 378.84618 650.9592 378.02329 650.09375 377.1875 C 649.04516 376.08444 647.98068 375.01272 646.875 373.96875 C 646.23376 373.30799 645.59965 372.63912 644.9375 372 C 644.08766 371.10557 643.19964 370.26207 642.3125 369.40625 C 641.25428 368.29192 640.17891 367.21035 639.0625 366.15625 C 638.19087 365.25624 637.3168 364.35972 636.40625 363.5 C 635.53462 362.59999 634.66055 361.70347 633.75 360.84375 C 632.86863 359.93276 631.98369 359.02602 631.0625 358.15625 C 630.17733 357.24097 629.30034 356.34245 628.375 355.46875 C 627.85166 354.92688 627.31851 354.40247 626.78125 353.875 C 626.46402 353.53412 626.1349 353.21053 625.8125 352.875 C 625.75897 352.82418 625.70992 352.76943 625.65625 352.71875 C 624.75837 351.78909 623.84551 350.88683 622.90625 350 C 621.99857 349.05923 621.07499 348.11571 620.125 347.21875 C 619.21732 346.27798 618.29374 345.33446 617.34375 344.4375 C 616.42896 343.48865 615.52029 342.56058 614.5625 341.65625 C 613.63527 340.69324 612.6902 339.72973 611.71875 338.8125 C 610.79152 337.84949 609.84645 336.88598 608.875 335.96875 C 607.94509 335.00268 607.00565 334.04501 606.03125 333.125 C 605.08694 332.14249 604.14648 331.18496 603.15625 330.25 C 602.20699 329.26183 601.24568 328.28386 600.25 327.34375 C 599.29352 326.3473 598.31615 325.35388 597.3125 324.40625 C 596.35602 323.4098 595.37865 322.41638 594.375 321.46875 C 593.36798 320.41858 592.37189 319.37095 591.3125 318.375 C 590.37787 317.40354 589.41709 316.45617 588.4375 315.53125 C 587.44911 314.4992 586.4451 313.47981 585.40625 312.5 C 584.34341 311.39048 583.27755 310.299 582.15625 309.25 C 581.23834 308.29863 580.30494 307.34406 579.34375 306.4375 C 578.35811 305.40752 577.34834 304.38427 576.3125 303.40625 C 575.57018 302.62957 574.80187 301.87239 574.03125 301.125 C 573.90532 300.98968 573.78299 300.85323 573.65625 300.71875 C 573.52288 300.59112 573.38423 300.47049 573.25 300.34375 C 572.24005 299.28566 571.219 298.25344 570.15625 297.25 C 569.11926 296.16281 568.06147 295.092 566.96875 294.0625 C 565.94318 292.9886 564.89253 291.92378 563.8125 290.90625 C 563.04026 290.09762 562.24041 289.30815 561.4375 288.53125 C 561.35695 288.4447 561.26838 288.36746 561.1875 288.28125 C 561.02901 288.12919 560.87846 287.9633 560.71875 287.8125 C 559.65918 286.70016 558.58657 285.61454 557.46875 284.5625 C 556.43369 283.47756 555.37182 282.40248 554.28125 281.375 C 553.4692 280.52294 552.62728 279.6919 551.78125 278.875 C 551.71077 278.79927 551.63323 278.73172 551.5625 278.65625 C 551.4145 278.5144 551.27407 278.3595 551.125 278.21875 C 550.04616 277.08387 548.95182 275.97852 547.8125 274.90625 C 546.97712 274.02883 546.12138 273.18392 545.25 272.34375 C 545.05359 272.1327 544.85464 271.92776 544.65625 271.71875 C 544.62412 271.68842 544.59468 271.65528 544.5625 271.625 C 543.51837 270.52832 542.44444 269.47564 541.34375 268.4375 C 540.26912 267.30515 539.16593 266.19519 538.03125 265.125 C 536.93101 263.96566 535.78824 262.84414 534.625 261.75 C 533.56625 260.63626 532.49196 259.52223 531.375 258.46875 C 530.28552 257.3196 529.15126 256.21021 528 255.125 C 526.90097 253.96517 525.78693 252.81348 524.625 251.71875 C 523.52118 250.55329 522.38604 249.41226 521.21875 248.3125 C 520.11508 247.1472 518.97963 246.00588 517.8125 244.90625 C 516.6736 243.70254 515.48782 242.53992 514.28125 241.40625 C 513.17819 240.24235 512.04142 239.09832 510.875 238 C 509.73124 236.79053 508.55578 235.60755 507.34375 234.46875 C 506.22628 233.28844 505.08881 232.11294 503.90625 231 C 502.91531 229.95161 501.88574 228.93306 500.84375 227.9375 C 500.78829 227.87791 500.74311 227.80943 500.6875 227.75 C 500.62856 227.69402 500.55911 227.64956 500.5 227.59375 C 499.3154 226.33491 498.10184 225.12028 496.84375 223.9375 C 495.6912 222.71691 494.5032 221.52377 493.28125 220.375 C 492.11638 219.14039 490.92331 217.97369 489.6875 216.8125 C 488.45664 215.50727 487.21647 214.22308 485.90625 213 C 484.92312 211.96406 483.90827 210.9528 482.875 209.96875 C 482.83473 209.92548 482.79036 209.88694 482.75 209.84375 C 482.70716 209.80313 482.66793 209.75928 482.625 209.71875 C 481.52273 208.54383 480.38461 207.42163 479.21875 206.3125 C 479.18343 206.27455 479.16038 206.22539 479.125 206.1875 C 479.08742 206.15188 479.03765 206.1293 479 206.09375 C 477.74739 204.75723 476.4601 203.4699 475.125 202.21875 C 473.9539 200.9774 472.74282 199.76088 471.5 198.59375 C 470.29356 197.31224 469.03269 196.07759 467.75 194.875 C 466.66533 193.72351 465.55234 192.58793 464.40625 191.5 C 464.38611 191.47836 464.36391 191.45912 464.34375 191.4375 C 464.31186 191.40729 464.28194 191.37391 464.25 191.34375 C 463.08886 190.10233 461.88817 188.91819 460.65625 187.75 C 460.63611 187.72836 460.61391 187.70912 460.59375 187.6875 C 460.57231 187.66721 460.55271 187.64526 460.53125 187.625 C 459.25509 186.25923 457.92446 184.96447 456.5625 183.6875 C 455.43806 182.49127 454.28433 181.31528 453.09375 180.1875 C 453.07857 180.17118 453.0777 180.1413 453.0625 180.125 C 453.04633 180.10971 453.01618 180.10903 453 180.09375 C 451.79971 178.80789 450.55732 177.58245 449.28125 176.375 C 449.27118 176.36418 449.26007 176.35456 449.25 176.34375 C 449.23927 176.33361 449.22948 176.32263 449.21875 176.3125 C 447.91376 174.91306 446.55112 173.58768 445.15625 172.28125 C 443.92616 170.97131 442.65326 169.69649 441.34375 168.46875 C 440.09476 167.13736 438.7997 165.84031 437.46875 164.59375 C 436.28979 163.337 435.06435 162.11881 433.8125 160.9375 C 432.40247 159.42237 430.95286 157.96861 429.4375 156.5625 C 428.31583 155.37535 427.15607 154.21296 425.96875 153.09375 C 424.57404 151.59508 423.15398 150.14205 421.65625 148.75 C 407.32927 133.54673 387.81263 123.70717 358.90625 123.78125 z "
       id="path3788"
       clip-path="url(#clipPath4632)" /><path
       display="inline"
       d="m 227.64631,257.14083 c 0,48.53925 3.468,89.325 -20.48175,113.46225 -13.47075,13.57875 -34.72575,21.579 -60.8775,21.579 -42.894,0 -66.710247,-20.8965 -81.911247,-49.812 14.634,-9.34425 29.589,-18.3765 44.831247,-27.1155 6.219,17.391 27.21825,36.9435 50.916,24.9075 15.02025,-7.635 13.28625,-30.78 13.28625,-55.90275 0,-52.16175 0,-112.335 0,-159.396 -0.0472,-0.783 -0.0937,-1.56525 0.549,-1.6605 17.8995,0 35.796,0 53.68875,0 -7.5e-4,41.92125 -7.5e-4,89.349 -7.5e-4,133.938 z m 136.149,-31.54425 c -13.68525,-5.8605 -30.696,-12.7935 -34.866,-25.464 -4.67475,-14.2005 3.297,-25.89975 12.17325,-29.88075 19.51725,-8.766 42.7785,5.667 47.59725,20.47575 14.68725,-8.74275 29.32725,-17.538 42.6195,-27.672 -15.6195,-25.938 -38.5155,-44.5065 -80.25225,-43.17075 -22.98,0.73425 -40.24275,7.989 -53.13075,18.816 -12.57825,10.56375 -22.29075,25.3905 -23.80275,46.49175 -4.51875,63.159 42.741,79.281 83.02125,96.85275 12.6975,5.53875 26.81325,11.1315 32.655,22.13775 12.04575,22.7115 -9.29175,37.695 -27.6735,39.29775 -29.502,2.57025 -49.3935,-14.69025 -60.88125,-32.655 -14.34975,8.895 -29.9535,16.53375 -43.7235,26.01225 19.15275,33.681 50.55675,55.485 99.62325,55.34475 50.055,-0.141 87.16425,-24.2745 90.21075,-69.73275 4.14225,-61.788 -42.1485,-79.12125 -83.57025,-96.8535 z"
       id="path5"
       inkscape:connector-curvature="0"
       style="display:inline;fill:#ffffff"
       clip-path="url(#clipPath4628)" /><path
       style="display:inline"
       inkscape:connector-curvature="0"
       id="path3773"
       d="m 627.64631,657.14083 c 0,48.53925 3.468,89.325 -20.48175,113.46225 -13.47075,13.57875 -34.72575,21.579 -60.8775,21.579 -42.894,0 -66.71025,-20.8965 -81.91125,-49.812 14.634,-9.34425 29.589,-18.3765 44.83125,-27.1155 6.219,17.391 27.21825,36.9435 50.916,24.9075 15.02025,-7.635 13.28625,-30.78 13.28625,-55.90275 0,-52.16175 0,-112.335 0,-159.396 -0.0472,-0.783 -0.0937,-1.56525 0.549,-1.6605 17.8995,0 35.796,0 53.68875,0 -7.5e-4,41.92125 -7.5e-4,89.349 -7.5e-4,133.938 z m 136.149,-31.54425 c -13.68525,-5.8605 -30.696,-12.7935 -34.866,-25.464 -4.67475,-14.2005 3.297,-25.89975 12.17325,-29.88075 19.51725,-8.766 42.7785,5.667 47.59725,20.47575 14.68725,-8.74275 29.32725,-17.538 42.6195,-27.672 -15.6195,-25.938 -38.5155,-44.5065 -80.25225,-43.17075 -22.98,0.73425 -40.24275,7.989 -53.13075,18.816 -12.57825,10.56375 -22.29075,25.3905 -23.80275,46.49175 -4.51875,63.159 42.741,79.281 83.02125,96.85275 12.6975,5.53875 26.81325,11.1315 32.655,22.13775 12.04575,22.7115 -9.29175,37.695 -27.6735,39.29775 -29.502,2.57025 -49.3935,-14.69025 -60.88125,-32.655 -14.34975,8.895 -29.9535,16.53375 -43.7235,26.01225 19.15275,33.681 50.55675,55.485 99.62325,55.34475 50.055,-0.141 87.16425,-24.2745 90.21075,-69.73275 4.14225,-61.788 -42.1485,-79.12125 -83.57025,-96.8535 z"
       display="inline"
       clip-path="url(#clipPath4624)" /></g></svg>