<?xml version="1.0" encoding="UTF-8" standalone="no"?>
<!-- Created with Inkscape (http://www.inkscape.org/) -->

<svg
   xmlns:dc="http://purl.org/dc/elements/1.1/"
   xmlns:cc="http://creativecommons.org/ns#"
   xmlns:rdf="http://www.w3.org/1999/02/22-rdf-syntax-ns#"
   xmlns:svg="http://www.w3.org/2000/svg"
   xmlns="http://www.w3.org/2000/svg"
   xmlns:sodipodi="http://sodipodi.sourceforge.net/DTD/sodipodi-0.dtd"
   xmlns:inkscape="http://www.inkscape.org/namespaces/inkscape"
   width="96"
   height="96.000023"
   id="svg3605"
   version="1.1"
   inkscape:version="0.48.5 r10040"
   sodipodi:docname="Facebook.svg">
  <defs
     id="defs3607" />
  <sodipodi:namedview
     id="base"
     pagecolor="#ffffff"
     bordercolor="#666666"
     borderopacity="1.0"
     inkscape:pageopacity="0.0"
     inkscape:pageshadow="2"
     inkscape:zoom="1"
     inkscape:cx="730"
     inkscape:cy="-66.481628"
     inkscape:document-units="px"
     inkscape:current-layer="layer1"
     showgrid="false"
     inkscape:window-width="1920"
     inkscape:window-height="1017"
     inkscape:window-x="-8"
     inkscape:window-y="-8"
     inkscape:window-maximized="1"
     fit-margin-top="0"
     fit-margin-left="0"
     fit-margin-right="0"
     fit-margin-bottom="0" />
  <metadata
     id="metadata3610">
    <rdf:RDF>
      <cc:Work
         rdf:about="">
        <dc:format>image/svg+xml</dc:format>
        <dc:type
           rdf:resource="http://purl.org/dc/dcmitype/StillImage" />
        <dc:title></dc:title>
      </cc:Work>
    </rdf:RDF>
  </metadata>
  <g
     inkscape:label="Layer 1"
     inkscape:groupmode="layer"
     id="layer1"
     transform="translate(0,-956.36218)">
    <path
       style="fill:#d8d8d8"
       inkscape:connector-curvature="0"
       d="m 48,1052.3622 c 26.509664,0 48,-21.4904 48,-48 0,-26.5096 -21.490336,-48 -48,-48 -26.509664,0 -48,21.4904 -48,48 0,26.5096 21.490336,48 48,48 z m -12.234304,-25.381 -10.86216,0 0,-32.68332 10.86216,0 0,32.68332 z m -5.430864,-37.14428 -0.06944,0 c -3.646672,0 -6.004176,-2.51104 -6.004176,-5.64928 0,-3.20464 2.429312,-5.64544 6.145184,-5.64544 3.715872,0 6.004176,2.4408 6.074688,5.64544 0,3.13824 -2.358816,5.64928 -6.146272,5.64928 z m 44.603504,37.14428 -10.861728,0 0,-17.4856 c 0,-4.392 -1.571808,-7.3889 -5.503952,-7.3889 -3.000896,0 -4.788336,2.0203 -5.573376,3.9718 -0.287216,0.6994 -0.357712,1.6738 -0.357712,2.6506 l 0,18.2531 -10.863456,0 c 0,0 0.1432,-29.61664 0,-32.68336 l 10.863456,0 0,4.62928 c 1.441664,-2.22544 4.023696,-5.39776 9.790784,-5.39776 7.147792,0 12.506416,4.67232 12.506416,14.71134 l -4.32e-4,18.7395 z"
       id="path4189" />
  </g>
</svg>
