<?xml version="1.0" encoding="UTF-8" standalone="no"?>
<svg
   xmlns:dc="http://purl.org/dc/elements/1.1/"
   xmlns:cc="http://creativecommons.org/ns#"
   xmlns:rdf="http://www.w3.org/1999/02/22-rdf-syntax-ns#"
   xmlns:svg="http://www.w3.org/2000/svg"
   xmlns="http://www.w3.org/2000/svg"
   xmlns:xlink="http://www.w3.org/1999/xlink"
   xmlns:sodipodi="http://sodipodi.sourceforge.net/DTD/sodipodi-0.dtd"
   xmlns:inkscape="http://www.inkscape.org/namespaces/inkscape"
   version="1.1"
   x="0px"
   y="0px"
   width="512px"
   height="512px"
   viewBox="0 0 512 512"
   enable-background="new 0 0 512 512"
   xml:space="preserve"
   id="svg2"
   inkscape:version="0.48.5 r10040"
   sodipodi:docname="prog-php02.svg"><sodipodi:namedview
     pagecolor="#ffffff"
     bordercolor="#666666"
     borderopacity="1"
     objecttolerance="10"
     gridtolerance="10"
     guidetolerance="10"
     inkscape:pageopacity="0"
     inkscape:pageshadow="2"
     inkscape:window-width="1920"
     inkscape:window-height="1017"
     id="namedview7"
     showgrid="false"
     inkscape:zoom="0.921875"
     inkscape:cx="278.39853"
     inkscape:cy="153.90611"
     inkscape:window-x="-8"
     inkscape:window-y="-8"
     inkscape:window-maximized="1"
     inkscape:current-layer="layer2" /><metadata
     id="metadata11"><rdf:RDF><cc:Work
         rdf:about=""><dc:format>image/svg+xml</dc:format><dc:type
           rdf:resource="http://purl.org/dc/dcmitype/StillImage" /></cc:Work></rdf:RDF></metadata><defs
     id="defs9"><linearGradient
       inkscape:collect="always"
       id="linearGradient4594"><stop
         style="stop-color:#000000;stop-opacity:0.4"
         offset="0"
         id="stop4596" /><stop
         style="stop-color:#000000;stop-opacity:0;"
         offset="1"
         id="stop4598" /></linearGradient><linearGradient
       inkscape:collect="always"
       xlink:href="#linearGradient4594"
       id="linearGradient4600"
       x1="484.88135"
       y1="484.88135"
       x2="654.92139"
       y2="687.46375"
       gradientUnits="userSpaceOnUse" /><clipPath
       clipPathUnits="userSpaceOnUse"
       id="clipPath4605"><rect
         style="fill:#7560e2;fill-opacity:1;stroke:none;display:inline"
         id="rect4607"
         width="512"
         height="512"
         x="0"
         y="-2.7014971e-007" /></clipPath><clipPath
       clipPathUnits="userSpaceOnUse"
       id="clipPath4609"><rect
         style="fill:#7560e2;fill-opacity:1;stroke:none;display:inline"
         id="rect4611"
         width="512"
         height="512"
         x="0"
         y="-2.7014971e-007" /></clipPath><clipPath
       clipPathUnits="userSpaceOnUse"
       id="clipPath4613"><rect
         style="fill:#7560e2;fill-opacity:1;stroke:none;display:inline"
         id="rect4615"
         width="512"
         height="512"
         x="0"
         y="-2.7014971e-007" /></clipPath></defs><g
     style="display:inline"
     inkscape:label="Background"
     id="layer1"
     inkscape:groupmode="layer"><rect
       y="-2.7014971e-007"
       x="0"
       height="512"
       width="512"
       id="rect2994"
       style="opacity:1;fill:#8e80e2;fill-opacity:1;stroke:none" /></g><g
     style="display:inline"
     inkscape:label="Icon"
     id="layer2"
     inkscape:groupmode="layer"><path
       style="fill:url(#linearGradient4600);fill-opacity:1;display:inline;opacity:0.3"
       d="M 223.5625,164.53125 210,234.28125 c -0.2398,-0.24756 -0.50291,-0.47825 -0.75,-0.71875 -0.2765,-0.28665 -0.55751,-0.56654 -0.84375,-0.84375 -0.25015,-0.25794 -0.49192,-0.53099 -0.75,-0.78125 -0.24502,-0.25232 -0.49738,-0.50503 -0.75,-0.75 -0.25655,-0.2642 -0.51637,-0.52512 -0.78125,-0.78125 -0.23172,-0.23743 -0.48027,-0.45662 -0.71875,-0.6875 -0.19498,-0.19955 -0.39399,-0.39883 -0.59375,-0.59375 -0.21954,-0.22638 -0.4306,-0.46704 -0.65625,-0.6875 -0.21558,-0.22207 -0.43479,-0.43988 -0.65625,-0.65625 -0.21066,-0.21701 -0.43997,-0.41343 -0.65625,-0.625 -0.22092,-0.22729 -0.42917,-0.46619 -0.65625,-0.6875 -0.18424,-0.18878 -0.37399,-0.37785 -0.5625,-0.5625 -0.21084,-0.21664 -0.4398,-0.4138 -0.65625,-0.625 -0.20624,-0.21107 -0.41341,-0.41911 -0.625,-0.625 -0.14415,-0.14679 -0.29075,-0.29323 -0.4375,-0.4375 -0.18549,-0.19036 -0.37267,-0.37634 -0.5625,-0.5625 -0.26756,-0.27389 -0.53594,-0.54733 -0.8125,-0.8125 -0.24049,-0.24994 -0.47087,-0.50721 -0.71875,-0.75 -0.14483,-0.14765 -0.29005,-0.29239 -0.4375,-0.4375 -0.14447,-0.14732 -0.29042,-0.29271 -0.4375,-0.4375 -0.15473,-0.15778 -0.31102,-0.31387 -0.46875,-0.46875 -0.2055,-0.20899 -0.41422,-0.42112 -0.625,-0.625 -0.12977,-0.12968 -0.27441,-0.24732 -0.40625,-0.375 -0.16982,-0.17472 -0.32654,-0.36006 -0.5,-0.53125 -0.18608,-0.18924 -0.3721,-0.37745 -0.5625,-0.5625 -0.10468,-0.10461 -0.20648,-0.2092 -0.3125,-0.3125 -0.0987,-0.0986 -0.21262,-0.18379 -0.3125,-0.28125 -0.0314,-0.0314 -0.0622,-0.0625 -0.0937,-0.0937 -0.0205,-0.0208 -0.042,-0.0417 -0.0625,-0.0625 -0.0465,-0.048 -0.0782,-0.10855 -0.125,-0.15625 -0.0838,-0.0837 -0.16538,-0.16713 -0.25,-0.25 -0.0829,-0.0829 -0.16623,-0.16795 -0.25,-0.25 -0.0828,-0.0828 -0.16632,-0.16804 -0.25,-0.25 -0.0725,-0.0725 -0.14558,-0.1469 -0.21875,-0.21875 -0.0368,-0.0368 -0.088,-0.0571 -0.125,-0.0937 -0.0101,-0.01 -0.0212,-0.0213 -0.0312,-0.0312 -0.006,-0.006 0.006,-0.0249 0,-0.0312 -0.0103,-0.0106 -0.0209,-0.0206 -0.0312,-0.0312 -0.0364,-0.0364 -0.0884,-0.0575 -0.125,-0.0937 -0.0155,-0.016 -0.0157,-0.0465 -0.0312,-0.0625 -0.0104,-0.0105 -0.0208,-0.0207 -0.0312,-0.0312 -0.0518,-0.0518 -0.10409,-0.10477 -0.15625,-0.15625 -0.0517,-0.0517 -0.10419,-0.10487 -0.15625,-0.15625 -0.01,-0.01 -0.0212,-0.0212 -0.0312,-0.0312 -0.005,-0.005 -0.0263,0.005 -0.0312,0 -0.01,-0.01 -0.0216,-0.0216 -0.0312,-0.0312 -0.009,-0.009 -0.0218,-0.0218 -0.0312,-0.0312 -0.005,-0.005 0.005,-0.0258 0,-0.0312 -0.0414,-0.0414 -0.0834,-0.0838 -0.125,-0.125 -0.0314,-0.0314 -0.0622,-0.0625 -0.0937,-0.0937 -0.0209,-0.0209 -0.0415,-0.0416 -0.0625,-0.0625 -0.0207,-0.0207 -0.0417,-0.0418 -0.0625,-0.0625 -0.0212,-0.0212 -0.0412,-0.0413 -0.0625,-0.0625 -0.0415,-0.0414 -0.0833,-0.0838 -0.125,-0.125 -0.42474,-0.41602 -0.86607,-0.82373 -1.3125,-1.21875 -0.0328,-0.0287 -0.0608,-0.0652 -0.0937,-0.0937 -0.0216,-0.0188 -0.0409,-0.0437 -0.0625,-0.0625 -0.006,-0.005 -0.0255,0.005 -0.0312,0 -0.0219,-0.0191 -0.0405,-0.0434 -0.0625,-0.0625 -0.011,-0.01 -0.0203,-0.0217 -0.0312,-0.0312 -0.0107,-0.009 -0.0206,-0.022 -0.0312,-0.0312 -0.3111,-0.27148 -0.64726,-0.51983 -0.96875,-0.78125 -0.0867,-0.0701 -0.16252,-0.14935 -0.25,-0.21875 -0.16632,-0.1325 -0.33095,-0.2764 -0.5,-0.40625 -0.67022,-0.51544 -1.38057,-1.02617 -2.09375,-1.5 -0.012,-0.008 -0.0193,-0.0233 -0.0312,-0.0312 -0.65231,-0.4323 -1.31183,-0.82119 -2,-1.21875 -0.012,-0.007 -0.0192,-0.0243 -0.0312,-0.0312 -0.012,-0.007 -0.0192,-0.0244 -0.0312,-0.0312 -0.70691,-0.40629 -1.44289,-0.78648 -2.1875,-1.15625 -0.008,-0.004 -0.0228,0.004 -0.0312,0 -0.74497,-0.36933 -1.4986,-0.72969 -2.28125,-1.0625 -0.009,-0.004 -0.0224,0.004 -0.0312,0 -0.18221,-0.0773 -0.37825,-0.14338 -0.5625,-0.21875 -0.60414,-0.24712 -1.21768,-0.49289 -1.84375,-0.71875 -6.65166,-2.39969 -14.52988,-3.625 -23.65625,-3.625 l -60.5625,0 L 64.375,347.5 l 0.03125,0 0,0.0312 0.03125,0 0,0.0312 0.0625,0 0,0.0625 0.125,0 -0.03125,0.0937 0.125,0 -0.03125,0.0937 0.15625,0 -0.03125,0.0937 0.15625,0 -0.03125,0.15625 0.15625,0 -0.03125,0.125 0.21875,0 -0.03125,0.15625 0.21875,0 -0.03125,0.1875 0.21875,0 -0.03125,0.21875 0.25,0 -0.03125,0.21875 0.25,0 -0.03125,0.21875 0.3125,0 -0.0625,0.25 0.34375,0 -0.0625,0.28125 0.34375,0 -0.0625,0.2815 0.375,0 -0.0625,0.3125 0.375,0 -0.0625,0.3125 0.40625,0 -0.0625,0.34375 0.40625,0 -0.0625,0.34375 0.4375,0 -0.0625,0.375 0.46875,0 -0.0625,0.375 0.5,0 -0.09375,0.40625 0.5,0 -0.09375,0.4375 0.53125,0 -0.09375,0.4375 0.5625,0 -0.09375,0.46875 0.5625,0 -0.09375,0.46875 0.59375,0 -0.09375,0.5 0.59375,0 -0.09375,0.5 0.625,0 -0.09375,0.53125 0.65625,0 -0.09375,0.5625 0.65625,0 -0.09375,0.5625 0.6875,0 -0.125,0.5625 0.75,0 -0.125,0.59375 0.71875,0 -0.125,0.625 0.78125,0 -0.125,0.625 0.75,0 -0.125,0.65625 0.8125,0 -0.125,0.65625 0.8125,0 -0.125,0.6875 0.8125,0 -0.125,0.71875 0.84375,0 -0.125,0.71875 0.875,0 -0.125,0.71875 0.90625,0 -0.15625,0.75 0.90625,0 -0.15625,0.78125 0.96875,0 -0.15625,0.78125 0.9375,0 -0.15625,0.8125 1,0 -0.15625,0.8125 1,0 -0.15625,0.84375 1,0 -0.15625,0.875 1.03125,0 -0.15625,0.875 1.0625,0 -0.15625,0.875 1.09375,0 -0.1875,0.90625 1.09375,0 -0.1875,0.9375 1.15625,0 -0.1875,0.9375 1.125,0 -0.1875,0.96875 1.1875,0 -0.1875,0.96875 1.1875,0 -0.1875,1 1.1875,0 -0.1875,1.03125 1.21875,0 -0.1875,1.03125 1.25,0 -0.1875,1.03125 1.28125,0 -0.21875,1.0625 1.28125,0 -0.21875,1.09375 1.3125,0 -0.21875,1.09375 1.34375,0 -0.21875,1.125 1.375,0 -0.21875,1.125 1.34375,0 -0.21875,1.15625 1.40625,0 -0.21875,1.1875 1.40625,0 -0.21875,1.1875 1.40625,0 -0.21875,1.1875 1.46875,0 -0.25,1.21875 1.5,0 -0.25,1.25 1.5,0 -0.25,1.25 1.53125,0 -0.25,1.28125 1.53125,0 -0.25,1.28125 1.5625,0 -0.25,1.3125 1.59375,0 -0.25,1.3125 1.59375,0 -0.25,1.34375 1.625,0 -0.28125,1.375 1.65625,0 -0.28125,1.375 1.6875,0 -0.28125,1.40625 1.6875,0 -0.28125,1.40625 1.71875,0 -0.28125,1.4375 1.71875,0 -0.28125,1.4375 1.75,0 -0.28125,1.46875 1.75,0 -0.28125,1.46875 1.78125,0 -0.28125,1.5 1.84375,0 -0.3125,1.53125 1.84375,0 -0.3125,1.53125 1.84375,0 -0.3125,1.53125 1.90625,0 -0.3125,1.5625 1.875,0 -0.3125,1.59375 1.9375,0 -0.3125,1.59375 1.9375,0 -0.3125,1.625 1.9375,0 -0.3125,1.65625 1.96875,0 -0.3125,1.65625 1.96875,0 -0.3125,1.65625 2,0 -0.3125,1.6875 2.0625,0 -0.34375,1.71875 2.0625,0 L 151,434.125 l 2.09375,0 -0.34375,1.75 2.09375,0 -0.34375,1.75 2.125,0 -0.34375,1.78125 2.125,0 -0.34375,1.78125 2.15625,0 -0.34375,1.8125 2.1875,0 -0.34375,1.84375 2.1875,0 -0.34375,1.84375 2.21875,0 -0.34375,1.84375 2.25,0 -0.375,1.875 2.25,0 -0.375,1.90625 2.3125,0 -0.375,1.90625 2.28125,0 -0.375,1.9375 2.34375,0 -0.375,1.96875 2.34375,0 -0.375,1.96875 2.34375,0 -0.375,1.96875 2.375,0 -0.375,2 2.4375,0 -0.40625,2.03125 2.4375,0 L 185,468.125 l 2.46875,0 -0.40625,2.03125 2.46875,0 -0.40625,2.09375 2.5,0 -0.40625,2.09375 2.5,0 -0.40625,2.09375 2.53125,0 -0.40625,2.125 2.5625,0 -0.40625,2.125 2.5625,0 -0.40625,2.15625 2.59375,0 -0.4375,2.1875 2.625,0 -0.4375,2.1875 2.65625,0 -0.4375,2.21875 2.65625,0 -0.4375,2.21875 2.6875,0 -0.4375,2.25 2.6875,0 -0.4375,2.25 2.71875,0 -0.4375,2.28125 2.75,0 -0.4375,2.3125 2.75,0 -0.4375,2.3125 2.75,0 -0.4375,2.3125 2.8125,0 -0.46875,2.34375 2.84375,0 -0.46875,2.375 2.84375,0 -0.46875,2.375 2.875,0 -0.46875,2.40625 2.90625,0 -0.46875,2.40625 2.875,0 -0.46875,2.4375 2.9375,0 -0.46875,2.46875 2.9375,0 -0.46875,2.46875 2.9375,0 L 244,527.125 l 3.03125,0 -0.5,2.5 3,0 -0.5,2.53125 3.03125,0 -0.5,2.53125 3.0625,0 -0.5,2.5625 3.09375,0 -0.5,2.5625 3.0625,0 -0.5,2.59375 3.125,0 -0.5,2.625 3.125,0 -0.5,2.625 3.125,0 -0.5,2.625 3.21875,0 -0.53125,2.65625 3.1875,0 -0.53125,2.6875 3.21875,0 -0.53125,2.6875 3.25,0 -0.53125,2.71875 3.28125,0 -0.53125,2.71875 3.25,0 -0.53125,2.75 3.3125,0 -0.53125,2.78125 3.3125,0 -0.53125,2.78125 3.3125,0 -0.53125,2.78125 3.375,0 -0.5625,2.8125 3.40625,0 -0.5625,2.84375 3.40625,0 -0.5625,2.84375 3.4375,0 -0.5625,2.875 3.4375,0 -0.5625,2.875 3.46875,0 -0.5625,2.90625 3.5,0 -0.5625,2.90625 3.5,0 -0.5625,2.9375 3.5,0 -0.5625,2.96875 3.53125,0 -0.5625,2.96875 3.59375,0 -0.59375,3 3.59375,0 -0.59375,3 3.625,0 -0.59375,3.03125 3.625,0 -0.59375,3.03125 3.65625,0 -0.59375,3.0625 3.65625,0 -0.59375,3.0625 3.6875,0 -0.59375,3.09375 3.71875,0 -0.59375,3.125 3.71875,0 -0.59375,3.125 3.75,0 -0.59375,3.125 3.78125,0 -0.625,3.1875 3.8125,0 -0.625,3.15625 3.8125,0 -0.625,3.21875 3.84375,0 -0.625,3.1875 3.84375,0 -0.625,3.25 3.875,0 -0.625,3.25 3.90625,0 -0.625,3.25 3.90625,0 -0.625,3.28125 3.9375,0 -0.65625,3.3125 3.96875,0 -0.65625,3.3125 4,0 -0.65625,3.34375 4,0 -0.65625,3.34375 4.03125,0 -0.65625,3.375 4.0625,0 -0.65625,3.375 4.0625,0 -0.65625,3.40625 4.0625,0 -0.65625,3.4375 4.09375,0 -0.65625,3.4375 4.15625,0 -0.6875,3.46875 31.46875,0 7.46875,-38.4375 27,0 c 11.90175,0 21.6875,-1.245 29.375,-3.75 7.68525,-2.4975 14.65025,-6.7085 20.9375,-12.59375 0.27803,-0.25551 0.54009,-0.52297 0.8125,-0.78125 l 0.9375,0 -0.65625,3.40625 4.0625,0 -0.65625,3.40625 4.09375,0 -0.65625,3.40625 4.09375,0 -0.65625,3.4375 4.125,0 -0.6875,3.46875 31.25,0 7.71875,-39.75 1.21875,0 -0.59375,3.0625 3.6875,0 -0.59375,3.0625 3.6875,0 -0.59375,3.09375 0.84375,0 0,0.0312 2.84375,0 -0.59375,3.09375 1.09375,0 -0.0312,0.21875 2.625,0 -0.5625,2.90625 1.375,0 -0.0937,0.4375 2.40625,0 -0.53125,2.6875 1.59375,0 -0.125,0.65625 2.1875,0 -0.5,2.53125 1.84375,0 -0.15625,0.84375 1.9375,0 -0.4375,2.3125 2.125,0 -0.21875,1.09375 1.6875,0 -0.40625,2.125 2.375,0 -0.25,1.28125 1.46875,0 -0.375,1.90625 2.59375,0 -0.28125,1.5 1.25,0 -0.34375,1.75 2.84375,0 -0.3125,1.6875 1.03125,0 -0.3125,1.5625 3.125,0 -0.375,1.90625 0.78125,0 -0.25,1.34375 3.9375,0 -0.65625,3.28125 3.90625,0 -0.625,3.3125 4,0 -0.65625,3.3125 3.96875,0 -0.65625,3.34375 4.03125,0 -0.65625,3.34375 4,0 -0.65625,3.375 4.0625,0 -0.65625,3.375 4.0625,0 -0.65625,3.40625 4.0625,0 -0.65625,3.4375 4.09375,0 -0.65625,3.4375 4.15625,0 -0.6875,3.46875 31.5,0 7.46875,-38.4375 26.96875,0 c 11.90175,0 21.68675,-1.245 29.375,-3.75 7.68525,-2.4975 14.65025,-6.7085 20.9375,-12.59375 5.277,-4.85025 9.5745,-10.1805 12.84375,-16.03125 3.2655,-5.84775 5.565,-12.31675 6.9375,-19.375 3.3315,-17.136 0.82375,-30.46875 -7.53125,-40.03125 -1.04409,-1.19512 -2.17666,-2.32925 -3.375,-3.375 -0.0248,-0.0285 -0.0376,-0.0653 -0.0625,-0.0937 -1.07285,-1.22804 -2.23304,-2.36717 -3.46875,-3.4375 -1.06306,-1.21683 -2.18329,-2.34426 -3.40625,-3.40625 -1.05375,-1.20618 -2.19539,-2.35222 -3.40625,-3.40625 -1.04409,-1.19512 -2.17666,-2.32925 -3.375,-3.375 -0.005,-0.006 0.005,-0.0252 0,-0.0312 -1.04409,-1.19512 -2.17666,-2.298 -3.375,-3.34375 -0.005,-0.006 0.005,-0.0252 0,-0.0312 -1.04409,-1.19512 -2.17666,-2.298 -3.375,-3.34375 -1.03909,-1.18939 -2.12064,-2.3023 -3.3125,-3.34375 -1.02943,-1.17834 -2.13312,-2.27936 -3.3125,-3.3125 -1.02479,-1.17302 -2.13912,-2.25212 -3.3125,-3.28125 -0.01,-0.011 -0.0216,-0.0202 -0.0312,-0.0312 -0.0111,-0.01 -0.0202,-0.0216 -0.0312,-0.0312 -0.99854,-1.13724 -2.0799,-2.21739 -3.21875,-3.21875 -0.0147,-0.0168 -0.0166,-0.0457 -0.0312,-0.0625 -0.0168,-0.0147 -0.0457,-0.0166 -0.0625,-0.0312 -0.99021,-1.12491 -2.05969,-2.19585 -3.1875,-3.1875 -0.0147,-0.0168 -0.0166,-0.0457 -0.0312,-0.0625 -0.0168,-0.0147 -0.0457,-0.0166 -0.0625,-0.0312 -0.98966,-1.12428 -2.02914,-2.16507 -3.15625,-3.15625 -0.0195,-0.0223 -0.043,-0.0402 -0.0625,-0.0625 -0.0113,-0.01 -0.02,-0.0214 -0.0312,-0.0312 -0.97988,-1.11309 -2.01038,-2.14239 -3.125,-3.125 -0.0193,-0.0221 -0.0431,-0.0404 -0.0625,-0.0625 -0.0223,-0.0196 -0.0401,-0.043 -0.0625,-0.0625 -0.96244,-1.0906 -2.00167,-2.12869 -3.09375,-3.09375 -0.0243,-0.0278 -0.0381,-0.066 -0.0625,-0.0937 -0.0278,-0.0244 -0.0658,-0.0381 -0.0937,-0.0625 -1.02185,-1.15502 -2.0824,-2.26737 -3.25,-3.28125 -0.92297,-1.03665 -1.92769,-2.01521 -2.96875,-2.9375 -0.029,-0.0331 -0.0647,-0.0607 -0.0937,-0.0937 -0.0331,-0.0291 -0.0605,-0.0647 -0.0937,-0.0937 -1.01351,-1.1427 -2.06226,-2.24576 -3.21875,-3.25 -0.90468,-1.01356 -1.88842,-1.97102 -2.90625,-2.875 -0.034,-0.0389 -0.0596,-0.0863 -0.0937,-0.125 -0.0388,-0.0342 -0.086,-0.0597 -0.125,-0.0937 -1.00085,-1.12559 -2.04759,-2.19657 -3.1875,-3.1875 -0.89001,-0.99592 -1.81311,-1.95375 -2.8125,-2.84375 -0.039,-0.0446 -0.0858,-0.0806 -0.125,-0.125 -0.0445,-0.0393 -0.0802,-0.0859 -0.125,-0.125 -0.89361,-1.00226 -1.83961,-1.94853 -2.84375,-2.84375 -0.95721,-1.09567 -2.0069,-2.09238 -3.09375,-3.0625 -0.0436,-0.0499 -0.0811,-0.10658 -0.125,-0.15625 -0.0498,-0.0439 -0.10618,-0.0813 -0.15625,-0.125 -0.97864,-1.09509 -1.98287,-2.15797 -3.09375,-3.125 -0.85645,-0.95422 -1.76149,-1.8309 -2.71875,-2.6875 -0.0483,-0.0553 -0.10765,-0.10132 -0.15625,-0.15625 -0.0551,-0.0487 -0.10085,-0.1079 -0.15625,-0.15625 -0.97555,-1.08889 -1.98715,-2.13177 -3.09375,-3.09375 -0.83341,-0.92529 -1.69649,-1.79181 -2.625,-2.625 -0.0483,-0.0553 -0.10765,-0.10132 -0.15625,-0.15625 -0.0667,-0.0591 -0.12036,-0.12891 -0.1875,-0.1875 -0.83323,-0.92769 -1.69642,-1.82089 -2.625,-2.65625 -0.0585,-0.067 -0.12851,-0.12101 -0.1875,-0.1875 -0.0667,-0.0591 -0.12036,-0.12891 -0.1875,-0.1875 -0.81958,-0.90993 -1.6822,-1.77288 -2.59375,-2.59375 -0.91859,-1.05146 -1.93077,-2.00165 -2.96875,-2.9375 -0.0629,-0.072 -0.12401,-0.14726 -0.1875,-0.21875 -0.0717,-0.0636 -0.14652,-0.12447 -0.21875,-0.1875 -0.86612,-0.95947 -1.78141,-1.88976 -2.75,-2.75 -0.84435,-0.94958 -1.74418,-1.86501 -2.6875,-2.71875 -0.90393,-1.03468 -1.88671,-1.98352 -2.90625,-2.90625 -1.04409,-1.19513 -2.17666,-2.298 -3.375,-3.34375 -0.76203,-0.83961 -1.53411,-1.64301 -2.375,-2.40625 -1.04409,-1.19513 -2.17666,-2.298 -3.375,-3.34375 -0.74313,-0.81671 -1.49458,-1.59948 -2.3125,-2.34375 -0.87496,-1.00153 -1.82921,-1.91587 -2.8125,-2.8125 -0.95721,-1.09567 -2.0069,-2.09238 -3.09375,-3.0625 -0.87595,-0.98018 -1.79936,-1.93492 -2.78125,-2.8125 -0.87061,-0.97293 -1.77488,-1.90952 -2.75,-2.78125 -0.86601,-0.96757 -1.81186,-1.8513 -2.78125,-2.71875 -0.7597,-0.84796 -1.56708,-1.66651 -2.40625,-2.4375 -0.846,-0.96838 -1.77148,-1.84844 -2.71875,-2.71875 -0.83635,-0.95733 -1.75218,-1.82601 -2.6875,-2.6875 -0.9379,-1.07357 -1.96889,-2.04696 -3.03125,-3 -0.73132,-0.81423 -1.50773,-1.60064 -2.3125,-2.34375 -0.93289,-1.06784 -1.94397,-2.05141 -3,-3 -0.94757,-1.05362 -1.92929,-2.06563 -3,-3 -0.72253,-0.77952 -1.45813,-1.53763 -2.25,-2.25 -0.81958,-0.90993 -1.6822,-1.77288 -2.59375,-2.59375 -0.68845,-0.76358 -1.43422,-1.4867 -2.1875,-2.1875 -0.79773,-0.91312 -1.67473,-1.73657 -2.5625,-2.5625 -0.78808,-0.90207 -1.6553,-1.71427 -2.53125,-2.53125 -0.91358,-1.04573 -1.90582,-2.00613 -2.9375,-2.9375 -0.73854,-0.81707 -1.53081,-1.59873 -2.34375,-2.34375 -0.83974,-0.94184 -1.7189,-1.84018 -2.65625,-2.6875 -0.84139,-0.92965 -1.71842,-1.81998 -2.65625,-2.65625 -0.72855,-0.79292 -1.48155,-1.55724 -2.28125,-2.28125 -0.77257,-0.85228 -1.58376,-1.66382 -2.4375,-2.4375 -0.76449,-0.84256 -1.59361,-1.64058 -2.4375,-2.40625 -0.7123,-0.78552 -1.43748,-1.53127 -2.21875,-2.25 -0.83159,-0.92912 -1.72933,-1.7882 -2.65625,-2.625 -0.57974,-0.6347 -1.18742,-1.22171 -1.8125,-1.8125 -0.83635,-0.95733 -1.75218,-1.82601 -2.6875,-2.6875 -0.78916,-0.87839 -1.62533,-1.70441 -2.5,-2.5 -0.73639,-0.80857 -1.50273,-1.60624 -2.3125,-2.34375 -0.67763,-0.74308 -1.41658,-1.44201 -2.15625,-2.125 -0.72144,-0.80097 -1.48854,-1.54929 -2.28125,-2.28125 -0.77051,-0.85545 -1.5857,-1.66077 -2.4375,-2.4375 -0.71592,-0.78412 -1.43366,-1.56411 -2.21875,-2.28125 -0.71145,-0.77788 -1.47037,-1.5069 -2.25,-2.21875 -0.70643,-0.77272 -1.44506,-1.51116 -2.21875,-2.21875 -0.72686,-0.79374 -1.48332,-1.55633 -2.28125,-2.28125 -0.64756,-0.70265 -1.32766,-1.35161 -2.03125,-2 -0.71189,-0.78167 -1.46953,-1.53474 -2.25,-2.25 -0.68501,-0.74651 -1.40825,-1.47074 -2.15625,-2.15625 -0.76836,-0.83734 -1.55864,-1.64566 -2.40625,-2.40625 -0.56806,-0.6048 -1.13967,-1.18613 -1.75,-1.75 -0.69307,-0.7591 -1.4296,-1.49118 -2.1875,-2.1875 -0.71421,-0.77638 -1.43625,-1.53976 -2.21875,-2.25 -0.6106,-0.65461 -1.24646,-1.29928 -1.90625,-1.90625 -0.69952,-0.75942 -1.42256,-1.49144 -2.1875,-2.1875 -0.60369,-0.64721 -1.22322,-1.27436 -1.875,-1.875 -0.60026,-0.65053 -1.22665,-1.27104 -1.875,-1.875 -0.67654,-0.74067 -1.38672,-1.44412 -2.125,-2.125 -0.63242,-0.68485 -1.31424,-1.33554 -2,-1.96875 -0.58307,-0.63065 -1.18415,-1.25695 -1.8125,-1.84375 -0.65755,-0.71806 -1.34678,-1.40077 -2.0625,-2.0625 -0.56835,-0.61392 -1.16994,-1.20893 -1.78125,-1.78125 -0.65278,-0.71285 -1.35239,-1.37391 -2.0625,-2.03125 -0.56392,-0.6084 -1.14385,-1.21376 -1.75,-1.78125 -0.63851,-0.6955 -1.30679,-1.35747 -2,-2 -0.64218,-0.69194 -1.30312,-1.36103 -2,-2 -0.54556,-0.58049 -1.10298,-1.14473 -1.6875,-1.6875 -0.54249,-0.58347 -1.10605,-1.14176 -1.6875,-1.6875 -0.61941,-0.67299 -1.26675,-1.31423 -1.9375,-1.9375 -0.57255,-0.61536 -1.16534,-1.20789 -1.78125,-1.78125 -0.56829,-0.60966 -1.17032,-1.18163 -1.78125,-1.75 -0.56291,-0.60427 -1.11397,-1.21752 -1.71875,-1.78125 -0.5583,-0.59817 -1.1506,-1.16038 -1.75,-1.71875 -0.55321,-0.59308 -1.12516,-1.16477 -1.71875,-1.71875 -0.50371,-0.53902 -1.02538,-1.05584 -1.5625,-1.5625 -0.58106,-0.62812 -1.1865,-1.22789 -1.8125,-1.8125 -0.57426,-0.61411 -1.1636,-1.20917 -1.78125,-1.78125 -0.49638,-0.52552 -1.00279,-1.0368 -1.53125,-1.53125 -0.52432,-0.55965 -1.06457,-1.10031 -1.625,-1.625 -0.4819,-0.51404 -0.98762,-1.01547 -1.5,-1.5 -0.5473,-0.58863 -1.10055,-1.16852 -1.6875,-1.71875 -0.47182,-0.50264 -0.96775,-0.99436 -1.46875,-1.46875 -0.53768,-0.57754 -1.1116,-1.11573 -1.6875,-1.65625 -0.53542,-0.56971 -1.0833,-1.12288 -1.65625,-1.65625 -0.4193,-0.44169 -0.83918,-0.89286 -1.28125,-1.3125 -0.48311,-0.5176 -0.98612,-1.0122 -1.5,-1.5 -0.5183,-0.5553 -1.07128,-1.07275 -1.625,-1.59375 -0.51593,-0.54759 -1.04307,-1.07982 -1.59375,-1.59375 -0.46802,-0.49178 -0.94118,-0.97313 -1.4375,-1.4375 -0.43519,-0.45728 -0.8841,-0.91017 -1.34375,-1.34375 -0.49115,-0.51999 -0.97744,-1.04168 -1.5,-1.53125 -0.42225,-0.44311 -0.86725,-0.86042 -1.3125,-1.28125 -0.49649,-0.5246 -1.00273,-1.03767 -1.53125,-1.53125 -0.35851,-0.3745 -0.71874,-0.73524 -1.09375,-1.09375 -0.4767,-0.5085 -0.96222,-1.02038 -1.46875,-1.5 -0.39887,-0.42068 -0.8305,-0.81806 -1.25,-1.21875 -0.42504,-0.45139 -0.86385,-0.88397 -1.3125,-1.3125 -0.45519,-0.4834 -0.924,-0.94906 -1.40625,-1.40625 -0.41636,-0.43859 -0.84244,-0.8644 -1.28125,-1.28125 -0.4572,-0.48064 -0.92203,-0.95178 -1.40625,-1.40625 -0.27208,-0.28278 -0.53096,-0.57013 -0.8125,-0.84375 -0.4526,-0.48615 -0.92657,-0.94633 -1.40625,-1.40625 -0.42542,-0.45006 -0.86353,-0.88525 -1.3125,-1.3125 -0.417,-0.4376 -0.84181,-0.86537 -1.28125,-1.28125 -0.35743,-0.37228 -0.71996,-0.73731 -1.09375,-1.09375 -0.37666,-0.39446 -0.76132,-0.77948 -1.15625,-1.15625 -0.34456,-0.36068 -0.70266,-0.71661 -1.0625,-1.0625 -0.36578,-0.38501 -0.74191,-0.75676 -1.125,-1.125 -0.36578,-0.38501 -0.74191,-0.75676 -1.125,-1.125 -0.37627,-0.39504 -0.76171,-0.7789 -1.15625,-1.15625 -0.35027,-0.36573 -0.72773,-0.71201 -1.09375,-1.0625 -0.34561,-0.36043 -0.70158,-0.7169 -1.0625,-1.0625 -0.36245,-0.378 -0.71446,-0.76331 -1.09375,-1.125 -0.33801,-0.35029 -0.67869,-0.69505 -1.03125,-1.03125 -0.30115,-0.31131 -0.62483,-0.6061 -0.9375,-0.90625 -0.30017,-0.31226 -0.59457,-0.6364 -0.90625,-0.9375 -0.33652,-0.35153 -0.68019,-0.6938 -1.03125,-1.03125 -0.28493,-0.29603 -0.5797,-0.58901 -0.875,-0.875 -0.33164,-0.34643 -0.68548,-0.66724 -1.03125,-1 -0.30055,-0.31188 -0.59418,-0.63678 -0.90625,-0.9375 -0.29548,-0.30621 -0.59965,-0.6108 -0.90625,-0.90625 -0.30718,-0.31834 -0.6183,-0.6308 -0.9375,-0.9375 -0.28757,-0.29653 -0.57695,-0.58862 -0.875,-0.875 -0.25577,-0.26307 -0.51722,-0.52618 -0.78125,-0.78125 -0.25511,-0.26371 -0.51788,-0.52554 -0.78125,-0.78125 -0.2814,-0.29172 -0.55226,-0.59305 -0.84375,-0.875 -0.2398,-0.24756 -0.50291,-0.47825 -0.75,-0.71875 -0.2765,-0.28665 -0.55751,-0.56654 -0.84375,-0.84375 -0.25015,-0.25794 -0.49193,-0.53099 -0.75,-0.78125 -0.24502,-0.25232 -0.49738,-0.50503 -0.75,-0.75 -0.25655,-0.2642 -0.51637,-0.52512 -0.78125,-0.78125 -0.23172,-0.23743 -0.48027,-0.45662 -0.71875,-0.6875 -0.19498,-0.19955 -0.39399,-0.39883 -0.59375,-0.59375 -0.21954,-0.22638 -0.4306,-0.46704 -0.65625,-0.6875 -0.21558,-0.22207 -0.43479,-0.43988 -0.65625,-0.65625 -0.21066,-0.21701 -0.43997,-0.41343 -0.65625,-0.625 -0.22091,-0.22729 -0.42917,-0.46619 -0.65625,-0.6875 -0.18424,-0.18878 -0.37399,-0.37785 -0.5625,-0.5625 -0.21084,-0.21664 -0.4398,-0.4138 -0.65625,-0.625 -0.20624,-0.21107 -0.41341,-0.41911 -0.625,-0.625 -0.2535,-0.25814 -0.48846,-0.5309 -0.75,-0.78125 -0.0726,-0.0725 -0.14554,-0.14687 -0.21875,-0.21875 -0.27241,-0.2792 -0.56199,-0.54235 -0.84375,-0.8125 -0.24049,-0.24994 -0.47087,-0.50721 -0.71875,-0.75 -0.14483,-0.14765 -0.29005,-0.29239 -0.4375,-0.4375 -0.14447,-0.14732 -0.29042,-0.29271 -0.4375,-0.4375 -0.15473,-0.15778 -0.31102,-0.31387 -0.46875,-0.46875 -0.2055,-0.20899 -0.41422,-0.42112 -0.625,-0.625 -0.0518,-0.0518 -0.10411,-0.1048 -0.15625,-0.15625 -0.11972,-0.12179 -0.25349,-0.22369 -0.375,-0.34375 -0.1346,-0.13709 -0.26938,-0.27135 -0.40625,-0.40625 -0.18124,-0.1841 -0.34591,-0.38237 -0.53125,-0.5625 -0.10468,-0.10461 -0.20648,-0.2092 -0.3125,-0.3125 -0.0987,-0.0986 -0.21262,-0.18379 -0.3125,-0.28125 -0.0314,-0.0314 -0.0622,-0.0625 -0.0937,-0.0937 -0.0205,-0.0208 -0.0419,-0.0417 -0.0625,-0.0625 -0.0465,-0.048 -0.0782,-0.10855 -0.125,-0.15625 -0.0838,-0.0837 -0.16538,-0.16713 -0.25,-0.25 -0.0829,-0.0829 -0.16623,-0.16795 -0.25,-0.25 -0.0828,-0.0828 -0.16632,-0.16804 -0.25,-0.25 -0.0733,-0.0732 -0.1448,-0.14615 -0.21875,-0.21875 -0.0628,-0.0628 -0.1242,-0.1252 -0.1875,-0.1875 -0.0622,-0.0622 -0.12482,-0.1258 -0.1875,-0.1875 -0.0518,-0.0518 -0.1041,-0.10478 -0.15625,-0.15625 -0.0518,-0.0518 -0.10412,-0.1048 -0.15625,-0.15625 -0.0414,-0.0414 -0.0833,-0.0838 -0.125,-0.125 -0.0414,-0.0414 -0.0834,-0.0838 -0.125,-0.125 -0.0314,-0.0314 -0.0622,-0.0625 -0.0937,-0.0937 -0.0209,-0.0209 -0.0415,-0.0416 -0.0625,-0.0625 -0.0207,-0.0207 -0.0417,-0.0418 -0.0625,-0.0625 -0.0212,-0.0212 -0.0412,-0.0413 -0.0625,-0.0625 -0.0415,-0.0414 -0.0833,-0.0838 -0.125,-0.125 -0.42474,-0.41602 -0.86607,-0.82373 -1.3125,-1.21875 -0.0328,-0.0287 -0.0608,-0.0652 -0.0937,-0.0937 -0.0216,-0.0188 -0.0409,-0.0437 -0.0625,-0.0625 -0.006,-0.005 -0.0255,0.005 -0.0312,0 -0.0219,-0.0191 -0.0405,-0.0434 -0.0625,-0.0625 -0.011,-0.01 -0.0203,-0.0217 -0.0312,-0.0312 -0.0107,-0.009 -0.0206,-0.022 -0.0312,-0.0312 -0.3111,-0.27148 -0.64726,-0.51983 -0.96875,-0.78125 -0.0867,-0.0701 -0.16252,-0.14935 -0.25,-0.21875 -0.16632,-0.1325 -0.33095,-0.2764 -0.5,-0.40625 -0.67021,-0.51544 -1.38058,-1.02617 -2.09375,-1.5 -0.012,-0.008 -0.0193,-0.0233 -0.0312,-0.0312 -0.6523,-0.4323 -1.31185,-0.82119 -2,-1.21875 -0.012,-0.007 -0.0192,-0.0243 -0.0312,-0.0312 -0.012,-0.007 -0.0192,-0.0244 -0.0312,-0.0312 -0.70689,-0.40629 -1.44292,-0.78648 -2.1875,-1.15625 -0.008,-0.004 -0.0228,0.004 -0.0312,0 -0.74494,-0.36933 -1.49863,-0.72969 -2.28125,-1.0625 -0.009,-0.004 -0.0224,0.004 -0.0312,0 -0.1822,-0.0773 -0.37826,-0.14338 -0.5625,-0.21875 -0.60411,-0.24712 -1.21771,-0.49289 -1.84375,-0.71875 -6.65129,-2.39969 -14.53139,-3.625 -23.65625,-3.625 l -60.5625,0 -5.875,30.15625 c -0.2122,-0.22522 -0.43293,-0.44007 -0.65625,-0.65625 -0.25945,-0.28151 -0.53601,-0.54484 -0.8125,-0.8125 -0.24947,-0.27069 -0.51603,-0.52337 -0.78125,-0.78125 -0.24947,-0.27069 -0.51603,-0.52337 -0.78125,-0.78125 -0.23949,-0.25986 -0.49599,-0.50195 -0.75,-0.75 -0.2345,-0.25445 -0.47033,-0.50687 -0.71875,-0.75 -0.22656,-0.24583 -0.4792,-0.48349 -0.71875,-0.71875 -0.22163,-0.24048 -0.48468,-0.45713 -0.71875,-0.6875 -0.21953,-0.2382 -0.45577,-0.45922 -0.6875,-0.6875 -0.20955,-0.22738 -0.43558,-0.43791 -0.65625,-0.65625 -0.20955,-0.22738 -0.43558,-0.43791 -0.65625,-0.65625 -0.19958,-0.21655 -0.41534,-0.41665 -0.625,-0.625 -0.19958,-0.21655 -0.41534,-0.41665 -0.625,-0.625 -0.1896,-0.20572 -0.39505,-0.39543 -0.59375,-0.59375 -0.36921,-0.40062 -0.75253,-0.7837 -1.15625,-1.15625 -0.01,-0.0108 -0.0213,-0.0204 -0.0312,-0.0312 -0.16732,-0.16701 -0.32622,-0.33824 -0.5,-0.5 -0.0299,-0.0325 -0.0636,-0.0615 -0.0937,-0.0937 -0.14676,-0.14585 -0.2858,-0.29567 -0.4375,-0.4375 -0.0399,-0.0433 -0.0847,-0.082 -0.125,-0.125 -0.13135,-0.12996 -0.23971,-0.27949 -0.375,-0.40625 -0.0449,-0.0487 -0.11084,-0.0767 -0.15625,-0.125 -0.11559,-0.11437 -0.22511,-0.23186 -0.34375,-0.34375 -0.0599,-0.065 -0.12672,-0.12327 -0.1875,-0.1875 -0.10001,-0.0987 -0.17896,-0.21561 -0.28125,-0.3125 -0.0698,-0.0758 -0.14766,-0.14396 -0.21875,-0.21875 -0.0594,-0.0545 -0.12727,-0.10222 -0.1875,-0.15625 -0.0214,-0.0205 -0.041,-0.0421 -0.0625,-0.0625 -0.0798,-0.0866 -0.16856,-0.16469 -0.25,-0.25 -0.0632,-0.0621 -0.12338,-0.1261 -0.1875,-0.1875 -0.0948,-0.10286 -0.18418,-0.21149 -0.28125,-0.3125 -0.0487,-0.0447 -0.10701,-0.0806 -0.15625,-0.125 -0.01,-0.0108 -0.0213,-0.0204 -0.0312,-0.0312 -0.0964,-0.0921 -0.18282,-0.19081 -0.28125,-0.28125 -0.0317,-0.031 -0.0618,-0.0629 -0.0937,-0.0937 -0.10977,-0.1191 -0.23093,-0.22713 -0.34375,-0.34375 -0.0106,-0.0103 -0.0206,-0.0209 -0.0312,-0.0312 -0.11817,-0.12822 -0.2533,-0.24965 -0.375,-0.375 -0.01,-0.0108 -0.0213,-0.0204 -0.0312,-0.0312 -0.1167,-0.11347 -0.224,-0.23277 -0.34375,-0.34375 -0.02,-0.0216 -0.0424,-0.0409 -0.0625,-0.0625 -0.0892,-0.0865 -0.15898,-0.19617 -0.25,-0.28125 -0.0399,-0.0433 -0.0847,-0.082 -0.125,-0.125 -0.0594,-0.0545 -0.12727,-0.10222 -0.1875,-0.15625 -0.0108,-0.0102 -0.0204,-0.0211 -0.0312,-0.0312 -0.0499,-0.0541 -0.10573,-0.10263 -0.15625,-0.15625 -0.0478,-0.0463 -0.0766,-0.11034 -0.125,-0.15625 -0.0748,-0.0812 -0.17374,-0.1387 -0.25,-0.21875 -0.0162,-0.0156 -0.015,-0.0469 -0.0312,-0.0625 -0.0837,-0.0908 -0.19577,-0.16062 -0.28125,-0.25 -0.005,-0.005 0.005,-0.0258 0,-0.0312 -0.0808,-0.0742 -0.16762,-0.14547 -0.25,-0.21875 -0.0299,-0.0325 -0.0636,-0.0615 -0.0937,-0.0937 -0.0427,-0.0409 -0.0819,-0.0845 -0.125,-0.125 -0.0103,-0.0101 -0.0209,-0.0212 -0.0312,-0.0312 -0.0449,-0.0487 -0.0796,-0.10794 -0.125,-0.15625 -0.0214,-0.0196 -0.041,-0.0429 -0.0625,-0.0625 -0.0247,-0.0268 -0.0689,-0.0358 -0.0937,-0.0625 -0.0433,-0.039 -0.0812,-0.0862 -0.125,-0.125 -0.01,-0.0108 -0.0213,-0.0204 -0.0312,-0.0312 -0.0537,-0.0511 -0.10194,-0.1057 -0.15625,-0.15625 -0.0299,-0.0325 -0.0636,-0.0615 -0.0937,-0.0937 -0.0215,-0.0204 -0.0409,-0.0422 -0.0625,-0.0625 -0.0499,-0.0541 -0.10573,-0.10263 -0.15625,-0.15625 -0.01,-0.0108 -0.0213,-0.0204 -0.0312,-0.0312 -0.0322,-0.0306 -0.0613,-0.0633 -0.0937,-0.0937 -0.0349,-0.0379 -0.0585,-0.0873 -0.0937,-0.125 -0.0148,-0.0161 -0.0476,-0.0152 -0.0625,-0.0312 -0.0159,-0.0151 -0.0153,-0.0475 -0.0312,-0.0625 -0.0192,-0.0208 -0.0433,-0.0418 -0.0625,-0.0625 -0.005,-0.005 -0.0267,0.005 -0.0312,0 -0.02,-0.0216 -0.0424,-0.0409 -0.0625,-0.0625 -0.01,-0.0108 -0.0213,-0.0204 -0.0312,-0.0312 -0.005,-0.005 0.005,-0.0262 0,-0.0312 -0.005,-0.006 -0.0258,0.006 -0.0312,0 -0.0499,-0.0541 -0.10573,-0.10263 -0.15625,-0.15625 -0.0636,-0.0584 -0.12295,-0.12969 -0.1875,-0.1875 -0.0529,-0.0486 -0.10267,-0.10806 -0.15625,-0.15625 -0.0529,-0.0486 -0.10265,-0.10805 -0.15625,-0.15625 -0.0428,-0.0393 -0.0818,-0.086 -0.125,-0.125 -0.0424,-0.0389 -0.0822,-0.0863 -0.125,-0.125 -0.0321,-0.0295 -0.0614,-0.0644 -0.0937,-0.0937 -0.0214,-0.0196 -0.041,-0.0429 -0.0625,-0.0625 -0.0212,-0.0195 -0.0412,-0.0431 -0.0625,-0.0625 -0.0163,-0.0151 -0.0148,-0.0474 -0.0312,-0.0625 -0.006,-0.005 -0.0254,0.005 -0.0312,0 -0.21837,-0.20053 -0.45742,-0.39979 -0.6875,-0.59375 -0.16542,-0.13899 -0.32855,-0.27064 -0.5,-0.40625 -0.0225,-0.0176 -0.0399,-0.045 -0.0625,-0.0625 -0.0113,-0.009 -0.0199,-0.0225 -0.0312,-0.0312 -0.0113,-0.009 -0.02,-0.0225 -0.0312,-0.0312 -0.4354,-0.34016 -0.90126,-0.65012 -1.375,-0.96875 -0.0117,-0.008 -0.0195,-0.0235 -0.0312,-0.0312 -0.0117,-0.008 -0.0195,-0.0235 -0.0312,-0.0312 -0.47698,-0.31834 -0.98447,-0.60955 -1.5,-0.90625 -0.012,-0.007 -0.0192,-0.0244 -0.0312,-0.0312 -0.0118,-0.007 -0.0194,-0.0245 -0.0312,-0.0312 -1.05575,-0.60322 -2.22126,-1.14318 -3.4375,-1.65625 -0.0207,-0.009 -0.0417,-0.0226 -0.0625,-0.0312 -0.0122,-0.005 -0.0191,-0.0262 -0.0312,-0.0312 -0.61547,-0.25738 -1.24999,-0.48429 -1.90625,-0.71875 -0.67013,-0.23942 -1.34983,-0.47199 -2.0625,-0.6875 -0.52509,-0.15879 -1.07682,-0.32294 -1.625,-0.46875 -0.19863,-0.0528 -0.39209,-0.10512 -0.59375,-0.15625 -0.01,-0.002 -0.0215,0.002 -0.0312,0 -0.17312,-0.0438 -0.3559,-0.0825 -0.53125,-0.125 -0.65669,-0.15929 -1.31202,-0.32705 -2,-0.46875 l 0.0312,-0.0937 -0.53125,0 c -0.0199,-0.004 -0.0426,0.004 -0.0625,0 -0.19589,-0.0385 -0.39538,-0.0879 -0.59375,-0.125 -0.0622,-0.0117 -0.12501,-0.0197 -0.1875,-0.0312 l 0.21875,-1 -1.375,0 0.21875,-1.15625 -1.375,0 0.21875,-1.15625 -1.3125,0 0.21875,-1.09375 -1.34375,0 0.21875,-1.09375 -1.28125,0 0.21875,-1.09375 -1.28125,0 0.21875,-1.0625 -1.28125,0 0.21875,-1.0625 -1.21875,0 0.1875,-1.03125 -1.1875,0 0.1875,-1 -1.1875,0 0.1875,-1 -1.15625,0 0.1875,-0.96875 -1.15625,0 0.1875,-0.96875 -1.125,0 0.1875,-0.9375 -1.125,0 0.1875,-0.9375 -1.09375,0 0.1875,-0.90625 -1.09375,0 0.1875,-0.90625 -1.03125,0 0.15625,-0.875 -1,0 0.15625,-0.84375 -1,0 0.15625,-0.84375 -0.96875,0 0.15625,-0.8125 -0.96875,0 0.15625,-0.8125 -0.9375,0 0.15625,-0.78125 -0.9375,0 0.15625,-0.78125 -0.90625,0 0.15625,-0.75 -0.90625,0 0.15625,-0.75 -0.84375,0 0.125,-0.71875 -0.8125,0 0.125,-0.6875 -0.8125,0 0.125,-0.6875 -0.8125,0 0.125,-0.65625 -0.75,0 0.125,-0.65625 -0.78125,0 0.125,-0.625 -0.71875,0 0.125,-0.625 -0.71875,0 0.125,-0.59375 -0.71875,0 0.125,-0.59375 -0.65625,0 0.0937,-0.5625 -0.625,0 0.0937,-0.53125 -0.625,0 0.0937,-0.53125 -0.625,0 0.0937,-0.53125 -0.5625,0 0.0937,-0.46875 -0.59375,0 0.0937,-0.5 -0.53125,0 0.0937,-0.4375 -0.5625,0 0.0937,-0.4375 -0.5,0 0.0937,-0.4375 -0.5,0 0.0937,-0.40625 -0.5,0 0.0937,-0.40625 -0.4375,0 0.0625,-0.375 -0.40625,0 0.0625,-0.34375 -0.40625,0 0.0625,-0.34375 -0.375,0 0.0625,-0.3125 -0.375,0 0.0625,-0.3125 -0.34375,0 0.0625,-0.28125 -0.3125,0 0.0625,-0.25 -0.3125,0 0.0625,-0.25 -0.3125,0 0.0625,-0.25 -0.25,0 0.0312,-0.21875 -0.21875,0 0.0312,-0.1875 -0.21875,0 0.0312,-0.1875 -0.1875,0 0.0312,-0.15625 -0.1875,0 0.0312,-0.15625 -0.15625,0 0.0312,-0.125 -0.15625,0 0.0312,-0.125 -0.125,0 0.0312,-0.0937 -0.0625,0 0,-0.0625 -0.0625,0 0,-0.0625 -0.0625,0 0,-0.0625 -0.0312,0 -31.1875,0 -0.0312,0 z"
       id="path3785"
       inkscape:connector-curvature="0"
       clip-path="url(#clipPath4613)" /><path
       display="inline"
       d="m 192.88295,217.2805 c -8.35275,-9.561 -21.642,-14.34225 -39.8595,-14.34225 H 92.469954 l -28.095,144.55425 h 31.488 l 7.469996,-38.43075 h 26.97225 c 11.90175,0 21.69225,-1.24725 29.37975,-3.75225 7.68525,-2.4975 14.6715,-6.69 20.95875,-12.57525 5.27775,-4.85025 9.54375,-10.19925 12.81525,-16.05 3.2655,-5.84775 5.586,-12.30075 6.9585,-19.359 3.33225,-17.136 0.8175,-30.48225 -7.5345,-40.04475 z m -25.01325,37.83675 c -2.17725,11.18775 -6.369,19.17225 -12.58125,23.95575 -6.216,4.785 -15.67275,7.17675 -28.3665,7.17675 h -19.1565 l 11.7585,-60.50025 h 21.576 c 11.964,0 19.9365,2.20725 23.922,6.624 3.9825,4.419 4.93425,11.99925 2.84775,22.74375 z m 149.50125,-13.323 -13.07175,67.2675 h -31.73775 l 12.429,-63.9585 c 1.413,-7.2765 0.89475,-12.24 -1.563,-14.88525 -2.454,-2.64675 -7.6815,-3.972 -15.675,-3.972 H 242.7857 l -16.0935,82.81575 h -31.242 l 28.095,-144.55425 h 31.242 l -7.46925,38.43075 h 27.83325 c 17.5095,0 29.589,3.05775 36.23775,9.1635 6.6495,6.1095 8.63925,16.008 5.982,29.6925 z m 121.2945,-24.51375 c -8.35275,-9.561 -21.642,-14.34225 -39.8565,-14.34225 h -60.5535 l -28.095,144.55425 h 31.488 l 7.47,-38.43075 h 26.97225 c 11.90175,0 21.6885,-1.24725 29.37675,-3.75225 7.68525,-2.4975 14.6715,-6.69 20.95875,-12.57525 5.277,-4.85025 9.54675,-10.19925 12.816,-16.05 3.2655,-5.84775 5.58525,-12.30075 6.95775,-19.359 3.3315,-17.136 0.8205,-30.48225 -7.5345,-40.04475 z m -25.011,37.83675 c -2.1765,11.18775 -6.36825,19.17225 -12.58425,23.95575 -6.213,4.785 -15.672,7.17675 -28.3665,7.17675 h -19.15275 l 11.7585,-60.50025 h 21.57375 c 11.964,0 19.93575,2.20725 23.92425,6.624 3.9825,4.419 4.9305,11.99925 2.847,22.74375 z"
       id="path5"
       inkscape:connector-curvature="0"
       style="fill:#ffffff;display:inline"
       clip-path="url(#clipPath4609)" /><path
       style="display:inline"
       inkscape:connector-curvature="0"
       id="path3770"
       d="m 542.88295,567.2805 c -8.35275,-9.561 -21.642,-14.34225 -39.8595,-14.34225 h -60.5535 l -28.095,144.55425 h 31.488 l 7.47,-38.43075 h 26.97225 c 11.90175,0 21.69225,-1.24725 29.37975,-3.75225 7.68525,-2.4975 14.6715,-6.69 20.95875,-12.57525 5.27775,-4.85025 9.54375,-10.19925 12.81525,-16.05 3.2655,-5.84775 5.586,-12.30075 6.9585,-19.359 3.33225,-17.136 0.8175,-30.48225 -7.5345,-40.04475 z m -25.01325,37.83675 c -2.17725,11.18775 -6.369,19.17225 -12.58125,23.95575 -6.216,4.785 -15.67275,7.17675 -28.3665,7.17675 h -19.1565 l 11.7585,-60.50025 h 21.576 c 11.964,0 19.9365,2.20725 23.922,6.624 3.9825,4.419 4.93425,11.99925 2.84775,22.74375 z m 149.50125,-13.323 -13.07175,67.2675 h -31.73775 l 12.429,-63.9585 c 1.413,-7.2765 0.89475,-12.24 -1.563,-14.88525 -2.454,-2.64675 -7.6815,-3.972 -15.675,-3.972 H 592.7857 l -16.0935,82.81575 h -31.242 l 28.095,-144.55425 h 31.242 l -7.46925,38.43075 h 27.83325 c 17.5095,0 29.589,3.05775 36.23775,9.1635 6.6495,6.1095 8.63925,16.008 5.982,29.6925 z m 121.2945,-24.51375 c -8.35275,-9.561 -21.642,-14.34225 -39.8565,-14.34225 h -60.5535 l -28.095,144.55425 h 31.488 l 7.47,-38.43075 h 26.97225 c 11.90175,0 21.6885,-1.24725 29.37675,-3.75225 7.68525,-2.4975 14.6715,-6.69 20.95875,-12.57525 5.277,-4.85025 9.54675,-10.19925 12.816,-16.05 3.2655,-5.84775 5.58525,-12.30075 6.95775,-19.359 3.3315,-17.136 0.8205,-30.48225 -7.5345,-40.04475 z m -25.011,37.83675 c -2.1765,11.18775 -6.36825,19.17225 -12.58425,23.95575 -6.213,4.785 -15.672,7.17675 -28.3665,7.17675 h -19.15275 l 11.7585,-60.50025 h 21.57375 c 11.964,0 19.93575,2.20725 23.92425,6.624 3.9825,4.419 4.9305,11.99925 2.847,22.74375 z"
       display="inline"
       clip-path="url(#clipPath4605)" /></g></svg>