<?xml version="1.0" encoding="UTF-8" standalone="no"?>
<!-- Created with Inkscape (http://www.inkscape.org/) -->

<svg
   xmlns:dc="http://purl.org/dc/elements/1.1/"
   xmlns:cc="http://creativecommons.org/ns#"
   xmlns:rdf="http://www.w3.org/1999/02/22-rdf-syntax-ns#"
   xmlns:svg="http://www.w3.org/2000/svg"
   xmlns="http://www.w3.org/2000/svg"
   xmlns:sodipodi="http://sodipodi.sourceforge.net/DTD/sodipodi-0.dtd"
   xmlns:inkscape="http://www.inkscape.org/namespaces/inkscape"
   width="96"
   height="96.000031"
   id="svg4515"
   version="1.1"
   inkscape:version="0.48.5 r10040"
   sodipodi:docname="New document 22">
  <defs
     id="defs4517" />
  <sodipodi:namedview
     id="base"
     pagecolor="#ffffff"
     bordercolor="#666666"
     borderopacity="1.0"
     inkscape:pageopacity="0.0"
     inkscape:pageshadow="2"
     inkscape:zoom="0.7"
     inkscape:cx="213.04838"
     inkscape:cy="52.137032"
     inkscape:document-units="px"
     inkscape:current-layer="layer1"
     showgrid="false"
     fit-margin-top="0"
     fit-margin-left="0"
     fit-margin-right="0"
     fit-margin-bottom="0"
     inkscape:window-width="1920"
     inkscape:window-height="1017"
     inkscape:window-x="-8"
     inkscape:window-y="-8"
     inkscape:window-maximized="1" />
  <metadata
     id="metadata4520">
    <rdf:RDF>
      <cc:Work
         rdf:about="">
        <dc:format>image/svg+xml</dc:format>
        <dc:type
           rdf:resource="http://purl.org/dc/dcmitype/StillImage" />
        <dc:title></dc:title>
      </cc:Work>
    </rdf:RDF>
  </metadata>
  <g
     inkscape:label="Layer 1"
     inkscape:groupmode="layer"
     id="layer1"
     transform="translate(0,-956.36217)">
    <path
       style="fill:#d8d8d8;stroke:none"
       d="m 48,956.36217 c -26.509664,0 -48,21.49027 -48,48.00003 0,26.5096 21.490336,48 48,48 26.50968,0 48,-21.4904 48,-48 0,-26.50976 -21.49032,-48.00003 -48,-48.00003 z m 9.55,28.80003 c 1.060272,-0.0256 2.145072,0.0624 3,0.3 0.670544,0.20336 1.944784,0.88992 2.85,1.5 l 1.65,1.1 1.8,-0.55008 c 1.005808,-0.30496 2.346512,-0.81104 2.95,-1.14992 0.569952,-0.30512 1.1,-0.50176 1.1,-0.4 0,0.57616 -1.260688,2.56528 -2.3,3.64992 -1.408112,1.52544 -0.99976,1.66688 1.85,0.65008 1.709856,-0.57616 1.735264,-0.59408 1.4,0.0496 -0.201168,0.33888 -1.243632,1.51536 -2.35,2.6 -1.877424,1.86432 -1.95,2.09072 -1.95,3.64992 0,2.40672 -1.160096,7.40448 -2.3,10.15008 -2.112176,5.1522 -6.623904,10.4722 -11.15,13.1499 -6.370048,3.7626 -14.858832,4.7034 -22,2.5 -2.380384,-0.7456 -6.45,-2.611 -6.45,-2.9499 0,-0.1024 1.241296,-0.2661 2.75,-0.3 3.151488,-0.067 6.267872,-0.9408 8.95,-2.5 l 1.85,-1.1 -2.1,-0.7 c -2.950336,-1.017 -5.579472,-3.3467 -6.25,-5.5501 -0.201168,-0.7117 -0.12752,-0.7499 1.75,-0.7499 l 1.9,-0.05 -1.6,-0.7501 c -1.944544,-0.9829 -3.72832,-2.6552 -4.6,-4.3499 -0.637008,-1.2203 -1.434688,-4.3128 -1.2,-4.55008 0.06704,-0.1024 0.74536,0.128 1.55,0.4 2.313328,0.84748 2.641056,0.62368 1.3,-0.8 -2.514496,-2.576 -3.306944,-6.42304 -2.1,-10.04992 l 0.55,-1.6 2.25,2.2 c 4.526096,4.44032 9.848176,7.0704 15.95,7.84992 l 1.65,0.2 -0.1,-1.64992 c -0.301744,-4.3048 2.359168,-8.22464 6.55,-9.75008 0.771104,-0.27104 1.789728,-0.42448 2.85,-0.44992 z"
       id="path4163"
       inkscape:connector-curvature="0" />
  </g>
  <g
     inkscape:groupmode="layer"
     id="layer4"
     inkscape:label="Layer"
     transform="translate(0,-956.36217)" />
</svg>
