<?xml version="1.0" encoding="UTF-8" standalone="no"?>
<!-- Created with Inkscape (http://www.inkscape.org/) -->

<svg
   xmlns:dc="http://purl.org/dc/elements/1.1/"
   xmlns:cc="http://creativecommons.org/ns#"
   xmlns:rdf="http://www.w3.org/1999/02/22-rdf-syntax-ns#"
   xmlns:svg="http://www.w3.org/2000/svg"
   xmlns="http://www.w3.org/2000/svg"
   xmlns:sodipodi="http://sodipodi.sourceforge.net/DTD/sodipodi-0.dtd"
   xmlns:inkscape="http://www.inkscape.org/namespaces/inkscape"
   width="96"
   height="96.000023"
   id="svg3605"
   version="1.1"
   inkscape:version="0.48.5 r10040"
   sodipodi:docname="drawing.svg">
  <defs
     id="defs3607" />
  <sodipodi:namedview
     id="base"
     pagecolor="#ffffff"
     bordercolor="#666666"
     borderopacity="1.0"
     inkscape:pageopacity="0.0"
     inkscape:pageshadow="2"
     inkscape:zoom="1"
     inkscape:cx="730"
     inkscape:cy="-66.481628"
     inkscape:document-units="px"
     inkscape:current-layer="layer1"
     showgrid="false"
     inkscape:window-width="1920"
     inkscape:window-height="1017"
     inkscape:window-x="-8"
     inkscape:window-y="-8"
     inkscape:window-maximized="1"
     fit-margin-top="0"
     fit-margin-left="0"
     fit-margin-right="0"
     fit-margin-bottom="0" />
  <metadata
     id="metadata3610">
    <rdf:RDF>
      <cc:Work
         rdf:about="">
        <dc:format>image/svg+xml</dc:format>
        <dc:type
           rdf:resource="http://purl.org/dc/dcmitype/StillImage" />
        <dc:title></dc:title>
      </cc:Work>
    </rdf:RDF>
  </metadata>
  <g
     inkscape:label="Layer 1"
     inkscape:groupmode="layer"
     id="layer1"
     transform="translate(0,-956.36218)">
    <path
       id="path3590"
       d="m 48,1052.3622 c 26.50965,0 48,-21.4903 48,-48 0,-26.5097 -21.49035,-48.00002 -48,-48.00002 -26.50967,0 -48,21.49032 -48,48.00002 0,26.5097 21.49033,48 48,48 z m -19.93048,-47.0903 c -0.70631,-2.0427 -1.01921,-4.3821 -1.01921,-6.99552 0,-4.63929 1.47149,-6.38969 3.44639,-8.86305 -1.5102,-5.28924 0.54213,-8.90417 0.54213,-8.90417 0,0 3.1753,-0.64687 9.17742,3.57689 3.25276,-1.36988 11.9268,-1.48404 16.03147,-0.30443 2.51702,-1.63623 7.12509,-3.9574 8.98382,-3.30747 0.5034,0.79605 1.58766,3.11721 0.6583,8.21618 0.63041,1.11873 3.91106,3.50079 3.92343,10.23597 -0.0526,2.484 -0.31596,4.5815 -0.80388,6.3547 0.0928,-8e-4 -0.62313,2.1988 -0.79306,2.1933 -2.17625,4.697 -6.64028,6.4506 -13.85366,7.1796 2.33735,1.446 3.00803,3.2603 3.00803,8.169 0,4.9087 -0.0666,5.5678 -0.051,6.6972 0.0247,1.8523 2.78808,2.7397 2.68431,3.3364 -0.1038,0.5951 -2.31257,0.4992 -3.34415,0.1446 -2.92438,-1.0016 -2.63163,-3.3927 -2.63163,-3.3927 l -0.0976,-6.5632 c 0,0 0.1998,-3.5328 -1.12918,-3.5328 l 0,10.7428 c 0,2.3349 1.6651,3.0442 1.6651,3.9072 0,1.4841 -3.03901,-0.1399 -3.97611,-1.0654 -1.42656,-1.408 -1.26393,-4.3943 -1.22986,-6.755 0.0324,-2.2801 -0.0216,-7.2679 -0.0216,-7.2679 l -0.96807,0.02 c 0,0 0.39652,10.895 -0.51116,12.8798 -1.17409,2.5495 -4.71649,3.4262 -4.71649,2.2649 0,-0.7809 0.87204,-0.5328 1.35531,-2.2832 0.41202,-1.4886 0.27105,-12.5952 0.27105,-12.5952 0,0 -1.13535,0.6591 -1.13535,2.7398 0,0.9513 -0.0264,6.3912 -0.0264,8.0091 0,2.0366 -2.94299,3.1964 -4.35716,3.1964 -0.7156,0 -1.60624,-0.035 -1.60624,-0.4079 0,-0.9422 2.69049,-1.4947 2.69049,-3.4536 0,-1.6986 -0.0372,-6.0685 -0.0372,-6.0685 0,0 -1.35686,0.2283 -3.29304,0.2283 -4.87913,0 -6.42186,-3.0594 -7.15607,-4.7717 -0.95569,-2.2299 -2.19484,-3.2771 -3.51144,-4.1142 -0.80853,-0.5145 -0.99441,-1.1203 -0.059,-1.2938 4.31844,-0.7991 5.42283,4.8128 8.30696,5.7078 2.05852,0.6378 4.70565,0.3623 6.02223,-0.4749 0.17349,-1.7138 1.43122,-3.1963 2.47831,-3.9772 -7.33576,-0.6925 -11.68515,-3.1963 -13.9404,-7.2207 -0.0287,7e-4 -1.06242,-2.1874 -0.97584,-2.1872 z"
       inkscape:connector-curvature="0"
       style="fill:#d8d8d8;stroke:none" />
  </g>
</svg>
