<?xml version="1.0" encoding="UTF-8" standalone="no"?>
<!-- Created with Inkscape (http://www.inkscape.org/) -->

<svg
   xmlns:dc="http://purl.org/dc/elements/1.1/"
   xmlns:cc="http://creativecommons.org/ns#"
   xmlns:rdf="http://www.w3.org/1999/02/22-rdf-syntax-ns#"
   xmlns:svg="http://www.w3.org/2000/svg"
   xmlns="http://www.w3.org/2000/svg"
   xmlns:sodipodi="http://sodipodi.sourceforge.net/DTD/sodipodi-0.dtd"
   xmlns:inkscape="http://www.inkscape.org/namespaces/inkscape"
   width="96"
   height="96.000031"
   id="svg4515"
   version="1.1"
   inkscape:version="0.48.5 r10040"
   sodipodi:docname="Twitter.svg">
  <defs
     id="defs4517" />
  <sodipodi:namedview
     id="base"
     pagecolor="#ffffff"
     bordercolor="#666666"
     borderopacity="1.0"
     inkscape:pageopacity="0.0"
     inkscape:pageshadow="2"
     inkscape:zoom="4"
     inkscape:cx="29.95663"
     inkscape:cy="27.681337"
     inkscape:document-units="px"
     inkscape:current-layer="layer1"
     showgrid="false"
     fit-margin-top="0"
     fit-margin-left="0"
     fit-margin-right="0"
     fit-margin-bottom="0"
     inkscape:window-width="1920"
     inkscape:window-height="1017"
     inkscape:window-x="-8"
     inkscape:window-y="-8"
     inkscape:window-maximized="1" />
  <metadata
     id="metadata4520">
    <rdf:RDF>
      <cc:Work
         rdf:about="">
        <dc:format>image/svg+xml</dc:format>
        <dc:type
           rdf:resource="http://purl.org/dc/dcmitype/StillImage" />
        <dc:title></dc:title>
      </cc:Work>
    </rdf:RDF>
  </metadata>
  <g
     inkscape:label="Layer 1"
     inkscape:groupmode="layer"
     id="layer1"
     transform="translate(0,-956.36217)">
    <path
       style="fill:#d8d8d8;stroke:none;stroke-opacity:1"
       d="M 48 0 C 21.490336 0 0 21.49044 0 48 C 0 53.927775 1.0663701 59.602076 3.03125 64.84375 C 3.2642115 65.465675 3.523529 66.078127 3.78125 66.6875 C 3.8469503 66.842792 3.9014668 67.001799 3.96875 67.15625 C 4.0749782 67.400141 4.2023575 67.633237 4.3125 67.875 C 4.3591548 67.977405 4.390148 68.085482 4.4375 68.1875 C 4.6384965 68.620547 4.8490857 69.042819 5.0625 69.46875 C 5.0876671 69.518974 5.0996621 69.574877 5.125 69.625 C 5.1629179 69.700017 5.2117004 69.768959 5.25 69.84375 C 5.2649337 69.872912 5.2662584 69.908373 5.28125 69.9375 C 5.3024047 69.978606 5.3224802 70.021463 5.34375 70.0625 C 5.3610847 70.095938 5.388839 70.122858 5.40625 70.15625 C 5.7913684 70.894775 6.2032137 71.628392 6.625 72.34375 C 6.6821953 72.440674 6.7546444 72.528515 6.8125 72.625 C 6.8792563 72.736498 6.9323668 72.857841 7 72.96875 C 7.2445468 73.369423 7.4941503 73.763421 7.75 74.15625 C 7.8173062 74.259586 7.8694215 74.365966 7.9375 74.46875 C 8.1432101 74.77932 8.3810645 75.069551 8.59375 75.375 C 8.6449346 75.448505 8.6984155 75.520546 8.75 75.59375 C 8.7980657 75.661998 8.8265882 75.744515 8.875 75.8125 C 8.9876612 75.970624 9.1042274 76.124558 9.21875 76.28125 C 9.2409564 76.311648 9.2589739 76.344656 9.28125 76.375 C 9.505399 76.680232 9.7376152 76.981574 9.96875 77.28125 C 9.9917152 77.311015 10.008217 77.345291 10.03125 77.375 C 10.226445 77.62688 10.424938 77.877147 10.625 78.125 C 10.800779 78.342715 10.976768 78.566694 11.15625 78.78125 C 11.236498 78.877189 11.325269 78.9672 11.40625 79.0625 C 11.411507 79.068687 11.40099 79.087565 11.40625 79.09375 C 11.439737 79.133116 11.464989 79.180631 11.5 79.21875 C 11.504791 79.223966 11.526439 79.21355 11.53125 79.21875 C 11.531638 79.217224 11.531432 79.188181 11.53125 79.1875 C 11.54104 79.174457 11.553733 79.169357 11.5625 79.15625 C 11.569991 79.148849 11.585898 79.163269 11.59375 79.15625 C 11.598384 79.145437 11.588101 79.133048 11.59375 79.125 C 11.62168 79.099314 11.630211 79.058787 11.65625 79.03125 C 11.67881 79.01519 11.7363 78.97858 11.71875 79 C 11.722914 78.996181 11.712756 78.973649 11.71875 78.96875 C 11.716476 78.974068 11.743893 78.941365 11.75 78.9375 C 11.75954 78.929964 11.7685 78.914262 11.78125 78.90625 C 11.70925 78.782647 11.696329 78.695221 11.78125 78.75 C 13.12341 76.4929 15.198177 74.29225 18.28125 72.46875 C 25.237714 68.20635 34.58969 67.6343 39.65625 67.3125 C 38.088026 65.3021 36.28125 63.1859 36.28125 59.6875 C 36.28125 57.7976 36.843306 56.67065 37.40625 55.34375 C 36.159722 55.46455 34.969638 55.5625 33.84375 55.5625 C 21.981574 55.5625 15.25 46.72583 15.25 38 C 15.25 32.85312 17.621162 27.1376 22.40625 23 C 28.799754 17.74448 36.4059 16.84375 42.4375 16.84375 L 65.46875 16.84375 L 58.3125 20.875 L 51.40625 20.875 C 53.979738 23.0022 59.34375 27.48336 59.34375 36 C 59.34375 44.28353 54.633198 48.1755 49.96875 51.875 C 48.480942 53.3225 46.8125 54.89075 46.8125 57.34375 C 46.8125 59.79655 48.472206 61.15105 49.71875 62.15625 L 53.75 65.3125 C 58.69592 69.414 63.15625 73.2171 63.15625 80.9375 C 63.15625 86.0289 60.785674 91.1409 56.15625 95.0625 C 56.125769 95.06747 56.093863 95.063202 56.0625 95.0625 C 56.05487 95.093129 56.050203 95.120646 56.03125 95.15625 C 55.99862 95.20377 56.02578 95.1871 55.96875 95.25 C 55.949394 95.255782 55.925425 95.243654 55.90625 95.25 C 55.906399 95.250057 55.908499 95.27825 55.90625 95.28125 C 55.897669 95.292317 55.885995 95.30398 55.875 95.3125 C 55.865459 95.31582 55.853275 95.30913 55.84375 95.3125 L 55.8125 95.34375 L 55.84375 95.34375 C 78.62288 91.600213 96 71.839049 96 48 C 96 43.4586 95.36614 39.07025 94.1875 34.90625 L 82.8125 34.90625 L 82.8125 47.5 L 77.46875 47.5 L 77.46875 34.90625 L 64.96875 34.90625 L 64.96875 29.65625 L 77.46875 29.65625 L 77.46875 17.15625 L 82.8125 17.15625 L 82.8125 29.65625 L 92.375 29.65625 C 85.172401 12.241882 68.016862 0 48 0 z M 55.8125 95.34375 C 55.818627 95.337663 55.806099 95.318259 55.8125 95.3125 C 55.802795 95.315957 55.790958 95.309051 55.78125 95.3125 C 55.778823 95.313362 55.783678 95.342889 55.78125 95.34375 C 55.786239 95.338334 55.80686 95.348546 55.8125 95.34375 z M 35.09375 20.5 C 29.023826 21.33723 27.667734 23.97052 26 26.8125 C 25.086531 30.76256 24.447629 34.8266 26.1875 39.9375 C 28.663286 46.78513 32.19736 51.4117 37.53125 52.375 C 39.67147 52.5362 43.256736 52.19135 46.375 49.71875 C 48.441801 47.37215 50.895263 44.86153 48.65625 34.53125 C 46.707532 29.33371 45.039724 21.43844 35.09375 20.5 z M 40.875 70.4375 C 39.86972 70.4375 33.829656 70.65055 29.125 72.21875 C 26.672136 73.10335 19.53125 75.7883 19.53125 83.75 C 19.53125 84.6153 19.601538 85.47345 19.78125 86.28125 L 19.84375 86.34375 C 20.051983 86.666176 20.623909 87.258907 21.28125 87.875 C 28.878776 92.975667 38.012588 95.968452 47.84375 96 C 47.854217 96.000034 47.864532 95.999973 47.875 96 C 47.903986 95.983989 47.951737 95.945828 47.96875 95.9375 C 48.024684 95.93814 48.005597 95.939199 48.03125 95.9375 C 48.051923 95.932171 48.048967 95.941517 48.0625 95.9375 C 48.043499 95.957482 48.042364 95.979957 48.03125 96 L 48.0625 96 C 48.075445 95.979378 48.081009 95.958289 48.09375 95.9375 C 48.099026 95.933317 48.104519 95.895944 48.09375 95.90625 L 48.125 95.90625 C 48.140292 95.897171 48.161861 95.865954 48.15625 95.875 C 48.166067 95.863526 48.175986 95.853653 48.1875 95.84375 C 48.197798 95.834892 48.30656 95.818535 48.3125 95.8125 C 48.323179 95.813897 48.31038 95.81934 48.34375 95.8125 L 48.46875 95.78125 C 48.45186 95.781153 48.4437 95.758629 48.46875 95.75 C 48.55926 95.7333 48.542043 95.74623 48.625 95.75 C 48.627444 95.733336 48.622533 95.736606 48.625 95.71875 C 48.6276 95.69981 48.674658 95.705427 48.71875 95.71875 C 48.73213 95.71035 48.76793 95.69602 48.78125 95.6875 C 48.687551 95.68823 48.593895 95.6875 48.5 95.6875 C 53.200832 93.6254 55.625 89.8453 55.625 85.3125 C 55.625 79.6026 51.962172 76.60305 43.4375 70.53125 C 42.55286 70.45125 42.000904 70.4375 40.875 70.4375 z M 48.125 95.90625 L 48.09375 95.9375 L 48.125 95.9375 C 48.12971 95.930107 48.120051 95.91342 48.125 95.90625 z M 18.8125 86.0625 C 18.814071 86.074001 18.810962 86.082275 18.8125 86.09375 C 18.82408 86.102722 18.832246 86.115928 18.84375 86.125 C 18.857382 86.118032 18.860885 86.101346 18.875 86.09375 C 18.857767 86.078972 18.830214 86.077328 18.8125 86.0625 z M 28 91.53125 C 29.132545 91.92175 30.240758 92.2912 31.375 92.625 C 30.220889 92.2867 29.109683 91.90915 28 91.53125 z "
       transform="translate(0,956.36217)"
       id="path4185" />
  </g>
  <g
     inkscape:groupmode="layer"
     id="layer4"
     inkscape:label="Layer"
     transform="translate(0,-956.36217)" />
</svg>
