<?xml version="1.0" encoding="UTF-8" standalone="no"?>
<!-- Generator: Adobe Illustrator 16.0.0, SVG Export Plug-In . SVG Version: 6.00 Build 0)  -->

<svg
   xmlns:dc="http://purl.org/dc/elements/1.1/"
   xmlns:cc="http://creativecommons.org/ns#"
   xmlns:rdf="http://www.w3.org/1999/02/22-rdf-syntax-ns#"
   xmlns:svg="http://www.w3.org/2000/svg"
   xmlns="http://www.w3.org/2000/svg"
   xmlns:sodipodi="http://sodipodi.sourceforge.net/DTD/sodipodi-0.dtd"
   xmlns:inkscape="http://www.inkscape.org/namespaces/inkscape"
   version="1.1"
   id="Layer_1"
   x="0px"
   y="0px"
   width="64px"
   height="64px"
   viewBox="0 0 64 64"
   enable-background="new 0 0 64 64"
   xml:space="preserve"
   inkscape:version="0.48.5 r10040"
   sodipodi:docname="basic_todo_txt.svg"><metadata
   id="metadata27"><rdf:RDF><cc:Work
       rdf:about=""><dc:format>image/svg+xml</dc:format><dc:type
         rdf:resource="http://purl.org/dc/dcmitype/StillImage" /><dc:title></dc:title></cc:Work></rdf:RDF></metadata><defs
   id="defs25" /><sodipodi:namedview
   pagecolor="#ffffff"
   bordercolor="#666666"
   borderopacity="1"
   objecttolerance="10"
   gridtolerance="10"
   guidetolerance="10"
   inkscape:pageopacity="0"
   inkscape:pageshadow="2"
   inkscape:window-width="1920"
   inkscape:window-height="1017"
   id="namedview23"
   showgrid="false"
   inkscape:zoom="3.6875"
   inkscape:cx="-10.305085"
   inkscape:cy="32"
   inkscape:window-x="-8"
   inkscape:window-y="-8"
   inkscape:window-maximized="1"
   inkscape:current-layer="Layer_1" />
<g
   id="g3"
   style="fill:#3399cc;fill-opacity:1">
	<rect
   x="25"
   y="23"
   width="22"
   height="2"
   id="rect5"
   style="fill:#3399cc;fill-opacity:1" />
	<rect
   x="25"
   y="33"
   width="22"
   height="2"
   id="rect7"
   style="fill:#3399cc;fill-opacity:1" />
	<rect
   x="25"
   y="43"
   width="22"
   height="2"
   id="rect9"
   style="fill:#3399cc;fill-opacity:1" />
	<rect
   x="25"
   y="53"
   width="22"
   height="2"
   id="rect11"
   style="fill:#3399cc;fill-opacity:1" />
	<rect
   x="17"
   y="23"
   width="4"
   height="2"
   id="rect13"
   style="fill:#3399cc;fill-opacity:1" />
	<rect
   x="17"
   y="33"
   width="4"
   height="2"
   id="rect15"
   style="fill:#3399cc;fill-opacity:1" />
	<rect
   x="17"
   y="43"
   width="4"
   height="2"
   id="rect17"
   style="fill:#3399cc;fill-opacity:1" />
	<rect
   x="17"
   y="53"
   width="4"
   height="2"
   id="rect19"
   style="fill:#3399cc;fill-opacity:1" />
	<path
   d="M27,0v4h-3.781l-0.75,3H9v57h46V7H41.531l-0.75-3H37V0H27z M43.281,14l-1.25-5H53v53H11V9h10.969l-1.25,5H43.281z    M39.219,6l1.5,6H23.281l1.5-6H29V2h6v4H39.219z"
   id="path21"
   style="fill:#3399cc;fill-opacity:1" />
</g>
</svg>